<?xml version="1.0" encoding="UTF-8"?>
<svg id="Capa_14" data-name="Capa 14" xmlns="http://www.w3.org/2000/svg" viewBox="0 0 1329.1 187.58">
  <defs>
    <style>
      .cls-1 {
        fill: #f2c394;
      }

      .cls-2 {
        fill: #a52c14;
      }

      .cls-3 {
        fill: #f28e1f;
      }
    </style>
  </defs>
  <g>
    <path class="cls-3" d="m18.71,0h1291.69c10.32,0,18.71,8.38,18.71,18.71v149.41c0,10.74-8.72,19.46-19.46,19.46H18.71c-10.32,0-18.71-8.38-18.71-18.71V18.71C0,8.38,8.38,0,18.71,0Z"/>
    <path class="cls-1" d="m0,18.71v.43h1329.1v-.43c0-3.09-.76-6.01-2.09-8.58H2.09C.76,12.7,0,15.61,0,18.71Z"/>
    <path class="cls-1" d="m3.45,179.67h1321.83c1.91-2.59,3.2-5.66,3.64-9H.09c.32,3.34,1.52,6.41,3.36,9Z"/>
  </g>
  <g>
    <path class="cls-2" d="m465.77,142.5V45.08h8.48v88.94h32.32v8.48h-40.8Zm19.66-16.27h-3.5V45.08h6.89l-3.39,81.14Zm28.03,16.38v-16.38h3.5v16.38h-3.5Z"/>
    <path class="cls-2" d="m615.73,93.9c0,6.93-1.32,13.43-3.95,19.49-2.64,6.07-6.24,11.36-10.79,15.88-4.56,4.52-9.89,8.08-15.99,10.68-6.1,2.6-12.58,3.9-19.44,3.9s-13.43-1.3-19.5-3.9c-6.06-2.6-11.34-6.16-15.82-10.68-4.48-4.52-8.02-9.81-10.62-15.88-2.6-6.06-3.9-12.56-3.9-19.49s1.3-13.45,3.9-19.55c2.6-6.1,6.14-11.42,10.62-15.93,4.48-4.52,9.76-8.1,15.82-10.74,6.06-2.64,12.56-3.96,19.5-3.96s13.45,1.32,19.55,3.96c6.1,2.64,11.41,6.22,15.93,10.74,4.52,4.52,8.1,9.83,10.74,15.93,2.64,6.1,3.95,12.62,3.95,19.55Zm-8.7.06c0-5.74-1.07-11.13-3.22-16.18-2.15-5.05-5.1-9.47-8.87-13.24s-8.18-6.73-13.22-8.88c-5.05-2.15-10.44-3.23-16.16-3.23s-11.21,1.1-16.22,3.28c-5.01,2.19-9.38,5.15-13.11,8.88-3.73,3.73-6.67,8.13-8.81,13.18-2.15,5.05-3.22,10.45-3.22,16.18s1.07,11.13,3.22,16.18c2.15,5.05,5.09,9.45,8.81,13.18,3.73,3.74,8.12,6.68,13.17,8.83,5.05,2.15,10.43,3.22,16.16,3.22s11.11-1.07,16.16-3.22c5.05-2.15,9.44-5.09,13.17-8.83,3.73-3.73,6.68-8.11,8.87-13.13,2.18-5.02,3.28-10.43,3.28-16.24Zm-37.18-32.27c-4.5.23-8.69,1.28-12.56,3.17s-7.22,4.35-10.08,7.4c-2.85,3.05-5.1,6.57-6.76,10.57s-2.48,8.25-2.48,12.77.69,8.44,2.08,12.21c1.39,3.77,3.38,7.08,5.97,9.95,2.59,2.86,5.69,5.16,9.29,6.89,3.6,1.73,7.62,2.71,12.05,2.94h-1.81c-4.67,0-9.04-.88-13.11-2.66-4.07-1.77-7.63-4.18-10.68-7.23s-5.44-6.61-7.18-10.68-2.6-8.44-2.6-13.11.87-9.06,2.6-13.17c1.73-4.11,4.11-7.7,7.12-10.79,3.01-3.09,6.57-5.52,10.68-7.29,4.11-1.77,8.49-2.66,13.17-2.66.23,0,.55.08.96.23s.85.32,1.3.51c.45.19.86.38,1.24.56.38.19.64.32.79.4Zm56.96,32.22c0,5.05-.62,9.93-1.86,14.64-1.24,4.71-3.01,9.14-5.31,13.28-2.3,4.14-5.12,7.99-8.48,11.53-3.35,3.54-7.14,6.63-11.36,9.27h-3.39c8.51-5.42,15.12-12.38,19.83-20.85,4.71-8.48,7.06-17.76,7.06-27.86,0-4.97-.61-9.81-1.81-14.52-1.21-4.71-2.98-9.16-5.31-13.34-2.34-4.18-5.16-8.04-8.48-11.59-3.32-3.54-7.04-6.67-11.19-9.38h3.39c4.22,2.71,7.98,5.84,11.3,9.38,3.31,3.54,6.14,7.4,8.48,11.59,2.33,4.18,4.11,8.61,5.31,13.28s1.81,9.53,1.81,14.58Z"/>
    <path class="cls-2" d="m687.49,124.87c0,2.41-.45,4.69-1.36,6.84-.9,2.15-2.15,4.01-3.73,5.6-1.58,1.58-3.45,2.84-5.6,3.79-2.15.94-4.43,1.41-6.84,1.41h-35.03V45.08h9.83c5.65,0,10.92,1.06,15.82,3.16,4.9,2.11,9.19,5.01,12.88,8.7,3.69,3.69,6.59,7.99,8.7,12.88,2.11,4.9,3.16,10.17,3.16,15.82,0,8.59-2.53,16.38-7.57,23.39,6.48,3.32,9.72,8.59,9.72,15.82Zm-10.73-39.1c0-4.75-.87-9.08-2.6-13-1.73-3.92-4.09-7.29-7.06-10.11-2.98-2.83-6.5-5.03-10.57-6.61-4.07-1.58-8.44-2.37-13.11-2.37v63.96h1.47c4.37,0,8.49-.83,12.37-2.48,3.88-1.66,7.27-3.94,10.17-6.84,2.9-2.9,5.18-6.27,6.84-10.11,1.66-3.84,2.49-7.99,2.49-12.43Zm2.26,39.1c0-2.18-.7-4.12-2.08-5.82-1.39-1.69-3.17-2.73-5.35-3.11-7.66,6.78-16.56,10.17-26.7,10.17h-.73c-.26,0-.51-.04-.73-.11v8.02h26.59c2.48,0,4.6-.9,6.36-2.71,1.76-1.81,2.65-3.95,2.65-6.44Zm-24.52-17.06c-1.13.38-2.19.79-3.16,1.24v-46.79c1.05.3,2.09.58,3.11.85,1.02.26,2.05.58,3.11.96l-3.05,43.73Zm44.19,17.06c0,6.93-2.45,12.85-7.35,17.74h-3.39c4.9-4.9,7.35-10.81,7.35-17.74s-2.45-12.73-7.35-17.85c3.31-6.78,4.97-13.9,4.97-21.36,0-4.07-.51-8.06-1.53-11.98-1.02-3.92-2.47-7.63-4.35-11.13-1.89-3.5-4.2-6.74-6.95-9.72-2.75-2.97-5.86-5.55-9.32-7.74h3.5c3.46,2.19,6.57,4.77,9.32,7.74,2.75,2.98,5.07,6.22,6.95,9.72,1.88,3.5,3.33,7.22,4.35,11.13,1.02,3.92,1.52,7.91,1.52,11.98,0,3.77-.43,7.42-1.3,10.96-.87,3.54-2.13,7.01-3.79,10.4,4.9,5.12,7.35,11.07,7.35,17.85Z"/>
    <path class="cls-2" d="m759.36,124.87c0,2.41-.45,4.69-1.36,6.84-.9,2.15-2.15,4.01-3.73,5.6-1.58,1.58-3.45,2.84-5.6,3.79-2.15.94-4.43,1.41-6.84,1.41h-35.03V45.08h9.83c5.65,0,10.92,1.06,15.82,3.16,4.9,2.11,9.19,5.01,12.88,8.7,3.69,3.69,6.59,7.99,8.7,12.88,2.11,4.9,3.16,10.17,3.16,15.82,0,8.59-2.53,16.38-7.57,23.39,6.48,3.32,9.72,8.59,9.72,15.82Zm-10.73-39.1c0-4.75-.87-9.08-2.6-13-1.73-3.92-4.09-7.29-7.06-10.11-2.98-2.83-6.5-5.03-10.57-6.61-4.07-1.58-8.44-2.37-13.11-2.37v63.96h1.47c4.37,0,8.49-.83,12.37-2.48,3.88-1.66,7.27-3.94,10.17-6.84,2.9-2.9,5.18-6.27,6.84-10.11,1.66-3.84,2.49-7.99,2.49-12.43Zm2.26,39.1c0-2.18-.7-4.12-2.08-5.82-1.39-1.69-3.17-2.73-5.35-3.11-7.66,6.78-16.56,10.17-26.7,10.17h-.73c-.26,0-.51-.04-.73-.11v8.02h26.59c2.48,0,4.6-.9,6.36-2.71,1.76-1.81,2.65-3.95,2.65-6.44Zm-24.52-17.06c-1.13.38-2.19.79-3.16,1.24v-46.79c1.05.3,2.09.58,3.11.85,1.02.26,2.05.58,3.11.96l-3.05,43.73Zm44.19,17.06c0,6.93-2.45,12.85-7.35,17.74h-3.39c4.9-4.9,7.35-10.81,7.35-17.74s-2.45-12.73-7.35-17.85c3.31-6.78,4.97-13.9,4.97-21.36,0-4.07-.51-8.06-1.53-11.98-1.02-3.92-2.47-7.63-4.35-11.13-1.89-3.5-4.2-6.74-6.95-9.72-2.75-2.97-5.86-5.55-9.32-7.74h3.5c3.46,2.19,6.57,4.77,9.32,7.74,2.75,2.98,5.07,6.22,6.95,9.72,1.88,3.5,3.33,7.22,4.35,11.13,1.02,3.92,1.52,7.91,1.52,11.98,0,3.77-.43,7.42-1.3,10.96-.87,3.54-2.13,7.01-3.79,10.4,4.9,5.12,7.35,11.07,7.35,17.85Z"/>
    <path class="cls-2" d="m797.67,142.5h-9.83l22.04-40.12-50.29-57.3h11.41l43.28,49.27,27.01-49.27h9.72l-53.34,97.41Zm15.26-61.48l-31.76-35.94h9.38l23.51,33.56-1.13,2.37Zm-3.28,61.59h-3.39l53.68-97.53h3.39l-53.68,97.53Z"/>
  </g>
</svg>