<?xml version="1.0" encoding="UTF-8"?>
<svg id="Capa_14" data-name="Capa 14" xmlns="http://www.w3.org/2000/svg" viewBox="0 0 1523.33 214.98">
  <defs>
    <style>
      .cls-1 {
        fill: #f2c394;
      }

      .cls-2 {
        fill: #a52c14;
      }

      .cls-3 {
        fill: #f28e1f;
      }
    </style>
  </defs>
  <g>
    <path class="cls-3" d="m21.44,0h1480.44c11.84,0,21.44,9.61,21.44,21.44v171.24c0,12.31-10,22.3-22.3,22.3H21.44c-11.84,0-21.44-9.61-21.44-21.44V21.44C0,9.61,9.61,0,21.44,0Z"/>
    <path class="cls-1" d="m.01,21.44v.49h1523.32v-.49c0-3.55-.88-6.89-2.4-9.83H2.4c-1.52,2.95-2.4,6.28-2.4,9.83h.01Z"/>
    <path class="cls-1" d="m3.96,205.93h1514.98c2.2-2.97,3.68-6.48,4.17-10.32H.12c.36,3.82,1.74,7.35,3.85,10.32Z"/>
  </g>
  <g>
    <path class="cls-2" d="m102.83,155.14c.48.74.27,1.74-.48,2.2-4.31,2.69-8.83,4.73-13.54,6.11-5.22,1.52-10.65,2.29-16.31,2.29-7.87,0-15.25-1.48-22.14-4.43-6.89-2.95-12.91-6.99-18.03-12.13-5.14-5.14-9.17-11.14-12.13-18.03-2.95-6.89-4.43-14.27-4.43-22.14s1.46-15.28,4.37-22.21c2.91-6.93,6.93-12.97,12.07-18.1,5.14-5.14,11.16-9.2,18.09-12.2,6.93-3,14.34-4.5,22.21-4.5,10.77,0,20.72,2.84,29.85,8.51.74.46.96,1.46.49,2.2l-3.56,5.54c-.46.74-1.43.93-2.17.48-7.37-4.57-15.57-6.84-24.6-6.84-6.58,0-12.73,1.22-18.42,3.66-5.69,2.45-10.68,5.8-14.96,10.09-4.28,4.28-7.64,9.3-10.07,15.03-2.45,5.74-3.66,11.87-3.66,18.38s1.24,12.65,3.72,18.38c2.47,5.74,5.85,10.74,10.07,14.98,4.24,4.24,9.22,7.58,14.96,10.03,5.73,2.45,11.85,3.66,18.36,3.66,8.9,0,17.1-2.29,24.61-6.87.74-.45,1.69-.25,2.16.48l3.55,5.44h-.01Zm-25.32-82.73c-5.14.26-9.93,1.46-14.38,3.59-4.46,2.14-8.31,4.92-11.55,8.35-3.26,3.43-5.82,7.42-7.7,12.01-1.88,4.57-2.82,9.43-2.82,14.57s.81,9.58,2.45,13.86c1.62,4.28,3.92,8.05,6.87,11.3s6.48,5.86,10.59,7.83c4.11,1.97,8.68,3.08,13.73,3.34h-2.05c-5.31,0-10.29-1-14.95-3.01-4.66-2.01-8.73-4.75-12.2-8.22s-6.21-7.51-8.22-12.13c-2.01-4.62-3.01-9.58-3.01-14.89s1-10.32,3.01-15.02,4.75-8.8,8.22-12.26,7.52-6.21,12.2-8.22c4.66-2.01,9.65-3.01,14.95-3.01.26,0,.62.09,1.09.26s.96.36,1.48.58c.51.22.98.43,1.42.64.43.22.72.36.9.45v-.03Zm26.57,3.5s-.01,0-.03-.01c-.8-.46-1.06-1.49-.55-2.26l6.08-9.12c.49-.74,1.5-.93,2.23-.41l.12.09c.69.49.87,1.46.39,2.17l-6.09,9.09c-.48.71-1.42.9-2.16.46h.01Zm7.99,81.08l-8.57-12.91c-.51-.77-.25-1.79.55-2.26,0,0,.01,0,.03-.01.74-.43,1.68-.26,2.16.46l8.62,12.88c.49.74.29,1.74-.46,2.21l-.16.1c-.72.46-1.69.26-2.17-.46h0Z"/>
    <path class="cls-2" d="m182.4,99.6c0,7.96-1.92,15.37-5.77,22.21-3.55,6.29-8.28,11.5-14.2,15.63-.88.61-1.14,1.78-.59,2.69l11.71,19.13c.58.94.27,2.17-.67,2.73l-4.82,2.94c-.94.56-2.16.27-2.73-.67l-12.37-20.17c-.48-.78-1.43-1.14-2.3-.85-1.55.51-3.39,1-5.53,1.48-2.87.64-5.5.97-7.9.97-.43,0-.85-.01-1.29-.06s-.85-.1-1.29-.19v16.76c0,1.1-.9,2-2,2h-5.64c-1.1,0-2-.9-2-2V55.51c0-1.1.9-2,2-2h9.43c6.42,0,12.42,1.2,17.97,3.59,5.56,2.4,10.42,5.69,14.57,9.88,4.15,4.2,7.42,9.07,9.83,14.63,2.39,5.57,3.59,11.55,3.59,17.97h0Zm-9.62.01c0-4.96-.94-9.67-2.82-14.12-1.88-4.44-4.47-8.32-7.77-11.62s-7.15-5.9-11.55-7.83c-4.41-1.92-9.13-2.89-14.18-2.89h-1.79v72.66h1.79c4.96,0,9.67-.94,14.12-2.82,4.44-1.88,8.31-4.47,11.55-7.77,3.26-3.3,5.85-7.12,7.77-11.49,1.92-4.37,2.89-9.07,2.89-14.12h-.01Zm-24.27,54.06c-.51,0-.85.04-1.03.13v8.41c0,1.1-.9,2-2,2h0c-1.1,0-2-.9-2-2v-6.73c0-.97.71-1.81,1.66-1.97l2.95-.49.39.64h.01Zm-.91-30.13c-.07.78-.59,1.43-1.33,1.69-.26.09-.52.17-.77.26-.64.22-1.26.45-1.87.71v-50.36c0-1.39,1.39-2.37,2.69-1.87.54.22,1.09.43,1.62.68.98.45,1.97.91,2.94,1.37.75.36,1.19,1.16,1.1,1.98l-4.37,45.51h-.01Zm47.51-23.89c0,7.96-1.62,15.51-4.88,22.66-3.02,6.64-7.26,12.4-12.72,17.31-.72.65-.9,1.72-.38,2.55l11.52,18.42c.59.94.29,2.19-.65,2.75l-10.9,6.63c-.32.19-.67.29-1.03.29h-3.3l11.26-6.92c.94-.58,1.23-1.81.65-2.75l-11.52-18.44c-.52-.82-.35-1.9.38-2.55,5.46-4.91,9.72-10.66,12.78-17.31,3.3-7.15,4.95-14.7,4.95-22.66,0-4.7-.58-9.29-1.74-13.73s-2.81-8.64-4.95-12.57c-2.14-3.94-4.79-7.6-7.96-10.98s-6.71-6.31-10.65-8.8h3.39c.39,0,.78.12,1.1.32,3.73,2.42,7.09,5.24,10.09,8.47,3.13,3.39,5.76,7.06,7.9,11.04,2.14,3.98,3.79,8.19,4.95,12.65s1.74,8.99,1.74,13.6l-.03.03Z"/>
    <path class="cls-2" d="m204.35,162.26V55.44c0-1.06.87-1.92,1.92-1.92h40.56c1.06,0,1.92.87,1.92,1.92v5.77c0,1.06-.87,1.92-1.92,1.92h-30.68c-1.06,0-1.92.87-1.92,1.92v54.81c0,1.06.87,1.92,1.92,1.92h30.94c1.06,0,1.92.87,1.92,1.92v5.77c0,1.06-.87,1.92-1.92,1.92h-30.94c-1.06,0-1.92.87-1.92,1.92v19.26c0,1.06.87,1.92,1.92,1.92h34.54c1.06,0,1.92.87,1.92,1.92v5.77c0,1.06-.87,1.92-1.92,1.92h-44.42c-1.06,0-1.92-.87-1.92-1.92v.03Zm32.02-86.66l-9.8,27.06c-.74,2.03-3.73,1.5-3.73-.65v-28.32c0-1.06.87-1.92,1.92-1.92h30.17c1.06,0,1.92-.87,1.92-1.92v-14.38c0-1.06.87-1.92,1.92-1.92h0c1.06,0,1.92.87,1.92,1.92v16.94c0,1.06-.87,1.92-1.92,1.92h-20.61c-.81,0-1.53.51-1.81,1.27h0Zm-9.55,66.64v1.53c0,1.06-.87,1.92-1.92,1.92h-.13c-1.06,0-1.92-.87-1.92-1.92v-4.11c0-1.06.87-1.92,1.92-1.92h30.17c1.06,0,1.92-.87,1.92-1.92v-20.92c0-1.06.87-1.92,1.92-1.92h0c1.06,0,1.92.87,1.92,1.92v23.49c0,1.06-.87,1.92-1.92,1.92h-30.04c-1.06,0-1.92.87-1.92,1.92h0Zm33.63,20.17v-14.76c0-1.06.87-1.92,1.92-1.92h.13c1.06,0,1.92.87,1.92,1.92v14.76c0,1.06-.87,1.92-1.92,1.92h-.13c-1.06,0-1.92-.87-1.92-1.92Z"/>
    <path class="cls-2" d="m348.46,163.33l-3.49-9.61c-.19-.51-.67-.84-1.2-.84h-54.68c-.54,0-1.03.33-1.2.84l-3.49,9.61c-.19.51-.67.84-1.2.84h-7.65c-.9,0-1.52-.88-1.2-1.72l40.91-111.18c.42-1.11,2-1.11,2.42,0l40.78,111.18c.3.84-.32,1.72-1.2,1.72h-7.54c-.54,0-1.03-.33-1.2-.84h-.04Zm-33.25-83.68l-22.81,61.87c-.3.84.32,1.72,1.2,1.72h45.49c.9,0,1.52-.88,1.2-1.72l-22.69-61.87c-.41-1.11-2-1.13-2.42,0h.01Zm-18.91,84.67h-1.09c-.91,0-1.53-.91-1.19-1.77h0c.19-.49.67-.81,1.19-.81h1.09c.91,0,1.53.91,1.19,1.77h0c-.19.49-.67.81-1.19.81Zm11.08-29.91h-1.3c-.9,0-1.52-.9-1.2-1.74l10.35-27.87c.42-1.11,2-1.11,2.4,0l3.2,8.73c.14.38.09.8-.13,1.13l-12.24,19.16c-.23.38-.64.59-1.09.59h.01Zm60.73,29.09l-40.63-108.09c-.32-.84.3-1.74,1.2-1.74h1.23c.54,0,1.01.33,1.2.84l40.5,108.09c.32.84-.3,1.74-1.2,1.74h-1.11c-.54,0-1.01-.33-1.2-.82h.01Z"/>
    <path class="cls-2" d="m455.73,155.14c.48.74.27,1.74-.48,2.2-4.31,2.69-8.83,4.73-13.54,6.11-5.22,1.52-10.65,2.29-16.31,2.29-7.87,0-15.25-1.48-22.14-4.43-6.89-2.95-12.91-6.99-18.03-12.13-5.14-5.14-9.17-11.14-12.13-18.03s-4.43-14.27-4.43-22.14,1.46-15.28,4.37-22.21c2.91-6.93,6.93-12.97,12.07-18.1,5.14-5.14,11.16-9.2,18.09-12.2s14.34-4.5,22.21-4.5c10.77,0,20.72,2.84,29.85,8.51.74.46.96,1.46.49,2.2l-3.56,5.54c-.46.74-1.43.93-2.17.48-7.37-4.57-15.57-6.84-24.6-6.84-6.58,0-12.73,1.22-18.42,3.66-5.69,2.45-10.68,5.8-14.96,10.09-4.28,4.28-7.64,9.3-10.07,15.03-2.45,5.74-3.66,11.87-3.66,18.38s1.24,12.65,3.72,18.38c2.47,5.74,5.85,10.74,10.07,14.98,4.24,4.24,9.22,7.58,14.96,10.03,5.73,2.45,11.85,3.66,18.36,3.66,8.9,0,17.1-2.29,24.61-6.87.74-.45,1.69-.25,2.16.48l3.55,5.44h-.01Zm-25.32-82.73c-5.14.26-9.93,1.46-14.38,3.59-4.46,2.14-8.31,4.92-11.55,8.35-3.26,3.43-5.82,7.42-7.7,12.01-1.88,4.57-2.82,9.43-2.82,14.57s.81,9.58,2.45,13.86c1.62,4.28,3.92,8.05,6.87,11.3s6.48,5.86,10.59,7.83c4.11,1.97,8.68,3.08,13.73,3.34h-2.05c-5.31,0-10.29-1-14.95-3.01-4.66-2.01-8.73-4.75-12.2-8.22s-6.21-7.51-8.22-12.13c-2.01-4.62-3.01-9.58-3.01-14.89s1-10.32,3.01-15.02c2.01-4.7,4.75-8.8,8.22-12.26,3.47-3.47,7.52-6.21,12.2-8.22,4.66-2.01,9.65-3.01,14.95-3.01.26,0,.62.09,1.09.26s.96.36,1.48.58c.51.22.98.43,1.42.64.43.22.72.36.9.45v-.03Zm26.57,3.5s-.01,0-.03-.01c-.8-.46-1.06-1.49-.55-2.26l6.08-9.12c.49-.74,1.5-.93,2.23-.41l.12.09c.69.49.87,1.46.39,2.17l-6.09,9.09c-.48.71-1.42.9-2.16.46h.01Zm7.99,81.08l-8.57-12.91c-.51-.77-.25-1.79.55-2.26,0,0,.01,0,.03-.01.74-.43,1.68-.26,2.16.46l8.62,12.88c.49.74.29,1.74-.46,2.21l-.16.1c-.72.46-1.69.26-2.17-.46h0Z"/>
    <path class="cls-2" d="m477.91,162.15V55.41c0-1.11.91-2.03,2.03-2.03h5.59c1.11,0,2.03.91,2.03,2.03v106.73c0,1.11-.91,2.03-2.03,2.03h-5.59c-1.11,0-2.03-.91-2.03-2.03h0Zm20.5,2.04h0c-1.11,0-2.03-.91-2.03-2.03V55.41c0-1.11.91-2.03,2.03-2.03h3.7c1.14,0,2.07.96,2.03,2.1l-3.7,106.73c-.04,1.09-.93,1.95-2.03,1.95h0Z"/>
    <path class="cls-2" d="m627.07,108.98c0,7.87-1.5,15.25-4.5,22.14-3,6.89-7.08,12.91-12.26,18.03-5.18,5.14-11.23,9.17-18.16,12.13-6.93,2.95-14.3,4.43-22.08,4.43s-15.25-1.48-22.14-4.43c-6.89-2.95-12.88-6.99-17.97-12.13-5.09-5.14-9.12-11.14-12.07-18.03s-4.43-14.27-4.43-22.14,1.48-15.28,4.43-22.21,6.97-12.97,12.07-18.1c5.09-5.14,11.08-9.2,17.97-12.2s14.27-4.5,22.14-4.5,15.28,1.5,22.21,4.5,12.97,7.06,18.1,12.2,9.2,11.17,12.2,18.1c3,6.93,4.5,14.34,4.5,22.21h-.01Zm-9.88.06c0-6.51-1.22-12.65-3.66-18.38-2.45-5.74-5.8-10.75-10.07-15.03-4.28-4.28-9.29-7.65-15.02-10.09-5.73-2.45-11.85-3.66-18.36-3.66s-12.73,1.24-18.42,3.73c-5.69,2.49-10.65,5.85-14.89,10.09-4.24,4.24-7.57,9.23-10.01,14.98-2.45,5.74-3.66,11.87-3.66,18.38s1.22,12.65,3.66,18.38c2.45,5.74,5.77,10.74,10.01,14.98,4.24,4.24,9.22,7.58,14.96,10.03,5.73,2.45,11.85,3.66,18.36,3.66s12.62-1.22,18.36-3.66c5.73-2.45,10.72-5.79,14.96-10.03,4.24-4.24,7.6-9.22,10.07-14.92,2.49-5.7,3.72-11.85,3.72-18.45h-.01Zm-42.24-36.65c-5.12.26-9.87,1.46-14.27,3.59-4.4,2.14-8.2,4.95-11.45,8.41-3.24,3.47-5.8,7.47-7.67,12-1.88,4.54-2.81,9.38-2.81,14.51s.78,9.58,2.36,13.86,3.83,8.05,6.77,11.3,6.45,5.86,10.55,7.83c4.1,1.97,8.65,3.08,13.69,3.34h-2.05c-5.31,0-10.27-1-14.89-3.01-4.62-2.01-8.67-4.75-12.13-8.22-3.47-3.47-6.18-7.51-8.15-12.13-1.97-4.62-2.95-9.58-2.95-14.89s.98-10.29,2.95-14.96c1.97-4.66,4.66-8.75,8.09-12.26,3.41-3.5,7.47-6.27,12.13-8.28s9.65-3.01,14.96-3.01c.26,0,.62.09,1.09.26s.97.36,1.48.58c.51.22.98.43,1.42.64.43.22.72.36.9.45h-.01Zm64.7,36.58c0,5.73-.71,11.27-2.11,16.63-1.42,5.35-3.43,10.38-6.03,15.09-2.6,4.7-5.82,9.07-9.62,13.1-2.89,3.05-6.08,5.82-9.54,8.28-2.08,1.48-4.59,2.24-7.13,2.24h-.09c9.67-6.16,17.18-14.07,22.53-23.69,5.35-9.62,8.02-20.19,8.02-31.65,0-5.64-.68-11.14-2.05-16.5-1.37-5.35-3.39-10.4-6.03-15.15-2.65-4.75-5.86-9.13-9.62-13.15-3.76-4.02-8-7.58-12.7-10.65h0c2.6,0,5.15.8,7.25,2.33,3.44,2.5,6.58,5.28,9.45,8.33,3.76,4.02,6.97,8.41,9.62,13.15s4.66,9.78,6.03,15.09,2.05,10.82,2.05,16.57v-.03Z"/>
    <path class="cls-2" d="m658.53,80.15v82.58c0,.8-.64,1.43-1.43,1.43h-6.76c-.8,0-1.43-.64-1.43-1.43V53.58c0-1.36,1.69-1.95,2.55-.91l71.92,88.46c.85,1.06,2.55.45,2.55-.91V57.64c0-.8.64-1.43,1.43-1.43h6.76c.8,0,1.43.64,1.43,1.43v109.15c0,1.36-1.69,1.95-2.55.91l-71.92-88.46c-.85-1.06-2.55-.45-2.55.91Zm9.33-23.95h0c.43,0,.84.19,1.11.52l48.16,58.39c.22.26.33.58.33.91v.1c0,1.35-1.69,1.95-2.55.91l-48.16-58.49c-.77-.94-.1-2.34,1.11-2.34h-.01Zm1.55,107.96h-.98c-.8,0-1.43-.64-1.43-1.43v-58.58c0-1.36,1.69-1.95,2.55-.91l5.93,7.31c.23.29.35.67.32,1.04l-4.95,51.25c-.07.74-.69,1.3-1.43,1.3h0Zm74.48-1.29V57.65c0-.8.64-1.43,1.43-1.43h.97c.8,0,1.43.64,1.43,1.43v105.21c0,.8-.64,1.43-1.43,1.43h-.97c-.8,0-1.43-.64-1.43-1.43Z"/>
    <path class="cls-2" d="m839.41,108.85c0,6.93-1.2,13.6-3.59,20.03-2.39,6.42-5.74,12.13-10.06,17.13-4.31,5.01-9.43,9.12-15.37,12.33-5.93,3.21-12.4,5.06-19.4,5.59l-3.02.23c-1.13.09-2.1-.81-2.1-1.94V55.23c0-1.13.97-2.03,2.1-1.94l3.02.23c7.09.51,13.6,2.4,19.53,5.64,5.93,3.26,11.04,7.38,15.31,12.39,4.27,5.01,7.6,10.74,9.98,17.21,2.39,6.47,3.59,13.15,3.59,20.08h0Zm-9.62,0c0-5.14-.84-10.14-2.5-15.02-1.66-4.88-4.01-9.35-6.99-13.41-3-4.07-6.6-7.52-10.78-10.4-3.5-2.4-7.34-4.18-11.5-5.35-1.24-.35-2.49.58-2.49,1.88v84.36c0,1.3,1.24,2.23,2.49,1.88,4.17-1.17,7.99-2.95,11.5-5.35,4.2-2.87,7.79-6.29,10.78-10.27s5.33-8.41,6.99-13.28c1.66-4.88,2.5-9.88,2.5-15.02Zm-22.28,29.19h0c-1.27.98-3.13.07-3.13-1.55v-55.83c0-1.58,1.79-2.52,3.07-1.59.03.01.06.04.07.06.72.54,1.45,1.07,2.19,1.64.52.39.81,1,.78,1.65l-2.23,54.16c-.03.58-.3,1.11-.77,1.46h.01Zm44.63-29.19c0,5.64-.71,11.14-2.11,16.5-1.42,5.35-3.47,10.45-6.16,15.28s-5.98,9.26-9.83,13.28c-3.72,3.89-7.89,7.25-12.49,10.1-.32.19-.68.29-1.04.29h-3.28c4.79-2.91,9.12-6.38,12.97-10.4,3.85-4.02,7.12-8.45,9.83-13.28,2.69-4.83,4.75-9.93,6.16-15.28s2.11-10.85,2.11-16.5-.71-11.01-2.11-16.37c-1.42-5.35-3.44-10.42-6.09-15.21-2.65-4.79-5.86-9.2-9.62-13.23-3.76-4.02-8-7.52-12.7-10.52h3.39c.38,0,.75.12,1.09.32,4.5,2.92,8.55,6.32,12.16,10.22,3.72,4.02,6.92,8.44,9.56,13.23,2.65,4.79,4.69,9.87,6.09,15.21,1.42,5.35,2.11,10.81,2.11,16.37h-.01Z"/>
    <path class="cls-2" d="m861.36,162.26V55.44c0-1.06.87-1.92,1.92-1.92h40.56c1.06,0,1.92.87,1.92,1.92v5.77c0,1.06-.87,1.92-1.92,1.92h-30.68c-1.06,0-1.92.87-1.92,1.92v54.81c0,1.06.87,1.92,1.92,1.92h30.94c1.06,0,1.92.87,1.92,1.92v5.77c0,1.06-.87,1.92-1.92,1.92h-30.94c-1.06,0-1.92.87-1.92,1.92v19.26c0,1.06.87,1.92,1.92,1.92h34.54c1.06,0,1.92.87,1.92,1.92v5.77c0,1.06-.87,1.92-1.92,1.92h-44.42c-1.06,0-1.92-.87-1.92-1.92v.03Zm32.02-86.66l-9.8,27.06c-.74,2.03-3.73,1.5-3.73-.65v-28.32c0-1.06.87-1.92,1.92-1.92h30.17c1.06,0,1.92-.87,1.92-1.92v-14.38c0-1.06.87-1.92,1.92-1.92h0c1.06,0,1.92.87,1.92,1.92v16.94c0,1.06-.87,1.92-1.92,1.92h-20.61c-.81,0-1.53.51-1.81,1.27Zm-9.55,66.64v1.53c0,1.06-.87,1.92-1.92,1.92h-.13c-1.06,0-1.92-.87-1.92-1.92v-4.11c0-1.06.87-1.92,1.92-1.92h30.17c1.06,0,1.92-.87,1.92-1.92v-20.92c0-1.06.87-1.92,1.92-1.92h0c1.06,0,1.92.87,1.92,1.92v23.49c0,1.06-.87,1.92-1.92,1.92h-30.04c-1.06,0-1.92.87-1.92,1.92h0Zm33.63,20.17v-14.76c0-1.06.87-1.92,1.92-1.92h.13c1.06,0,1.92.87,1.92,1.92v14.76c0,1.06-.87,1.92-1.92,1.92h-.13c-1.06,0-1.92-.87-1.92-1.92Z"/>
    <path class="cls-2" d="m1016.94,99.6c0,6.42-1.2,12.42-3.59,17.97-2.4,5.57-5.69,10.42-9.88,14.57-4.2,4.15-9.07,7.42-14.63,9.83-5.57,2.4-11.55,3.59-17.97,3.59h-.84c-.3,0-.58-.04-.84-.13v16.76c0,1.1-.9,2-2,2h-5.64c-1.1,0-2-.9-2-2V55.51c0-1.1.9-2,2-2h9.3c6.42,0,12.4,1.2,17.97,3.59,5.56,2.4,10.45,5.69,14.63,9.88,4.2,4.2,7.48,9.07,9.88,14.63,2.39,5.57,3.59,11.55,3.59,17.97h.01Zm-9.62.14c0-5.4-.98-10.32-2.95-14.76s-4.69-8.28-8.15-11.49c-3.46-3.21-7.51-5.72-12.13-7.51-3.99-1.55-8.2-2.43-12.65-2.65-1.14-.06-2.13.84-2.13,1.98v70.61h1.53c4.96,0,9.67-.94,14.12-2.82,4.44-1.88,8.32-4.44,11.62-7.7s5.9-7.08,7.83-11.49c1.92-4.41,2.89-9.13,2.89-14.18h0Zm22.21-.13c0,6.84-1.2,13.37-3.59,19.58-2.4,6.21-5.72,11.72-9.96,16.55-4.24,4.83-9.25,8.84-15.02,12.01-5.3,2.91-11.04,4.83-17.22,5.79-.98.14-1.71.97-1.71,1.97v6.69c0,1.1-.9,2-2,2h0c-1.1,0-2-.9-2-2v-6.69c0-.98.74-1.81,1.71-1.97,6.19-.96,11.94-2.89,17.23-5.79,5.77-3.17,10.78-7.16,15.02-12.01,4.24-4.83,7.55-10.36,9.96-16.55,2.39-6.21,3.59-12.73,3.59-19.58,0-4.7-.56-9.29-1.66-13.73-1.11-4.44-2.76-8.64-4.95-12.57-2.19-3.94-4.83-7.6-7.96-10.98s-6.66-6.31-10.59-8.8h3.39c.39,0,.78.12,1.1.32,3.73,2.42,7.09,5.24,10.09,8.47,3.13,3.39,5.77,7.05,7.96,10.98s3.83,8.13,4.95,12.57c1.11,4.46,1.66,9.03,1.66,13.73h0Zm-47.25,23.92c-.07.78-.59,1.43-1.33,1.69-.26.09-.52.17-.77.26-.64.22-1.26.45-1.87.71v-50.36c0-1.39,1.39-2.37,2.69-1.87.54.22,1.09.43,1.62.68.98.45,1.97.91,2.94,1.37.75.36,1.19,1.16,1.1,1.98l-4.37,45.51h-.01Z"/>
    <path class="cls-2" d="m1098.15,163.33l-3.49-9.61c-.19-.51-.67-.84-1.2-.84h-54.68c-.54,0-1.03.33-1.2.84l-3.49,9.61c-.19.51-.67.84-1.2.84h-7.65c-.9,0-1.52-.88-1.2-1.72l40.91-111.18c.42-1.11,2-1.11,2.42,0l40.78,111.18c.3.84-.32,1.72-1.2,1.72h-7.54c-.54,0-1.03-.33-1.2-.84h-.04Zm-33.25-83.68l-22.81,61.87c-.3.84.32,1.72,1.2,1.72h45.49c.9,0,1.52-.88,1.2-1.72l-22.69-61.87c-.41-1.11-2-1.13-2.42,0h.01Zm-18.91,84.67h-1.09c-.91,0-1.53-.91-1.19-1.77h0c.19-.49.67-.81,1.19-.81h1.09c.91,0,1.53.91,1.19,1.77h0c-.19.49-.67.81-1.19.81Zm11.08-29.91h-1.3c-.9,0-1.52-.9-1.2-1.74l10.35-27.87c.42-1.11,2-1.11,2.4,0l3.2,8.73c.14.38.09.8-.13,1.13l-12.24,19.16c-.23.38-.64.59-1.09.59h.01Zm60.73,29.09l-40.63-108.09c-.32-.84.3-1.74,1.2-1.74h1.23c.54,0,1.01.33,1.2.84l40.5,108.09c.32.84-.3,1.74-1.2,1.74h-1.11c-.54,0-1.01-.33-1.2-.82h.01Z"/>
    <path class="cls-2" d="m1188.57,99.6c0,7.96-1.92,15.37-5.77,22.21-3.55,6.29-8.28,11.5-14.2,15.63-.88.61-1.14,1.78-.59,2.69l11.71,19.13c.58.94.27,2.17-.67,2.73l-4.82,2.94c-.94.56-2.16.27-2.73-.67l-12.37-20.17c-.48-.78-1.43-1.14-2.3-.85-1.55.51-3.39,1-5.53,1.48-2.87.64-5.5.97-7.9.97-.43,0-.85-.01-1.29-.06s-.85-.1-1.29-.19v16.76c0,1.1-.9,1.98-1.98,1.98h-5.64c-1.1,0-1.98-.9-1.98-1.98V55.51c0-1.1.9-1.98,1.98-1.98h9.43c6.42,0,12.4,1.2,17.97,3.59,5.56,2.4,10.42,5.69,14.57,9.88,4.15,4.2,7.42,9.07,9.83,14.63,2.39,5.57,3.59,11.55,3.59,17.97h-.01Zm-9.62,0c0-4.96-.94-9.67-2.82-14.12-1.88-4.44-4.47-8.32-7.77-11.62-3.3-3.3-7.15-5.9-11.55-7.83s-9.13-2.89-14.18-2.89h-1.79v72.66h1.79c4.96,0,9.67-.94,14.12-2.82,4.44-1.88,8.31-4.47,11.55-7.77,3.26-3.3,5.85-7.12,7.77-11.49,1.92-4.37,2.89-9.07,2.89-14.12h-.01Zm-24.27,54.06c-.51,0-.85.04-1.03.13v8.41c0,1.1-.9,1.98-1.98,1.98h0c-1.1,0-1.98-.9-1.98-1.98v-6.73c0-.97.71-1.81,1.66-1.97l2.95-.49.39.64h-.01Zm-.91-30.13c-.07.78-.59,1.43-1.33,1.69-.26.09-.52.17-.77.26-.64.22-1.26.45-1.87.71v-50.36c0-1.39,1.39-2.37,2.69-1.87.54.22,1.09.43,1.62.68.98.45,1.97.91,2.94,1.37.75.36,1.19,1.16,1.1,1.98l-4.37,45.51h-.01Zm47.51-23.89c0,7.96-1.64,15.51-4.88,22.66-3.02,6.64-7.26,12.4-12.72,17.31-.72.65-.9,1.72-.38,2.55l11.52,18.42c.59.94.29,2.19-.65,2.75l-10.9,6.63c-.32.19-.67.29-1.03.29h-3.3l11.26-6.92c.94-.58,1.23-1.81.65-2.75l-11.52-18.44c-.52-.82-.35-1.9.38-2.55,5.46-4.91,9.72-10.66,12.78-17.31,3.3-7.15,4.95-14.7,4.95-22.66,0-4.7-.58-9.29-1.74-13.73-1.16-4.44-2.81-8.64-4.95-12.57-2.14-3.94-4.79-7.6-7.96-10.98s-6.71-6.31-10.65-8.8h3.39c.39,0,.78.12,1.1.32,3.73,2.42,7.09,5.24,10.09,8.47,3.13,3.39,5.76,7.06,7.9,11.04,2.14,3.98,3.79,8.19,4.95,12.65,1.16,4.46,1.74,8.99,1.74,13.6l-.03.03Z"/>
    <path class="cls-2" d="m1248.26,65.13v97.05c0,1.1-.9,1.98-1.98,1.98h-5.64c-1.1,0-1.98-.9-1.98-1.98v-97.05c0-1.1-.9-1.98-1.98-1.98h-27.99c-1.1,0-1.98-.9-1.98-1.98v-5.64c0-1.1.9-1.98,1.98-1.98h69.46c1.1,0,1.98.9,1.98,1.98v5.64c0,1.1-.9,1.98-1.98,1.98h-27.86c-1.1,0-1.98.9-1.98,1.98h-.04Zm-41.59,8.86h0c0-1.1.9-2,1.98-2h18.87c1.1,0,1.98.9,1.98,1.98h0c0,1.1-.9,2-1.98,2h-18.87c-1.1,0-1.98-.9-1.98-1.98Zm54.31,9.39v78.81c0,1.1-.9,1.98-1.98,1.98h0c-1.1,0-1.98-.9-1.98-1.98v-88.2c0-1.1.9-1.98,1.98-1.98h13.92c2.1,0,2.76,2.84.88,3.78l-11.72,5.82c-.68.33-1.1,1.03-1.1,1.78Zm26.96-13.37v-14.51c0-1.1.9-1.98,1.98-1.98h0c1.1,0,1.98.9,1.98,1.98v14.51c0,1.1-.9,1.98-1.98,1.98h0c-1.1,0-1.98-.9-1.98-1.98Z"/>
    <path class="cls-2" d="m1301.15,162.15V55.42c0-1.11.91-2.03,2.03-2.03h5.57c1.11,0,2.03.91,2.03,2.03v106.73c0,1.11-.91,2.03-2.03,2.03h-5.57c-1.11,0-2.03-.91-2.03-2.03Zm20.5,2.03h0c-1.11,0-2.03-.91-2.03-2.03V55.42c0-1.11.91-2.03,2.03-2.03h3.7c1.14,0,2.07.96,2.03,2.1l-3.7,106.73c-.04,1.09-.93,1.95-2.03,1.95Z"/>
    <path class="cls-2" d="m1390.25,108.85c0,6.93-1.2,13.6-3.59,20.03-2.39,6.42-5.74,12.13-10.06,17.13-4.31,5.01-9.43,9.12-15.37,12.33-5.93,3.21-12.4,5.06-19.4,5.59l-3.02.23c-1.13.09-2.1-.81-2.1-1.94V55.23c0-1.13.97-2.03,2.1-1.94l3.02.23c7.09.51,13.6,2.4,19.53,5.64,5.93,3.26,11.04,7.38,15.31,12.39,4.27,5.01,7.6,10.74,9.98,17.21s3.59,13.15,3.59,20.08h0Zm-9.62,0c0-5.14-.84-10.14-2.5-15.02-1.66-4.88-3.99-9.35-6.99-13.41s-6.6-7.52-10.78-10.4c-3.5-2.4-7.34-4.18-11.5-5.35-1.24-.35-2.49.58-2.49,1.88v84.36c0,1.3,1.24,2.23,2.49,1.88,4.17-1.17,7.99-2.95,11.5-5.35,4.2-2.87,7.79-6.29,10.78-10.27s5.33-8.41,6.99-13.28c1.66-4.88,2.5-9.88,2.5-15.02Zm-22.28,29.19h0c-1.27.98-3.13.07-3.13-1.55v-55.83c0-1.58,1.79-2.52,3.07-1.59.03.01.06.04.07.06.72.54,1.45,1.07,2.2,1.64.52.39.81,1,.78,1.65l-2.23,54.16c-.03.58-.3,1.11-.77,1.46Zm44.63-29.19c0,5.64-.71,11.14-2.11,16.5-1.42,5.35-3.47,10.45-6.16,15.28s-5.96,9.26-9.83,13.28c-3.72,3.89-7.89,7.25-12.49,10.1-.32.19-.68.29-1.04.29h-3.28c4.79-2.91,9.12-6.38,12.97-10.4,3.85-4.02,7.12-8.45,9.83-13.28,2.69-4.83,4.75-9.93,6.16-15.28s2.11-10.85,2.11-16.5-.71-11.01-2.11-16.37c-1.42-5.35-3.44-10.42-6.09-15.21-2.65-4.79-5.86-9.2-9.62-13.23-3.76-4.02-8-7.52-12.7-10.52h3.39c.38,0,.75.12,1.09.32,4.5,2.92,8.55,6.32,12.16,10.22,3.72,4.02,6.92,8.44,9.56,13.23,2.65,4.79,4.69,9.87,6.11,15.21,1.42,5.35,2.11,10.81,2.11,16.37h-.03Z"/>
    <path class="cls-2" d="m1474.67,163.33l-3.49-9.61c-.19-.51-.67-.84-1.2-.84h-54.68c-.54,0-1.03.33-1.2.84l-3.49,9.61c-.19.51-.67.84-1.2.84h-7.65c-.9,0-1.52-.88-1.2-1.72l40.91-111.18c.42-1.11,2-1.11,2.42,0l40.78,111.18c.3.84-.32,1.72-1.2,1.72h-7.54c-.54,0-1.03-.33-1.2-.84h-.04Zm-33.25-83.68l-22.81,61.87c-.3.84.32,1.72,1.2,1.72h45.49c.9,0,1.52-.88,1.2-1.72l-22.69-61.87c-.41-1.11-2-1.13-2.42,0h.01Zm-18.91,84.67h-1.09c-.91,0-1.53-.91-1.19-1.77h0c.19-.49.67-.81,1.19-.81h1.09c.91,0,1.53.91,1.19,1.77h0c-.19.49-.67.81-1.19.81Zm11.08-29.91h-1.3c-.9,0-1.52-.9-1.2-1.74l10.35-27.87c.42-1.11,2-1.11,2.4,0l3.2,8.73c.14.38.09.8-.13,1.13l-12.24,19.16c-.23.38-.64.59-1.09.59h.01Zm60.73,29.09l-40.63-108.09c-.32-.84.3-1.74,1.2-1.74h1.23c.54,0,1.01.33,1.2.84l40.5,108.09c.32.84-.3,1.74-1.2,1.74h-1.11c-.54,0-1.01-.33-1.2-.82h.01Z"/>
  </g>
</svg>