<!-- Animated using SVGANIMA - https://svganima.com -->
<svg id="eP3K8jzdyHM1" xmlns="http://www.w3.org/2000/svg" xmlns:xlink="http://www.w3.org/1999/xlink" viewBox="0 0 1000.91 689.42" shape-rendering="geometricPrecision" text-rendering="geometricPrecision" project-id="1a44b2f45a4145ed87999906a6280076" export-id="94f22a23a4904254a57e49db81384306" cached="false" preserveAspectRatio="xMidYMid" width="NaN" height="NaN">
<style id="style4785">
#eP3K8jzdyHM2_tr {animation: eP3K8jzdyHM2_tr__tr 3000ms linear infinite normal forwards}@keyframes eP3K8jzdyHM2_tr__tr { 0% {transform: translate(740.155212px,414.651196px) rotate(-4.796606deg);animation-timing-function: cubic-bezier(0.42,0,0.58,1)} 50% {transform: translate(740.155212px,414.651196px) rotate(5.926114deg);animation-timing-function: cubic-bezier(0.42,0,0.58,1)} 100% {transform: translate(740.155212px,414.651196px) rotate(-4.796606deg)}} #eP3K8jzdyHM59_tr {animation: eP3K8jzdyHM59_tr__tr 3000ms linear infinite normal forwards}@keyframes eP3K8jzdyHM59_tr__tr { 0% {transform: translate(670.125075px,343.09344px) rotate(4.227342deg)} 13.333333% {transform: translate(670.125075px,343.09344px) rotate(4.227342deg);animation-timing-function: cubic-bezier(0.42,0,0.58,1)} 73.333333% {transform: translate(670.125075px,343.09344px) rotate(-2.9465deg);animation-timing-function: cubic-bezier(0.42,0,0.58,1)} 100% {transform: translate(670.125075px,343.09344px) rotate(4.227342deg)}} #eP3K8jzdyHM70_tr {animation: eP3K8jzdyHM70_tr__tr 3000ms linear infinite normal forwards}@keyframes eP3K8jzdyHM70_tr__tr { 0% {transform: translate(135.33781px,207.03926px) rotate(720deg);animation-timing-function: cubic-bezier(0.415,0.08,0.115,0.955)} 100% {transform: translate(135.33781px,207.03926px) rotate(439.480519deg)}} #eP3K8jzdyHM70 {animation: eP3K8jzdyHM70_f_p 3000ms linear infinite normal forwards}@keyframes eP3K8jzdyHM70_f_p { 0% {fill: #d2dbed} 100% {fill: #d2dbed}} #eP3K8jzdyHM71_tr {animation: eP3K8jzdyHM71_tr__tr 3000ms linear infinite normal forwards}@keyframes eP3K8jzdyHM71_tr__tr { 0% {transform: translate(11.12px,29.9px) rotate(-720deg);animation-timing-function: cubic-bezier(0.415,0.08,0.115,0.955)} 100% {transform: translate(11.12px,29.9px) rotate(-439.480519deg)}}
</style>
<defs id="defs8730"><linearGradient id="eP3K8jzdyHM64-fill" x1="0.5" y1="0" x2="0.5" y2="1" spreadMethod="pad" gradientUnits="objectBoundingBox" gradientTransform="translate(0 0)"><stop id="eP3K8jzdyHM64-fill-0" offset="0%" stop-color="rgba(255,255,255,0)"></stop><stop id="eP3K8jzdyHM64-fill-1" offset="100%" stop-color="#010022"></stop></linearGradient></defs><g id="eP3K8jzdyHM2_tr" transform="translate(740.155212,414.651196) rotate(-4.796606)"><g transform="translate(-744.642762,-424.477271)" id="g6750"><g id="g7337"><path d=" M 602.51,481.86 v 0 c -14.34 0.41 -25.27,10.2 -26.43,24.77 -1.03,13.17,11.34,26.83,24.77,26.43 c 29.04 -0.84,57.23 -7.84,83.19 -21.61 s 47.67 -33.21,65.96 -55.99 c 8.96 -11.18,2.66 -28.07 -7.71 -35.39 -5.28 -3.75 -13.37 -4.82 -19.6 -3.39 -6.93,1.57 -11.47,5.7 -15.8,11.1 -0.5 0.63 -4.47,5.65 -1.69,2.12 s -0.71 0.74 -1.35,1.45 c -1.85,2.07 -3.74,4.07 -5.68,6.06 -4.17,4.3 -8.62,8.34 -13.19,12.21 -2.34,1.92 -4.67,3.78 -7.03,5.58 -1.18 0.9 -2.4,1.72 -3.58,2.62 c 5.89 -4.61,1.85 -1.29 0.48 -0.39 -4.76,3.1 -9.43,5.92 -14.63,8.69 -5.2,2.78 -10.55,5.27 -16.05,7.47 -3.73,1.55 -0.55 0.01,1.34 -0.43 -1.43 0.34 -2.78,1 -4.19,1.47 -2.82 0.93 -5.66,1.73 -8.5,2.53 -5.72,1.53 -11.53,2.79 -17.4,3.68 -1.51 0.19 -2.96 0.4 -4.46 0.6 -2.74 0.29 -5.14 -0.7 0.62 -0.05 -2.84 -0.34 -6.21 0.41 -9.06 0.49 v 0 l -0.01 -0.02 Z " fill="#92921a" id="path3978"></path></g><g id="g605"><path d=" M 126.79,161.91 c -3.79 -2.67 -9.01 -2.18 -12.16,1.22 s -6.42,7.41 -9.35,11.57 c -1.96,2.78 -3.76,5.61 -5.4,8.46 -2.4,4.16 -1.17,9.48,2.76,12.24 L 562.86,519.13 c 4.22,2.97,10.04,1.95,13.01 -2.26 l 13.01 -18.49 c 2.97 -4.22,1.95 -10.04 -2.26 -13.01 L 126.79,161.91 Z " fill="#ab7131" id="path7950"></path><path d=" M 159.4,184.85 c -4.92,5.25 -9.66,10.81 -14.19,16.68 -4.02,5.21 -7.76,10.53 -11.23,15.91 L 328.23,354.08 c 1.9 -2.28,3.78 -4.61,5.61 -6.99 c 6.75 -8.74,12.71 -17.77,17.91 -26.95 L 159.4,184.84 v 0.01 Z " fill="#955200" id="path1343"></path><path d=" M 486.06,134.57 c -2.61 -2.1 -5.23 -4.2 -7.84 -6.3 -1.96 -2.03 -3.75 -4.24 -6.12 -5.85 -1.24 -1 -2.48 -1.99 -3.72 -2.99 -1.72 -1.85 -4.19 -2.92 -6.16 -0.79 c 3.5 -4.65 -26.17 -22.22 -30.37 -27.93 -2.05 -1.64 -4.1 -3.29 -6.14 -4.93 -0.94 -0.75 -1.87 -1.52 -2.84 -2.24 -4.34 0.1 -7.68,5.42 -11.59,7.42 -2.29 -2.55 -5.36 -4.36 -7.93 -6.64 c 1.68 -3.86,5.88 -7.24,6.06 -11.42 -20.14 -16.2 -40.27 -32.4 -60.4 -48.6 -0.16 -0.13 -0.32 -0.26 -0.48 -0.39 s -0.32 -0.26 -0.48 -0.39 c -0.32 -0.26 -0.65 -0.52 -0.97 -0.78 -0.19 -0.15 -0.38 -0.3-0.57 -0.45 -0.48 -0.39 -0.97 -0.78 -1.45 -1.17 -0.16 -0.13 -0.32 -0.26 -0.48 -0.39 -0.35 -0.28 -0.7-0.56 -1.05 -0.84 -0.16 -0.13 -0.32 -0.26 -0.48 -0.39 s -0.32 -0.26 -0.48 -0.39 c -0.35 -0.28 -0.7-0.56 -1.05 -0.84 -0.16 -0.13 -0.32 -0.26 -0.48 -0.39 -0.1-0.09 -0.18 -0.16 -0.31 -0.09 -5.03 -4.13 -10.03 -8.3 -15.12 -12.35 -2.13 -1.13 -12.37,16.31 -14.64,17.72 C 209.07,149.24,120.49,264.03,16.3,394.06 c 1.46 0.94 -5.64,4.24 -6.95,3.06 c 2.54,5.34 -1.19,5.83,2.95,9.71 c 4.03,3.24,7.99,6.57,12.4,9.32 c 1.92 -1.39,3.82 -2.82,5.73 -4.22 -2.12,8.75 -2.18,7.88,4.8,13.24 c 9.59,7.74,19.34,15.41,28.8,23.16 c 16.33,13.22,32.94,26.12,49.16,39.48 c 4.96,3.35,9.18,8.93,14.95,10.48 c 2.27 0.36,4.94 -4.25,7.37 -4.97 c 1.8,1.33,3.38,2.89,5.28,4.13 -6.07,7.44 -7,7.48,1.09,13.4 c 8.83,7.03,17.56,14.21,26.46,21.16 C 278.05,412.78,382.91,265.35,489.71,137.72 c -1.14 -1.13 -2.38 -2.16 -3.65 -3.15 Z " fill="#955200" id="path2477"></path><path d=" M 136.22,506.19 c -0.94 -2.44,1 -3.91,2.14 -5.72 c 2.19 -3.48,6.19 -5.77,6.88 -10.22 c 3.27 -3.97,6.71 -7.81,9.04 -12.45 0.6 -1.19,1.81 -2.19 0.49 -3.49 -1.2 -1.18 -2.46 -0.7 -3.47 0.31 -5.42,5.36 -11.6,9.94 -16.04,16.3 -1.07 0.5 -2.06 0.37 -2.99 -0.19 -2.15 -5.9 -2.24 -5.95 -7.49 -2.21 -1.48,1.05 -2.78,2.38 -4.17,3.58 -0.32,0 -0.5-0.16 -0.56 -0.48 -0.42 0.01 -0.83 0.02 -1.25 0.03 -4.14 -2.14 -7.38 -5.47 -10.97 -8.32 -15.67 -12.44 -31.26 -24.97 -46.88 -37.46 -0.17 -0.29 -0.35 -0.58 -0.52 -0.88 c 3.04 -6.77,8.43 -11.86,12.85 -17.64 c 1.94 -2.54,3.93 -5.02,4.32 -8.29 c 2.9 -4.04,7.28 -6.73,9.89 -11.03 c 1.04 -1.7,3.89 -3.33,1.16 -5.39 -2.39 -1.81 -3.41 0.96 -4.69,2.3 -7.44,7.8 -14.05,16.35 -21.61,24.06 -2.47,2.52 -5.83,4.89 -6.07,9.04 -0.99,1.15 -2.31 0.44 -3.41 0.9 -0.31 -0.13 -0.62 -0.26 -0.92 -0.39 -7.43 -5.95 -14.86 -11.91 -22.28 -17.86 -0.19 -0.28 -0.38 -0.57 -0.56 -0.85 0.18 -5.52,2.76 -10.87,2.38 -16.43 c 1.03 -3.51 -0.56 -4 -3.11 -2.32 -4.04,2.66 -7.89,5.65 -11.82,8.5 -1.6 -1.07 -3.21 -2.15 -4.81 -3.22 -0.28 -0.25 -0.56 -0.49 -0.84 -0.73 -3.31 -3.82 -8.82 -5.3 -10.88 -10.46 0.54 0.32,1.17 0.71,1.68,0 c 0.49 -0.68 -0.05 -1.19 -0.49 -1.63 c 8.95 -11.22,17.87 -22.46,26.86 -33.65 c 37.35 -46.52,74.73 -93.02,112.09 -139.53 c 12.17 -15.15,24.34 -30.3,36.5 -45.45 C 221.61,118.95,266.54,62.97,311.48,7 c 0.54 -0.67,1.15 -1.29,1.72 -1.94 c 1.3 -0.58,2.59 -1.15,3.89 -1.73 c 2.57 -1.14,1.08 -2.03 0.06 -2.96 0.75 -0.7,1.4 -0.27,2.05 0.03 c 1.04 0.8,2.07,1.6,3.11,2.39 0.47 0.38 0.93 0.77,1.4,1.15 c 3.22,2.65,6.44,5.3,9.65,7.95 0.29 0.69 0.57,1.37 0.86,2.06 -0.25 0.23 -0.49 0.48 -0.7 0.75 -2.98,3.56 -5.82,7.21 -8,11.34 -0.85,1.59 -2.82,3.1 -0.39,4.54 c 2.03,1.2,3.68 -0.25,4.46 -1.96 c 1.47 -3.21,4.2 -5.21,6.35 -7.76 c 1.52 -1.25,2.91 -2.74,4.92 -3.12 c 20.13,16.2,40.27,32.4,60.4,48.6 0.04 0.45 0.08 0.91 0.11,1.36 -3.47,6.11 -8.1,11.69 -9.85,18.63 c 3.39,1.7,5.02 -0.63,6.84 -2.35 c 1.99 -0.33,4.4 -1.9,5.11,1.46 -1.24,2.38 -2.67,4.7 -3.66,7.17 -0.92,2.29 -4.32,5.02 -1.65,6.98 c 3.12,2.29,4.45 -2.25,6.58 -3.79 c 4.91 -3.64,9.85 -7.22,14.69 -10.95 c 1.12 -0.87,1.98 -1.95,3.46 -1.31 0.3 0.23 0.6 0.46 0.9 0.68 0.44 0.41 0.87 0.82,1.31,1.23 c 9.92,8.03,19.84,16.06,29.76,24.09 0.21 0.81 0.06,1.56 -0.55,2.22 -9.65,13.52 -19.32,27.02 -28.91,40.58 -1.06,1.5 -3.77,3.21 -1.66,5.07 c 2.15,1.89,4.11 -0.76,5.3 -2.26 c 4.93 -6.2,11.25 -11.13,15.69 -17.75 c 5.16 -4.36,9.64 -9.39,14.09 -14.47 c 1.75 -1.99,2.78 -4.83,5.73 -5.53 0.45,0,.91 0.02,1.36 0.03 0.43 0.34 0.86 0.68,1.28,1.02 c 3.84,5.33,9.82,8.2,14.38,12.71 -0.21,1.05 -0.09,2.21 -1.15,2.99 -3,.95 -3.86,3.99 -5.74,6.04 -0.58 0.64 -1.19,1.25 -1.73,1.92 -99.54,123.92 -199.07,247.85 -298.6,371.78 -0.43 0.54 -0.8,1.13 -1.2,1.69 -2.7,3.29 -5.41,6.58 -8.11,9.87 -1.84,2.89 -3.31,1.05 -4.84,0 -0.3-0.22 -0.59 -0.43 -0.89 -0.65 -7.42 -5.95 -14.84 -11.9 -22.26 -17.85 -0.27 -0.26 -0.54 -0.51 -0.81 -0.77 l -0.02 0.01 Z " fill="#ab7131" id="path3432"></path><g id="g646"><path d=" M 81.17,370.19 c 0 -0.15 -0.14 -0.68 -0.4 -1.59 -0.17 -0.59 -0.08 -1.11 0.28 -1.56 0.08 -0.11 0.48 -0.49,1.18 -1.14 0.27 -0.03 0.68 0.11,1.22 0.42 l 8.65,4.94 c 0.46 0.27 0.72 0.43 0.8 0.49 0.29 0.23 0.41 0.46 0.37 0.69 s -0.33 0.69 -0.87,1.36 c -0.62 0.77 -1.12,1.19 -1.49,1.26 s -1.54 -0.16 -3.48 -0.67 c -4.11 -1.09 -6.59 -1.11 -7.44 -0.05 -0.61 0.75 -0.38,1.56 0.68,2.4 c 1.31,1.05,4.81,1.99,10.48,2.8 c 6.53 0.95,11.1,1.83,13.72,2.63 s 5.16,2.19,7.62,4.16 c 2.91,2.34,4.59,4.82,5.04,7.44 s -0.01,4.79 -1.39,6.51 c -0.87,1.09 -2.02,1.89 -3.45,2.4 -0.56 0.2 -0.93 0.41 -1.11 0.64 -0.16 0.2 -0.14 0.47 0.05 0.82 0.38 0.7 0.19,1.52 -0.56,2.46 -0.29 0.36 -0.54 0.56 -0.76 0.6 s -0.59 -0.11 -1.12 -0.43 l -8.44 -4.92 c -1.09 -0.62 -1.66 -0.96 -1.72 -1.01 -0.44 -0.35 -0.34 -0.93 0.31 -1.73 0.87 -1.09,1.53 -1.61,1.97 -1.58 s 1.32 0.28,2.64 0.74 c 4.73,1.62,7.64,1.75,8.71 0.41 0.4 -0.5 0.54 -1.05 0.43 -1.65 s -0.44 -1.12 -0.99 -1.55 c -0.95 -0.76 -2.35 -1.33 -4.21 -1.69 s -3.98 -0.69 -6.38 -0.97 c -5.75 -0.69 -10.16 -1.46 -13.24 -2.31 s -5.81 -2.23 -8.19 -4.14 c -2.68 -2.16 -4.35 -4.46 -5.01 -6.92 s -0.3 -4.54,1.07 -6.25 c 0.94 -1.18,2.62 -2.18,5.02 -3 l 0.01 -0.01 Z " fill="#3f2104" id="path353"></path><path d=" M 94.59,350.23 c 1.78 -2.22,4.06 -3.54,6.85 -3.97 s 5.97 -0.05,9.54,1.13 s 7.5,3.49,11.8,6.95 c 5.16,4.14,8.71,8.64,10.66,13.49 s 1.46,9.09 -1.46,12.73 c -2.77,3.45 -6.69,4.78 -11.76,3.99 s -10.35 -3.4 -15.84 -7.81 -9.36 -9.2 -11.2 -14.04 -1.37 -9,1.41 -12.47 Z m 6.8,2.52 c -1.89 -1.51 -3.32 -1.66 -4.3 -0.44 -0.41 0.51 -0.53,1.14 -0.35,1.88 s 0.6,1.38,1.28,1.92 l 27.31,21.93 c 0.92 0.74,1.76,1.12,2.53,1.14 s 1.35 -0.22,1.75 -0.72 c 0.45 -0.56 0.54 -1.22 0.29 -1.98 s -0.71 -1.41 -1.36 -1.93 l -27.15 -21.8 Z " fill="#3f2104" id="path624"></path><path d=" M 147.83,354.75 l 1.04 -1.29 c 0.53 -0.66 0.66 -1.37 0.39 -2.11 s -1.16 -2.14 -2.67 -4.19 c -0.59 -0.77 -0.87 -1.35 -0.82 -1.74 s 0.32 -0.88 0.82 -1.5 c 0.55 -0.68 0.95 -1.07,1.22 -1.18 s 0.56 -0.04 0.86 0.21 c 0.21 0.17 0.52 0.48 0.93 0.93 l 4.77,5.13 c 0.49 0.54 0.76 0.95 0.83,1.24 s -0.08 0.65 -0.43,1.09 l -11.96,14.89 c -0.51 0.63 -1.16 0.64 -1.94,0 -0.6-0.48 -0.96 -0.84 -1.07 -1.06 s -0.1 -0.51 0.03 -0.85 c 0.42 -1.08 -0.03 -2.14 -1.34 -3.2 l -26.88 -21.59 c -0.56 -0.45 -1.18 -0.5 -1.85 -0.15 -0.57 0.31 -1.02 0.42 -1.35 0.33 s -0.77 -0.36 -1.33 -0.8 c -0.66 -0.53 -1.04 -0.91 -1.12 -1.13 s 0.03 -0.52 0.34 -0.91 l 8.38 -10.43 c 0.31 -0.39 0.62 -0.58 0.93 -0.58 s 0.87 0.35,1.7,1.01 c 0.5 0.4 0.79 0.72 0.89 0.96 s 0.05 0.61 -0.14,1.13 c -0.35 0.96 -0.15,1.74 0.58,2.33 l 29.19,23.44 v 0.02 Z " fill="#3f2104" id="path4350"></path><path d=" M 129.54,306.71 c 1.78 -2.22,4.06 -3.54,6.85 -3.97 s 5.97 -0.05,9.54,1.13 s 7.5,3.49,11.8,6.95 c 5.16,4.14,8.71,8.64,10.66,13.49 s 1.46,9.09 -1.46,12.73 -6.69,4.78 -11.76,3.99 -10.35 -3.4 -15.84 -7.81 c -5.63 -4.52 -9.36 -9.2 -11.2 -14.04 s -1.37 -9,1.41 -12.47 Z m 6.8,2.52 c -1.89 -1.51 -3.32 -1.66 -4.3 -0.44 -0.41 0.51 -0.53,1.14 -0.35,1.88 s 0.6,1.38,1.28,1.92 l 27.31,21.93 c 0.92 0.74,1.76,1.12,2.53,1.14 s 1.35 -0.22,1.75 -0.72 c 0.45 -0.56 0.54 -1.22 0.29 -1.98 s -0.71 -1.41 -1.36 -1.93 l -27.15 -21.8 Z " fill="#3f2104" id="path6586"></path><path d=" M 159.33,272.87 c 0 -0.15 -0.14 -0.68 -0.4 -1.59 -0.17 -0.59 -0.08 -1.11 0.28 -1.56 0.08 -0.11 0.48 -0.49,1.18 -1.14 0.27 -0.03 0.68 0.11,1.22 0.42 l 8.65,4.94 c 0.46 0.27 0.72 0.43 0.8 0.49 0.29 0.23 0.41 0.46 0.37 0.69 s -0.33 0.69 -0.87,1.36 c -0.62 0.77 -1.12,1.19 -1.49,1.26 s -1.54 -0.16 -3.48 -0.67 c -4.11 -1.09 -6.59 -1.11 -7.44 -0.05 -0.61 0.75 -0.38,1.56 0.68,2.4 c 1.31,1.05,4.81,1.99,10.48,2.8 c 6.53 0.95,11.1,1.83,13.72,2.63 s 5.16,2.19,7.62,4.16 c 2.91,2.34,4.59,4.82,5.04,7.44 s -0.01,4.79 -1.39,6.51 c -0.87,1.09 -2.02,1.89 -3.45,2.4 -0.56 0.2 -0.93 0.41 -1.11 0.64 -0.16 0.2 -0.14 0.47 0.05 0.82 0.38 0.7 0.19,1.52 -0.56,2.46 -0.29 0.36 -0.54 0.56 -0.76 0.6 s -0.59 -0.11 -1.12 -0.43 l -8.44 -4.92 c -1.09 -0.62 -1.66 -0.96 -1.72 -1.01 -0.44 -0.35 -0.34 -0.93 0.31 -1.73 0.87 -1.09,1.53 -1.61,1.97 -1.58 s 1.32 0.28,2.64 0.74 c 4.73,1.62,7.64,1.75,8.71 0.41 0.4 -0.5 0.54 -1.05 0.43 -1.65 s -0.44 -1.12 -0.99 -1.55 c -0.95 -0.76 -2.35 -1.33 -4.21 -1.69 s -3.98 -0.69 -6.38 -0.97 c -5.75 -0.69 -10.16 -1.46 -13.24 -2.31 s -5.81 -2.23 -8.19 -4.14 c -2.68 -2.16 -4.35 -4.46 -5.01 -6.92 s -0.3 -4.54,1.07 -6.25 c 0.94 -1.18,2.62 -2.18,5.02 -3 l 0.01 -0.01 Z " fill="#3f2104" id="path6681"></path><path d=" M 174.91,257.17 l 12.92,10.37 l 1.24 -1.54 c 0.34 -0.42 0.5 -0.8 0.47 -1.15 s -0.29 -0.81 -0.81 -1.4 c -0.93 -1.04 -1.45 -1.7 -1.57 -1.99 s -0.08 -0.54 0.11 -0.79 c 0.96 -1.19,1.55 -1.83,1.77 -1.91 s 0.67 0.15,1.33 0.68 l 7.53,6.05 c 0.47 0.38 0.71 0.7 0.73 0.96 s -0.28 0.79 -0.91,1.58 c -0.41 0.51 -0.78 0.78 -1.11 0.8 s -1 -0.24 -2 -0.77 c -0.93 -0.48 -1.55 -0.71 -1.86 -0.69 s -0.6 0.19 -0.86 0.52 l -1.42,1.76 l 15.59,12.52 0.96 -1.2 c 0.59 -0.74 0.79 -1.41 0.6 -2.03 s -1.03 -2.02 -2.51 -4.23 c -0.62 -0.92 -0.95 -1.62 -0.99 -2.1 s 0.21 -1.06 0.76 -1.73 c 0.75 -0.94,1.43 -1.16,2.03 -0.68 0.18 0.15 0.42 0.39 0.72 0.73 l 4.46,4.96 c 0.82 0.9,1.28,1.48,1.39,1.73 s -0.04 0.63 -0.45,1.14 l -12.12,15.09 c -0.3 0.38 -0.58 0.55 -0.84 0.52 s -0.8 -0.38 -1.63 -1.05 c -0.53 -0.42 -0.69 -1 -0.5 -1.74 0.32 -1.11 0.18 -1.9 -0.43 -2.39 L 169.3,266.53 c -0.3 -0.22 -0.86 -0.11 -1.68 0.33 -0.56 0.3 -0.96 0.41 -1.21 0.35 s -0.72 -0.37 -1.41 -0.93 c -0.59 -0.47 -0.9-0.8 -0.94 -0.98 s 0.11 -0.49 0.47 -0.93 l 11.59 -14.44 c 0.29 -0.36 0.56 -0.58 0.82 -0.65 s 0.64 0.03,1.17 0.31 l 6.76,3.53 c 0.35 0.18 0.58 0.32 0.68 0.4 0.41 0.33 0.32 0.85 -0.27,1.58 -0.66 0.82 -1.19,1.29 -1.6,1.41 s -1.09,0 -2.05 -0.34 c -1.73 -0.62 -3 -0.98 -3.79 -1.07 s -1.37 0.08 -1.7 0.5 l -1.23,1.53 v 0.04 Z " fill="#3f2104" id="path5966"></path><path d=" M 225.82,246.89 l -4.53,5.64 l 1.87,1.93 c 0,0,.1 0.11 0.17 0.21 0.33 0.48 0.68 0.86,1.02,1.13 0.54 0.44,1.29 0.45,2.23 0.05 0.5 -0.22 0.89 -0.29,1.17 -0.21 s 0.67 0.31,1.15 0.7 c 0.62 0.5 0.96 0.83,1.04,1 s 0,.38 -0.2 0.64 l -4.78,5.95 c -0.26 0.33 -0.75 0.22 -1.44 -0.34 -0.83 -0.67 -1.29 -1.47 -1.38 -2.41 -0.07 -0.87 -0.34 -1.56 -0.8 -2.06 l -23.26 -25.57 c -0.35 -0.4-0.67 -0.72 -0.97 -0.97 -0.47 -0.38 -1.14 -0.38 -2.03 -0.02 -0.42 0.16 -0.95 -0.01 -1.57 -0.51 -0.83 -0.67 -1.31 -1.12 -1.43 -1.37 s -0.03 -0.57 0.29 -0.96 l 6.94 -8.64 c 0.42 -0.53 0.97 -0.7,1.64 -0.51 s 1.92 0.85,3.77,1.98 c 0.72 0.43,1.44 0.85,2.14,1.27 l 27.85,16.25 c 1.35 0.79,2.63,1.08,3.83 0.88 0.32 -0.06 0.56 -0.09 0.7 -0.07 s 0.47 0.23 0.97 0.63 c 0.77 0.62,1.2,1.05,1.29,1.29 s 0,.54 -0.28 0.89 l -8.07,10.05 c -0.24 0.3 -0.65 0.22 -1.22 -0.24 -0.72 -0.58 -1.15 -0.98 -1.27 -1.2 s -0.16 -0.61 -0.11 -1.16 c 0.09 -0.79 -0.12 -1.39 -0.64 -1.81 s -1.89 -1.25 -4.08 -2.47 l -0.01 0.03 Z m -22.46 -13.58 l 15.63,16.76 l 4.04 -5.03 -19.67 -11.72 v -0.01 Z " fill="#3f2104" id="path3948"></path><path d=" M 239.79,235.19 l -27.4 -22 c -0.34 -0.2-0.78 -0.11 -1.33 0.27 -0.44 0.3 -0.82 0.42 -1.17 0.36 s -0.9 -0.39 -1.67 -1 c -0.56 -0.45 -0.85 -0.84 -0.87 -1.18 s 0.29 -0.92 0.95 -1.73 l 8.7 -10.84 c 2.48 -3.09,5.96 -4.51,10.44 -4.25 s 10.03,3.05,16.65,8.37 c 6.03,4.85,9.76,9.45,11.18,13.82 s 0.83,8.16 -1.76,11.39 l -9.59,11.95 c -0.27 0.33 -0.53 0.5 -0.79 0.5 s -0.66 -0.22 -1.21 -0.65 c -0.65 -0.52 -1.04 -0.87 -1.17 -1.05 s -0.14 -0.55 -0.04 -1.11 c 0.24 -1.2 -0.07 -2.14 -0.93 -2.83 l 0.01 -0.02 Z m -22.04 -31.55 l 31.34,25.17 0.96 -1.2 c 0.68 -0.84 0.82 -1.74 0.44 -2.7 s -1.48 -2.15 -3.27 -3.6 L 224.1,202.74 c -1.01 -0.81 -2.03 -1.23 -3.05 -1.26 s -1.89 0.41 -2.6,1.3 l -0.69 0.86 h -0.01 Z " fill="#3f2104" id="path931"></path><path d=" M 240.37,169.95 l 6.43 -8.01 c 0.44 -0.54 0.8 -0.83,1.09 -0.87 s 0.76 0.2,1.41 0.72 c 0.59 0.47 0.95 0.86,1.1,1.16 s 0.14 0.75,0,1.36 c -0.13 0.54 -0.14 0.94 -0.01,1.22 s 0.43 0.61 0.91 0.99 l 26.86,21.57 c 0.39 0.31 0.72 0.5 0.97 0.55 s 0.64 -0.04,1.17 -0.29 c 0.72 -0.34,1.31 -0.32,1.78 0.05 c 1.18 0.94,1.8,1.51,1.87,1.68 s -0.08 0.49 -0.44 0.95 l -8.1,10.09 c -0.35 0.44 -0.9 0.36 -1.64 -0.23 -0.63 -0.51 -1.09 -0.91 -1.36 -1.2 s -0.3 -0.78 -0.09 -1.45 c 0.23 -0.75 0.06 -1.36 -0.51 -1.82 l -19.05 -15.3 l 12.11,16.43 -2,2.49 -18.13 -7.97 l 18.51,14.86 c 0.6 0.48,1.27 0.57,1.99 0.26 0.86 -0.4,1.72 -0.26,2.56 0.42 0.97 0.78,1.18,1.49 0.65,2.16 l -3.94,4.91 c -0.45 0.56 -1.13 0.47 -2.05 -0.27 -0.65 -0.52 -0.96 -1.15 -0.93 -1.9 c 0 -0.58 -0.06 -0.98 -0.16 -1.21 s -0.37 -0.52 -0.81 -0.87 l -26.13 -20.99 c -0.72 -0.58 -1.33 -0.96 -1.82 -1.14 s -1.02 -0.16 -1.6 0.07 c -0.6 0.26 -1.04 0.29 -1.29 0.08 l -0.95 -0.8 c -0.7 -0.58 -1.1 -0.99 -1.21 -1.21 s -0.03 -0.49 0.22 -0.81 l 6.72 -8.37 l 16.89,7.61 -11.02 -14.92 Z " fill="#3f2104" id="path5900"></path><path d=" M 251.19,160.37 l -1.2 -0.96 c -0.47 -0.38 -0.5-0.81 -0.1 -1.31 l 8.7 -10.84 c 0.33 -0.41 0.59 -0.63 0.79 -0.66 s 0.57 0.16,1.1 0.58 c 0.8 0.64,1.26,1.08,1.39,1.32 s 0.1 0.52 -0.08 0.85 c -0.59,1.07 -0.36,2.01 0.66,2.84 l 27.2,21.84 c 0.57 0.46,1.3 0.48,2.18 0.07 0.56 -0.27 0.96 -0.38,1.2 -0.34 s 0.56 0.23 0.97 0.55 l 0.88 0.71 c 0.48 0.39 0.72 0.65 0.71 0.79 s -0.17 0.4 -0.47 0.77 l -8.87,11.04 c -0.34 0.42 -0.67 0.5 -1.01 0.23 -1.09 -0.87 -1.72 -1.44 -1.9 -1.71 s -0.16 -0.68 0.07 -1.25 c 0.43 -1,.33 -1.75 -0.31 -2.26 l -26.86 -21.57 c -0.63 -0.51 -1.17 -0.82 -1.62 -0.93 s -0.98,0 -1.6 0.35 c -0.47 0.24 -0.8 0.36 -1,.34 s -0.47 -0.18 -0.84 -0.47 l 0.01 0.02 Z " fill="#3f2104" id="path45"></path><path d=" M 268,140.74 l -0.83,1.03 c -0.27 0.34 -0.27 0.79,0,1.36 s 1.3,1.76,3.08,3.56 c 0.77 0.8,1.18,1.4,1.22,1.8 s -0.22 0.94 -0.76,1.62 -0.94,1 -1.25,1.06 -0.7-0.1 -1.17 -0.47 c -0.27 -0.22 -0.54 -0.44 -0.8-0.68 l -5.05 -4.51 c -0.6 -0.52 -0.91 -0.95 -0.96 -1.29 s 0.23 -0.86 0.81 -1.58 l 13.33 -16.6 c 0.39 -0.48 0.68 -0.73 0.89 -0.74 s 0.71 0.26,1.51 0.8 l 4.97,3.36 c 0.39 0.26 0.77 0.54,1.14 0.85 0.45 0.36 0.75 0.7 0.9,1.01 s -0.02 0.76 -0.5,1.37 c -0.62 0.77 -1.09,1.2 -1.42,1.3 s -0.94 -0.11 -1.85 -0.61 c -1.51 -0.81 -2.79 -1.41 -3.86 -1.8 s -1.77 -0.37 -2.11 0.05 l -0.55 0.68 l 29.05,23.33 c 0.83 0.67,1.69 0.76,2.59 0.29 0.38 -0.19 0.7 -0.26 0.97 -0.21 s 0.7 0.32,1.31 0.81 c 0.77 0.62,1.16,1.05,1.18,1.28 s -0.17 0.6 -0.55,1.08 l -8.01,9.97 c -0.32 0.39 -0.59 0.59 -0.84 0.58 s -0.72 -0.3 -1.43 -0.87 c -0.84 -0.68 -1.17 -1.33 -0.97 -1.95 0.19 -0.6 0.24 -1.04 0.17 -1.3 s -0.32 -0.56 -0.75 -0.9 l -29.5 -23.69 0.04 0.01 Z " fill="#3f2104" id="path4404"></path><path d=" M 289.45,114.55 l 12.92,10.37 l 1.24 -1.54 c 0.34 -0.42 0.5 -0.8 0.47 -1.15 s -0.29 -0.81 -0.81 -1.4 c -0.93 -1.04 -1.45 -1.7 -1.57 -1.99 s -0.08 -0.54 0.11 -0.79 c 0.96 -1.19,1.55 -1.83,1.77 -1.91 s 0.67 0.15,1.33 0.68 l 7.53,6.05 c 0.47 0.38 0.71 0.7 0.73 0.96 s -0.28 0.79 -0.91,1.58 c -0.41 0.51 -0.78 0.78 -1.11 0.8 s -1 -0.24 -2 -0.77 c -0.93 -0.48 -1.55 -0.71 -1.86 -0.69 s -0.6 0.19 -0.86 0.52 l -1.42,1.76 l 15.59,12.52 0.96 -1.2 c 0.59 -0.74 0.79 -1.41 0.6 -2.03 s -1.03 -2.02 -2.51 -4.23 c -0.62 -0.92 -0.95 -1.62 -0.99 -2.1 s 0.21 -1.06 0.76 -1.73 c 0.75 -0.94,1.43 -1.16,2.03 -0.68 0.18 0.15 0.42 0.39 0.72 0.73 l 4.46,4.96 c 0.82 0.9,1.28,1.48,1.39,1.73 s -0.04 0.63 -0.45,1.14 l -12.12,15.09 c -0.3 0.38 -0.58 0.55 -0.84 0.52 s -0.8 -0.38 -1.63 -1.05 c -0.53 -0.42 -0.69 -1 -0.5 -1.74 0.32 -1.11 0.18 -1.9 -0.43 -2.39 l -28.21 -22.66 c -0.3 -0.22 -0.86 -0.11 -1.68 0.33 -0.56 0.3 -0.96 0.41 -1.21 0.35 s -0.72 -0.37 -1.41 -0.93 c -0.59 -0.47 -0.9-0.8 -0.94 -0.98 s 0.11 -0.49 0.47 -0.93 l 11.59 -14.44 c 0.29 -0.36 0.56 -0.58 0.82 -0.65 s 0.64 0.03,1.17 0.31 l 6.76,3.53 c 0.35 0.18 0.58 0.32 0.68 0.4 0.41 0.33 0.32 0.85 -0.27,1.58 -0.66 0.82 -1.19,1.29 -1.6,1.41 s -1.09,0 -2.05 -0.34 c -1.73 -0.62 -3 -0.98 -3.79 -1.07 s -1.37 0.08 -1.7 0.5 l -1.23,1.53 v 0.04 Z " fill="#3f2104" id="path7456"></path><path d=" M 314.26,110.33 l 15.97,12.83 c 0.66 0.53,1.46 0.56,2.4 0.07 0.8 -0.4,1.46 -0.39,1.98 0.03 c 1.1 0.88,1.69,1.4,1.77,1.55 s -0.04 0.42 -0.35 0.81 l -4.82,6 c -0.24 0.3 -0.51 0.39 -0.8 0.28 s -0.9 -0.54 -1.82 -1.28 c -0.42 -0.34 -0.56 -0.78 -0.4 -1.31 0.27 -1.05 0.19 -1.75 -0.24 -2.11 l -26.74 -21.48 c -0.65 -0.52 -1.18 -0.85 -1.6 -0.99 s -0.9 -0.09 -1.45 0.16 c -0.48 0.23 -0.88 0.32 -1.19 0.28 s -0.76 -0.3 -1.35 -0.77 c -1.06 -0.85 -1.36 -1.55 -0.91 -2.11 l 5.03 -6.26 l 23.78,6.57 L 310.5,92.14 c -0.73 -0.58 -1.54 -0.63 -2.43 -0.13 -0.55 0.28 -1,.38 -1.35 0.31 s -0.89 -0.4 -1.61 -0.98 c -0.45 -0.36 -0.69 -0.63 -0.72 -0.8 s 0.06 -0.38 0.27 -0.64 l 5.01 -6.24 c 0.32 -0.31 0.96 -0.08,1.91 0.68 0.56 0.45 0.89 0.77 0.98 0.96 s 0.1 0.45 0.01 0.77 c -0.21 0.7 -0.28,1.19 -0.19,1.49 s 0.3 0.58 0.65 0.86 l 32.15,25.82 -3.09,3.85 -27.82 -7.76 h -0.01 Z " fill="#3f2104" id="path2540"></path><path d=" M 161.78,451.28 l 1.04 -1.29 c 0.53 -0.66 0.66 -1.37 0.39 -2.11 s -1.16 -2.14 -2.67 -4.19 c -0.59 -0.77 -0.87 -1.35 -0.82 -1.74 s 0.32 -0.88 0.82 -1.5 c 0.55 -0.68 0.95 -1.07,1.22 -1.18 s 0.56 -0.04 0.86 0.21 c 0.21 0.17 0.52 0.48 0.93 0.93 l 4.77,5.13 c 0.49 0.54 0.76 0.95 0.83,1.24 s -0.08 0.65 -0.43,1.09 l -11.96,14.89 c -0.51 0.63 -1.16 0.64 -1.94,0 -0.6-0.48 -0.96 -0.84 -1.07 -1.06 s -0.1 -0.51 0.03 -0.85 c 0.42 -1.08 -0.03 -2.14 -1.34 -3.2 l -26.88 -21.59 c -0.56 -0.45 -1.18 -0.5 -1.85 -0.15 -0.57 0.31 -1.02 0.42 -1.35 0.33 s -0.77 -0.36 -1.33 -0.8 c -0.66 -0.53 -1.04 -0.91 -1.12 -1.13 s 0.03 -0.52 0.34 -0.91 l 8.38 -10.43 c 0.31 -0.39 0.62 -0.58 0.93 -0.58 s 0.87 0.35,1.7,1.01 c 0.5 0.4 0.79 0.72 0.89 0.96 s 0.05 0.61 -0.14,1.13 c -0.35 0.96 -0.15,1.74 0.58,2.33 l 29.19,23.44 v 0.02 Z " fill="#3f2104" id="path6286"></path><path d=" M 146.17,406.85 l 12.92,10.37 l 1.24 -1.54 c 0.34 -0.42 0.5 -0.8 0.47 -1.15 s -0.29 -0.81 -0.81 -1.4 c -0.93 -1.04 -1.45 -1.7 -1.57 -1.99 s -0.08 -0.54 0.11 -0.79 c 0.96 -1.19,1.55 -1.83,1.77 -1.91 s 0.67 0.15,1.33 0.68 l 7.53,6.05 c 0.47 0.38 0.71 0.7 0.73 0.96 s -0.28 0.79 -0.91,1.58 c -0.41 0.51 -0.78 0.78 -1.11 0.8 s -1 -0.24 -2 -0.77 c -0.93 -0.48 -1.55 -0.71 -1.86 -0.69 s -0.6 0.19 -0.86 0.52 l -1.42,1.76 l 15.59,12.52 0.96 -1.2 c 0.59 -0.74 0.79 -1.41 0.6 -2.03 s -1.03 -2.02 -2.51 -4.23 c -0.62 -0.92 -0.95 -1.62 -0.99 -2.1 s 0.21 -1.06 0.76 -1.73 c 0.75 -0.94,1.43 -1.16,2.03 -0.68 0.18 0.15 0.42 0.39 0.72 0.73 l 4.46,4.96 c 0.82 0.9,1.28,1.48,1.39,1.73 s -0.04 0.63 -0.45,1.14 l -12.12,15.09 c -0.3 0.38 -0.58 0.55 -0.84 0.52 s -0.8 -0.38 -1.63 -1.05 c -0.53 -0.42 -0.69 -1 -0.5 -1.74 0.32 -1.11 0.18 -1.9 -0.43 -2.39 l -28.21 -22.66 c -0.3 -0.22 -0.86 -0.11 -1.68 0.33 -0.56 0.3 -0.96 0.41 -1.21 0.35 s -0.72 -0.37 -1.41 -0.93 c -0.59 -0.47 -0.9-0.8 -0.94 -0.98 s 0.11 -0.49 0.47 -0.93 l 11.59 -14.44 c 0.29 -0.36 0.56 -0.58 0.82 -0.65 s 0.64 0.03,1.17 0.31 l 6.76,3.53 c 0.35 0.18 0.58 0.32 0.68 0.4 0.41 0.33 0.32 0.85 -0.27,1.58 -0.66 0.82 -1.19,1.29 -1.6,1.41 s -1.09,0 -2.05 -0.34 c -1.73 -0.62 -3 -0.98 -3.79 -1.07 s -1.37 0.08 -1.7 0.5 l -1.23,1.53 v 0.04 Z " fill="#3f2104" id="path6674"></path><path d=" M 158.27,391.28 l -0.83,1.03 c -0.27 0.34 -0.27 0.79,0,1.36 s 1.3,1.76,3.08,3.56 c 0.77 0.8,1.18,1.4,1.22,1.8 s -0.22 0.94 -0.76,1.62 -0.94,1 -1.25,1.06 -0.7-0.1 -1.17 -0.47 c -0.27 -0.22 -0.54 -0.44 -0.8-0.68 l -5.05 -4.51 c -0.6 -0.52 -0.91 -0.95 -0.96 -1.29 s 0.23 -0.86 0.81 -1.58 l 13.33 -16.6 c 0.39 -0.48 0.68 -0.73 0.89 -0.74 s 0.71 0.26,1.51 0.8 l 4.97,3.36 c 0.39 0.26 0.77 0.54,1.14 0.85 0.45 0.36 0.75 0.7 0.9,1.01 s -0.02 0.76 -0.5,1.37 c -0.62 0.77 -1.09,1.2 -1.42,1.3 s -0.94 -0.11 -1.85 -0.61 c -1.51 -0.81 -2.79 -1.41 -3.86 -1.8 s -1.77 -0.37 -2.11 0.05 l -0.55 0.68 l 29.05,23.33 c 0.83 0.67,1.69 0.76,2.59 0.29 0.38 -0.19 0.7 -0.26 0.97 -0.21 s 0.7 0.32,1.31 0.81 c 0.77 0.62,1.16,1.05,1.18,1.28 s -0.17 0.6 -0.55,1.08 l -8.01,9.97 c -0.32 0.39 -0.59 0.59 -0.84 0.58 s -0.72 -0.3 -1.43 -0.87 c -0.84 -0.68 -1.17 -1.33 -0.97 -1.95 0.19 -0.6 0.24 -1.04 0.17 -1.3 s -0.32 -0.56 -0.75 -0.9 l -29.5 -23.69 0.04 0.01 Z " fill="#3f2104" id="path6068"></path><path d=" M 197.42,379.23 l 11.22,9.01 c 0.53 0.42 0.91 0.67,1.14 0.75 s 0.58 0.04,1.02 -0.11 c 0.58 -0.19,1.17 -0.05,1.77 0.44 0.87 0.7,1.35,1.21,1.43,1.54 s -0.05 0.69 -0.39,1.11 l -7.67,9.55 c -0.43 0.54 -1.04 0.5 -1.83 -0.13 -0.75 -0.61 -1.22 -1.02 -1.4 -1.24 s -0.22 -0.5-0.1 -0.82 c 0.33 -1.1 0.02 -2.03 -0.95 -2.81 l -26.51 -21.29 c -0.98 -0.79 -1.87 -0.91 -2.66 -0.35 -0.41 0.27 -0.71 0.4 -0.9 0.39 -0.19,0 -0.58 -0.24 -1.17 -0.71 -1.17 -0.94 -1.5 -1.72 -0.99 -2.36 l 10.05 -12.51 c 2 -2.49,4.72 -3.96,8.16 -4.41 s 6.73 0.59,9.89,3.12 c 4.48,3.6,5.57,8.23,3.27,13.91 c 4.28 -3.44,8.6 -3.4,12.97 0.11 l 5.38,4.32 c 0.45 0.36 0.93 0.46,1.44 0.3 0.6 -0.19,1.18 -0.06,1.73 0.39 0.87 0.7,1.35,1.17,1.43,1.41 s -0.06 0.58 -0.42,1.04 l -4.87,6.06 c -0.58 0.72 -1.47 0.99 -2.67 0.8 s -2.4 -0.77 -3.61 -1.74 l -9.12 -7.32 c -1.78 -1.43 -3.39 -1.25 -4.83 0.55 l -0.82,1.02 0.01 -0.02 Z m -17.87 -14.35 l 15.25,12.25 l 1.18 -1.47 c 1.2 -1.49 0.3 -3.45 -2.7 -5.86 l -7.29 -5.85 c -1.27 -1.02 -2.35 -1.5 -3.25 -1.44 s -1.76 0.59 -2.57,1.6 l -0.62 0.77 Z " fill="#3f2104" id="path9684"></path><path d=" M 226.77,359.6 l -4.53,5.64 l 1.87,1.93 c 0,0,.1 0.11 0.17 0.21 0.33 0.48 0.68 0.86,1.02,1.13 0.54 0.44,1.29 0.45,2.23 0.05 0.5 -0.22 0.89 -0.29,1.17 -0.21 s 0.67 0.31,1.15 0.7 c 0.62 0.5 0.96 0.83,1.04,1 s 0,.38 -0.2 0.64 l -4.78,5.95 c -0.26 0.33 -0.75 0.22 -1.44 -0.34 -0.83 -0.67 -1.29 -1.47 -1.38 -2.41 -0.07 -0.87 -0.34 -1.56 -0.8 -2.06 l -23.26 -25.57 c -0.35 -0.4-0.67 -0.72 -0.97 -0.97 -0.47 -0.38 -1.14 -0.38 -2.03 -0.02 -0.42 0.16 -0.95 -0.01 -1.57 -0.51 -0.83 -0.67 -1.31 -1.12 -1.43 -1.37 s -0.03 -0.57 0.29 -0.96 l 6.94 -8.64 c 0.42 -0.53 0.97 -0.7,1.64 -0.51 s 1.92 0.85,3.77,1.98 c 0.72 0.43,1.44 0.85,2.14,1.27 l 27.85,16.25 c 1.35 0.79,2.63,1.08,3.83 0.88 0.32 -0.06 0.56 -0.09 0.7 -0.07 s 0.47 0.23 0.97 0.63 c 0.77 0.62,1.2,1.05,1.29,1.29 s 0,.54 -0.28 0.89 l -8.07,10.05 c -0.24 0.3 -0.65 0.22 -1.22 -0.24 -0.72 -0.58 -1.15 -0.98 -1.27 -1.2 s -0.16 -0.61 -0.11 -1.16 c 0.09 -0.79 -0.12 -1.39 -0.64 -1.81 s -1.89 -1.25 -4.08 -2.47 l -0.01 0.03 Z m -22.46 -13.58 l 15.63,16.76 l 4.04 -5.03 -19.67 -11.72 v -0.01 Z " fill="#3f2104" id="path3750"></path><path d=" M 216.53,315.52 c 0 -0.15 -0.14 -0.68 -0.4 -1.59 -0.17 -0.59 -0.08 -1.11 0.28 -1.56 0.08 -0.11 0.48 -0.49,1.18 -1.14 0.27 -0.03 0.68 0.11,1.22 0.42 l 8.65,4.94 c 0.46 0.27 0.72 0.43 0.8 0.49 0.29 0.23 0.41 0.46 0.37 0.69 s -0.33 0.69 -0.87,1.36 c -0.62 0.77 -1.12,1.19 -1.49,1.26 s -1.54 -0.16 -3.48 -0.67 c -4.11 -1.09 -6.59 -1.11 -7.44 -0.05 -0.61 0.75 -0.38,1.56 0.68,2.4 c 1.31,1.05,4.81,1.99,10.48,2.8 c 6.53 0.95,11.1,1.83,13.72,2.63 s 5.16,2.19,7.62,4.16 c 2.91,2.34,4.59,4.82,5.04,7.44 s -0.01,4.79 -1.39,6.51 c -0.87,1.09 -2.02,1.89 -3.45,2.4 -0.56 0.2 -0.93 0.41 -1.11 0.64 -0.16 0.2 -0.14 0.47 0.05 0.82 0.38 0.7 0.19,1.52 -0.56,2.46 -0.29 0.36 -0.54 0.56 -0.76 0.6 s -0.59 -0.11 -1.12 -0.43 l -8.44 -4.92 c -1.09 -0.62 -1.66 -0.96 -1.72 -1.01 -0.44 -0.35 -0.34 -0.93 0.31 -1.73 0.87 -1.09,1.53 -1.61,1.97 -1.58 s 1.32 0.28,2.64 0.74 c 4.73,1.62,7.64,1.75,8.71 0.41 0.4 -0.5 0.54 -1.05 0.43 -1.65 s -0.44 -1.12 -0.99 -1.55 c -0.95 -0.76 -2.35 -1.33 -4.21 -1.69 s -3.98 -0.69 -6.38 -0.97 c -5.75 -0.69 -10.16 -1.46 -13.24 -2.31 s -5.81 -2.23 -8.19 -4.14 c -2.68 -2.16 -4.35 -4.46 -5.01 -6.92 -0.65 -2.46 -0.3 -4.54,1.07 -6.25 0.94 -1.18,2.62 -2.18,5.02 -3 l 0.01 -0.01 Z " fill="#3f2104" id="path6581"></path><path d=" M 262.16,298.01 l 11.86,9.52 c 0.6 0.48,1.35 0.45,2.24 -0.1 0.39 -0.23 0.7 -0.37 0.93 -0.39 s 0.81 0.34,1.75,1.09 c 0.57 0.46 0.87 0.8 0.9,1.02 s -0.11 0.51 -0.4 0.87 l -8.61,10.72 c -0.42 0.53 -0.87 0.6 -1.34 0.23 l -1.33 -1.07 c -0.56 -0.45 -0.67 -1.11 -0.34 -1.99 0.17 -0.46 0.22 -0.82 0.14 -1.08 s -0.36 -0.58 -0.84 -0.97 l -11.13 -8.94 -19.74 -8.37 c -0.98 -0.42 -1.85 -0.42 -2.6,0 -0.42 0.21 -0.8 0.18 -1.15 -0.1 l -1.72 -1.38 c -0.41 -0.33 -0.44 -0.71 -0.08 -1.15 l 7.7 -9.59 c 0.22 -0.27 0.44 -0.39 0.66 -0.36 s 0.66 0.31,1.31 0.83 s 1.04 0.88,1.17,1.07 0.17 0.47 0.11 0.81 c -0.05 0.53 0.09 0.93 0.44,1.21 0.2 0.16 0.45 0.3 0.77 0.43 l 12.46,5.13 -7.65 -11.13 c -0.06 -0.1-0.19 -0.23 -0.39 -0.39 -0.48 -0.39 -1.22 -0.49 -2.21 -0.3-0.46 0.08 -0.79 0.05 -0.99 -0.11 l -1.33 -1.07 c -0.5 -0.4-0.57 -0.82 -0.22 -1.26 l 3.99 -4.97 c 0.36 -0.45 0.8 -0.48,1.29 -0.08 l 1.43,1.14 c 0.26 0.21 0.37 0.57 0.35,1.1 -0.05 0.9 0.21,1.77 0.78,2.6 l 11.81,17.04 -0.02 -0.01 Z " fill="#3f2104" id="path941"></path><path d=" M 277.36,270.18 l 15.97,12.83 c 0.66 0.53,1.46 0.56,2.4 0.07 0.8 -0.4,1.46 -0.39,1.98 0.03 c 1.1 0.88,1.69,1.4,1.77,1.55 s -0.04 0.42 -0.35 0.81 l -4.82,6 c -0.24 0.3 -0.51 0.39 -0.8 0.28 s -0.9 -0.54 -1.82 -1.28 c -0.42 -0.34 -0.56 -0.78 -0.4 -1.31 0.27 -1.05 0.19 -1.75 -0.24 -2.11 l -26.74 -21.48 c -0.65 -0.52 -1.18 -0.85 -1.6 -0.99 s -0.9 -0.09 -1.45 0.16 c -0.48 0.23 -0.88 0.32 -1.19 0.28 s -0.76 -0.3 -1.35 -0.77 c -1.06 -0.85 -1.36 -1.55 -0.91 -2.11 l 5.03 -6.26 l 23.78,6.57 -13.02 -10.46 c -0.73 -0.58 -1.54 -0.63 -2.43 -0.13 -0.55 0.28 -1,.38 -1.35 0.31 s -0.89 -0.4 -1.61 -0.98 c -0.45 -0.36 -0.69 -0.63 -0.72 -0.8 s 0.06 -0.38 0.27 -0.64 l 5.01 -6.24 c 0.32 -0.31 0.96 -0.08,1.91 0.68 0.56 0.45 0.89 0.77 0.98 0.96 s 0.1 0.45 0.01 0.77 c -0.21 0.7 -0.28,1.19 -0.19,1.49 s 0.3 0.58 0.65 0.86 l 32.15,25.82 -3.09,3.85 -27.82 -7.76 h -0.01 Z " fill="#3f2104" id="path9096"></path><path d=" M 275.45,240.17 l 7.87 -9.8 c 0.27 -0.33 0.51 -0.49 0.72 -0.46 s 0.69 0.33,1.43 0.93 s 1.05,1.21 0.94,1.84 c -0.09 0.48 -0.08 0.85 0.03,1.12 s 0.44 0.63,1,1.08 l 25.36,20.37 c 0.69 0.56,1.42 0.81,2.16 0.77 s 1.36 -0.37,1.84 -0.98 c 0.45 -0.56 0.59 -1.23 0.42 -2.01 s -0.55 -1.41 -1.13 -1.88 L 290.75,230.8 c -0.44 -0.35 -0.78 -0.56 -1.02 -0.61 s -0.62 -0.02 -1.14 0.1 c -0.81 0.2 -1.62 -0.04 -2.44 -0.69 -0.64 -0.51 -0.96 -0.89 -0.98 -1.14 s 0.09 -0.51 0.31 -0.78 l 3.92 -4.89 c 0.44 -0.54 0.93 -0.6,1.47 -0.16 l 1.09 0.87 c 0.48 0.39 0.76 0.66 0.84 0.83 s 0.06 0.43 -0.07 0.8 c -0.33 0.9 -0.12,1.65 0.62,2.24 l 24.68,19.82 c 2.34,1.88,3.65,4.04,3.94,6.47 s -0.53,4.86 -2.46,7.26 c -2.16,2.68 -4.52,4.15 -7.11,4.4 s -5.24 -0.73 -7.97 -2.92 l -23.85 -19.15 c -0.63 -0.51 -1.37 -0.55 -2.2 -0.13 -0.42 0.21 -0.72 0.3 -0.9 0.26 s -0.49 -0.22 -0.91 -0.56 c -0.87 -0.7 -1.38 -1.2 -1.52 -1.48 s -0.01 -0.68 0.39 -1.18 l 0.01 0.01 Z " fill="#3f2104" id="path5472"></path><path d=" M 304.81,203.61 l 6.43 -8.01 c 0.44 -0.54 0.8 -0.83,1.09 -0.87 s 0.76 0.2,1.41 0.72 c 0.59 0.47 0.95 0.86,1.1,1.16 s 0.14 0.75,0,1.36 c -0.13 0.54 -0.14 0.94 -0.01,1.22 s 0.43 0.61 0.91 0.99 l 26.86,21.57 c 0.39 0.31 0.72 0.5 0.97 0.55 s 0.64 -0.04,1.17 -0.29 c 0.72 -0.34,1.31 -0.32,1.78 0.05 c 1.18 0.94,1.8,1.51,1.87,1.68 s -0.08 0.49 -0.44 0.95 l -8.1,10.09 c -0.35 0.44 -0.9 0.36 -1.64 -0.23 -0.63 -0.51 -1.09 -0.91 -1.36 -1.2 s -0.3 -0.78 -0.09 -1.45 c 0.23 -0.75 0.06 -1.36 -0.51 -1.82 l -19.05 -15.3 l 12.11,16.43 -2,2.49 -18.13 -7.97 l 18.51,14.86 c 0.6 0.48,1.27 0.57,1.99 0.26 0.86 -0.4,1.72 -0.26,2.56 0.42 0.97 0.78,1.18,1.49 0.65,2.16 l -3.94,4.91 c -0.45 0.56 -1.13 0.47 -2.05 -0.27 -0.65 -0.52 -0.96 -1.15 -0.93 -1.9 c 0 -0.58 -0.06 -0.98 -0.16 -1.21 s -0.37 -0.52 -0.81 -0.87 L 298.87,223.1 c -0.72 -0.58 -1.33 -0.96 -1.82 -1.14 s -1.02 -0.16 -1.6 0.07 c -0.6 0.26 -1.04 0.29 -1.29 0.08 l -0.95 -0.8 c -0.7 -0.58 -1.1 -0.99 -1.21 -1.21 s -0.03 -0.49 0.22 -0.81 l 6.72 -8.37 l 16.89,7.61 -11.02 -14.92 Z " fill="#3f2104" id="path7314"></path><path d=" M 324.83,184.37 l 12.92,10.37 l 1.24 -1.54 c 0.34 -0.42 0.5 -0.8 0.47 -1.15 s -0.29 -0.81 -0.81 -1.4 c -0.93 -1.04 -1.45 -1.7 -1.57 -1.99 s -0.08 -0.54 0.11 -0.79 c 0.96 -1.19,1.55 -1.83,1.77 -1.91 s 0.67 0.15,1.33 0.68 l 7.53,6.05 c 0.47 0.38 0.71 0.7 0.73 0.96 s -0.28 0.79 -0.91,1.58 c -0.41 0.51 -0.78 0.78 -1.11 0.8 s -1 -0.24 -2 -0.77 c -0.93 -0.48 -1.55 -0.71 -1.86 -0.69 s -0.6 0.19 -0.86 0.52 l -1.42,1.76 l 15.59,12.52 0.96 -1.2 c 0.59 -0.74 0.79 -1.41 0.6 -2.03 s -1.03 -2.02 -2.51 -4.23 c -0.62 -0.92 -0.95 -1.62 -0.99 -2.1 s 0.21 -1.06 0.76 -1.73 c 0.75 -0.94,1.43 -1.16,2.03 -0.68 0.18 0.15 0.42 0.39 0.72 0.73 l 4.46,4.96 c 0.82 0.9,1.28,1.48,1.39,1.73 s -0.04 0.63 -0.45,1.14 l -12.12,15.09 c -0.3 0.38 -0.58 0.55 -0.84 0.52 s -0.8 -0.38 -1.63 -1.05 c -0.53 -0.42 -0.69 -1 -0.5 -1.74 0.32 -1.11 0.18 -1.9 -0.43 -2.39 l -28.21 -22.66 c -0.3 -0.22 -0.86 -0.11 -1.68 0.33 -0.56 0.3 -0.96 0.41 -1.21 0.35 s -0.72 -0.37 -1.41 -0.93 c -0.59 -0.47 -0.9-0.8 -0.94 -0.98 s 0.11 -0.49 0.47 -0.93 l 11.59 -14.44 c 0.29 -0.36 0.56 -0.58 0.82 -0.65 s 0.64 0.03,1.17 0.31 l 6.76,3.53 c 0.35 0.18 0.58 0.32 0.68 0.4 0.41 0.33 0.32 0.85 -0.27,1.58 -0.66 0.82 -1.19,1.29 -1.6,1.41 s -1.09,0 -2.05 -0.34 c -1.73 -0.62 -3 -0.98 -3.79 -1.07 s -1.37 0.08 -1.7 0.5 l -1.23,1.53 v 0.04 Z " fill="#3f2104" id="path3679"></path><path d=" M 358.18,179.04 l 11.22,9.01 c 0.53 0.42 0.91 0.67,1.14 0.75 s 0.58 0.04,1.02 -0.11 c 0.58 -0.19,1.17 -0.05,1.77 0.44 0.87 0.7,1.35,1.21,1.43,1.54 s -0.05 0.69 -0.39,1.11 l -7.67,9.55 c -0.43 0.54 -1.04 0.5 -1.83 -0.13 s -1.22 -1.02 -1.4 -1.24 -0.22 -0.5-0.1 -0.82 c 0.33 -1.1 0.02 -2.03 -0.95 -2.81 l -26.51 -21.29 c -0.98 -0.79 -1.87 -0.91 -2.66 -0.35 -0.41 0.27 -0.71 0.4 -0.9 0.39 -0.19,0 -0.58 -0.24 -1.17 -0.71 -1.17 -0.94 -1.5 -1.72 -0.99 -2.36 l 10.05 -12.51 c 2 -2.49,4.72 -3.96,8.16 -4.41 s 6.73 0.59,9.89,3.12 c 4.48,3.6,5.57,8.23,3.27,13.91 c 4.28 -3.44,8.6 -3.4,12.97 0.11 l 5.38,4.32 c 0.45 0.36 0.93 0.46,1.44 0.3 0.6 -0.19,1.18 -0.06,1.73 0.39 0.87 0.7,1.35,1.17,1.43,1.41 s -0.06 0.58 -0.42,1.04 l -4.87,6.06 c -0.58 0.72 -1.47 0.99 -2.67 0.8 s -2.4 -0.77 -3.61 -1.74 l -9.12 -7.32 c -1.78 -1.43 -3.39 -1.25 -4.83 0.55 l -0.82,1.02 0.01 -0.02 Z m -17.87 -14.35 l 15.25,12.25 l 1.18 -1.47 c 1.2 -1.49 0.3 -3.45 -2.7 -5.86 l -7.29 -5.85 c -1.27 -1.02 -2.35 -1.5 -3.25 -1.44 s -1.76 0.59 -2.57,1.6 l -0.62 0.77 Z " fill="#3f2104" id="path9608"></path><path d=" M 358.4,135.62 c 1.78 -2.22,4.06 -3.54,6.85 -3.97 s 5.97 -0.05,9.54,1.13 s 7.5,3.49,11.8,6.95 c 5.16,4.14,8.71,8.64,10.66,13.49 s 1.46,9.09 -1.46,12.73 c -2.77,3.45 -6.69,4.78 -11.76,3.99 s -10.35 -3.4 -15.84 -7.81 c -5.63 -4.52 -9.36 -9.2 -11.2 -14.04 s -1.37 -9,1.41 -12.47 Z m 6.8,2.52 c -1.89 -1.51 -3.32 -1.66 -4.3 -0.44 -0.41 0.51 -0.53,1.14 -0.35,1.88 s 0.6,1.38,1.28,1.92 l 27.31,21.93 c 0.92 0.74,1.76,1.12,2.53,1.14 s 1.35 -0.22,1.75 -0.72 c 0.45 -0.56 0.54 -1.22 0.29 -1.98 s -0.71 -1.41 -1.36 -1.93 l -27.15 -21.8 Z " fill="#3f2104" id="path2462"></path><path d=" M 378.96,113.26 c 0 -0.15 -0.14 -0.68 -0.4 -1.59 -0.17 -0.59 -0.08 -1.11 0.28 -1.56 0.08 -0.11 0.48 -0.49,1.18 -1.14 0.27 -0.03 0.68 0.11,1.22 0.42 l 8.65,4.94 c 0.46 0.27 0.72 0.43 0.8 0.49 0.29 0.23 0.41 0.46 0.37 0.69 s -0.33 0.69 -0.87,1.36 c -0.62 0.77 -1.12,1.19 -1.49,1.26 s -1.54 -0.16 -3.48 -0.67 c -4.11 -1.09 -6.59 -1.11 -7.44 -0.05 -0.61 0.75 -0.38,1.56 0.68,2.4 c 1.31,1.05,4.81,1.99,10.48,2.8 c 6.53 0.95,11.1,1.83,13.72,2.63 s 5.16,2.19,7.62,4.16 c 2.91,2.34,4.59,4.82,5.04,7.44 s -0.01,4.79 -1.39,6.51 c -0.87,1.09 -2.02,1.89 -3.45,2.4 -0.56 0.2 -0.93 0.41 -1.11 0.64 -0.16 0.2 -0.14 0.47 0.05 0.82 0.38 0.7 0.19,1.52 -0.56,2.46 -0.29 0.36 -0.54 0.56 -0.76 0.6 s -0.59 -0.11 -1.12 -0.43 l -8.44 -4.92 c -1.09 -0.62 -1.66 -0.96 -1.72 -1.01 -0.44 -0.35 -0.34 -0.93 0.31 -1.73 0.87 -1.09,1.53 -1.61,1.97 -1.58 s 1.32 0.28,2.64 0.74 c 4.73,1.62,7.64,1.75,8.71 0.41 0.4 -0.5 0.54 -1.05 0.43 -1.65 s -0.44 -1.12 -0.99 -1.55 c -0.95 -0.76 -2.35 -1.33 -4.21 -1.69 s -3.98 -0.69 -6.38 -0.97 c -5.75 -0.69 -10.16 -1.46 -13.24 -2.31 s -5.81 -2.23 -8.19 -4.14 c -2.68 -2.16 -4.35 -4.46 -5.01 -6.92 s -0.3 -4.54,1.07 -6.25 c 0.94 -1.18,2.62 -2.18,5.02 -3 l 0.01 -0.01 Z " fill="#3f2104" id="path8029"></path></g></g><circle r="42.86" transform="translate(566.9 498.89)" fill="#7d898f" id="circle3923"></circle></g></g><g id="g7239"><ellipse rx="30.99" ry="51.22" transform="matrix(.844328-.535827 0.535827 0.844328 962.988848 643.174395)" fill="#7d898f" id="ellipse416"></ellipse><g id="g8023"><rect width="88.3" height="202.87" rx="26.16" ry="26.16" transform="matrix(.738102-.674689 0.674689 0.738102 789.789119 514.645331)" fill="#4e2b07" id="rect6608"></rect><path d=" M 936.67,544.49 l -64.05 -70.08 c -9.75 -10.66 -26.29 -11.41 -36.95 -1.66 l -26.56,24.28 c -10.66,9.75 -11.41,26.29 -1.66,36.95 l 45.02,49.26 c 25.57 -1.32,51.28 -13.64,75.77 -32.1 c 2.89 -2.18,5.7 -4.4,8.43 -6.66 v 0.01 Z " fill="#3f2106" id="path9038"></path></g><ellipse rx="61.4" ry="97.04" transform="matrix(.83079-.556586 0.556586 0.83079 654.395421 332.468593)" fill="#727d84" id="ellipse9699"></ellipse><g id="g4398"><path d=" M 739.09,521.61 c 50.71,67.35,109.54,56.11,162.63,16.11 c 53.08 -40,80.36 -93.54,29.65 -160.89 s -134.87 -89.56 -187.99 -49.6 c -53.13,39.96 -55.03,126.99 -4.33,194.34 l 0.04 0.04 Z " fill="#cac93c" id="path6506"></path><path d=" M 931.37,376.83 c -15.95 -21.19 -35.21 -37.9 -55.78 -49.63 c 12.78,16.11,22.24,35.12,27.16,56.32 c 18.34,79.02 -33.21,158.5 -115.15,177.52 -0.87 0.2 -1.74 0.39 -2.61 0.57 c 38.5,18.38,79.06,4.49,116.72 -23.9 c 53.08 -40,80.36 -93.54,29.65 -160.89 l 0.01 0.01 Z " fill="#92921a" id="path6968"></path><path d=" M 935.62,505.48 c -26.56 -20.64 -72.36 -60.46 -98.89 -107.58 -16.37 -28.05 -27.59 -58.48 -33.41 -90.53 -4.96 0.08 -9.87 0.48 -14.69,1.19 c 6.05,34.25,17.94,66.78,35.37,96.64 c 27.41,48.69,74.29,89.73,101.93,111.32 c 3.47 -3.59,6.71 -7.27,9.7 -11.03 l -0.01 -0.01 Z " fill="#1c1d15" id="path6146"></path><path d=" M 852.32,564.74 c -1.78 -1.05 -3.68 -2.13 -5.76 -3.32 -22.48 -12.81 -60.11 -34.25 -94.57 -97.09 l -0.1 -0.17 c -17.27 -29.59 -28.82 -61.83 -34.33 -95.8 l -6.33,1.03 c -2.15,5.26 -3.93,10.72 -5.31,16.37 c 6.51,30.22,17.65,59,33.24,85.73 c 32.33,58.91,68.56,84.12,91.87,97.92 c 7.1 -0.77,14.2 -2.35,21.28 -4.66 l 0.01 -0.01 Z " fill="#1c1d15" id="path8377"></path></g><g id="g2610"><circle r="18.15" transform="translate(747.56 362.86)" fill="#d82d0c" id="circle1158"></circle><path d=" M 717.14,395.26 l -13.56 -23.91 c -4.19 -7.4,2.65 -16.17,10.84 -13.9 l 18.73,5.18 c 5.08,1.4,8.06,6.66,6.66,11.74 l -5.18,18.73 c -2.26,8.19 -13.31,9.56 -17.5,2.16 h 0.01 Z " fill="#d82d0c" id="path3090"></path><path d=" M 782.57,330.27 l 12.62,24.42 c 3.9,7.55 -3.27,16.05 -11.37,13.47 l -18.52 -5.9 c -5.02 -1.6 -7.8 -6.97 -6.2 -11.99 l 5.9 -18.52 c 2.58 -8.1,13.67 -9.04,17.57 -1.49 v 0.01 Z " fill="#d82d0c" id="path1395"></path></g><g id="g9937"><circle r="102.67" transform="matrix(.707107-.707107 0.707107 0.707107 698.902846 267.618987)" fill="#7d898f" id="circle4081"></circle><path d=" M 712.95,187.98 c -22.92,24.99 -9.49,74.61,30,110.84 c 12.88,11.82,26.94,20.73,40.84,26.54 c 28.27 -41.46,22.58 -98.47 -15.48 -133.39 -8.11 -7.44 -17.09 -13.31 -26.58 -17.66 -11.54,1.31 -21.54,5.79 -28.78,13.68 v -0.01 Z " fill="#727d84" id="path8945"></path><ellipse rx="61.4" ry="97.04" transform="matrix(.676105-.736805 0.736805 0.676105 783.137502 239.76705)" fill="#9c9292" id="ellipse5126"></ellipse><ellipse rx="21.5" ry="31.1" transform="matrix(.856718-.515786 0.515786 0.856718 631.981412 320.159017)" fill="none" stroke="#f9f97c" stroke-width="6" stroke-miterlimit="10" id="ellipse3553"></ellipse></g><g id="eP3K8jzdyHM59_tr" transform="translate(670.125075,343.09344) rotate(4.227342)"><g transform="translate(-670.125073,-343.093436)" id="g2816"><path d=" M 694.92,352.2 v 0 c 8.93 -11.17,3.19 -27.95 -7.19 -35.53 -11.92 -8.63 -27.15 -3.26 -35.53,7.19 -1.63,2.02 -3.22,4.01 -4.9,5.93 c 2.54 -2.91 -0.36 0.31 -0.75 0.69 -2.67,2.78 -5.29,5.54 -8.08,8.19 -5.9,5.59 -12.16,10.71 -18.76,15.41 -1.37 0.99 -3,1.85 -0.62 0.43 -1.45 0.84 -2.84,1.78 -4.34,2.64 -3.67,2.18 -7.46,4.11 -11.28,5.98 -3.25,1.6 -6.66,3.01 -10.06,4.29 -1.01 0.3 -6.18,1.75 -1.47 0.53 -1.54 0.37 -3.09 0.88 -4.61,1.3 -6.62,1.78 -13.28,2.42 -20.06,3.63 -2.83 0.49 0.1 0.08 0.67 0.06 -1.62 0.09 -3.21 0.1 -4.81 0.12 -3.19 0.03 -6.4 -0.13 -9.59 -0.36 -2.39 -0.17 -4.75 -0.55 -7.12 -0.8-0.69 -0.11 -4.75 -0.81 -0.64,0 -2.64 -0.56 -5.24 -1.27 -7.8 -2.06 -2.87 -0.9 -5.74 -1.92 -8.54 -3.05 -1.38 -0.6 -2.77 -1.2 -4.15 -1.81 -3.56 -1.52,3.02,1.98 -0.2-0.16 -5.4 -3.56 -10.88 -6.64 -15.88 -10.84 c 4.04,3.4 -2.29 -2.46 -3.14 -3.39 -1.79 -1.94 -3.52 -3.91 -5.12 -6 -1.5 -1.89 -2.75 -3.9 -0.74 -0.73 -0.81 -1.27 -1.63 -2.53 -2.34 -3.85 -1.39 -2.58 -2.76 -5.24 -3.92 -8 -0.61 -1.37 -1.08 -2.73 -1.64 -4.13 0.33 0.93,1.38,5.02 0.1 0.21 -0.72 -2.91 -1.47 -5.74 -1.99 -8.63 -0.32 -1.83 -0.64 -3.66 -0.83 -5.48 -0.1-0.72 -0.6 -5.4 -0.32 -2.21 0.21,2.52 -0.07 -4.32 -0.04 -5.55 0.12 -6.02 0.81 -11.92,1.83 -17.8 -0.97,5.34 0.53 -1.8 0.66 -2.31 0.32 -1.05 0.61 -2.15 0.92 -3.21 0.84 -2.85,1.82 -5.69,2.89 -8.46 0.52 -1.41,1.07 -2.77,1.68 -4.15 0.24 -0.56,2.27 -4.89 0.99 -2.28 s 0.97 -1.82,1.28 -2.36 c 0.78 -1.41,1.56 -2.82,2.37 -4.17 c 3.44 -5.78,7.34 -11.41,11.54 -16.68 c 1.01 -1.2,2.05 -2.48,3.06 -3.68 -0.75 0.82 -3.06,3.29 0.39 -0.38 c 1.92 -2.09,3.86 -4.14,5.86 -6.07 c 9.45 -9.31,19.88 -17.56,30.81 -25.04 c 11.78 -8.09,9.99 -26.48,2.17 -36.16 -9.42 -11.64 -25.12 -9.7 -36.16 -2.17 -30.37,20.85 -56.1,48.4 -70.76,82.48 -12.8,29.91 -14.38,63.21 -3.23,94.69 c 11.15,31.47,36.63,54.83,68.39,67.36 s 65.43,10.67,98.71 -1.11 s 60.55 -35.28,82.35 -62.5 l -0.08 -0.03 0.02 0.01 Z " fill="#7d898f" id="path7517"></path><g id="g6171"><path d=" M 648.49,44.7 c -14.77 -8.7 -37.81,2.03 -52.26,8.73 -8.08,3.77 -70.85,33.99 -72.06,84.66 -0.35,15.99,5.21,42.72,25.28,50.35 c 31.15,11.93,82.48 -27.79,101.27 -69.09 c 10.95 -24.14,17.34 -63.06 -2.22 -74.6 l -0.03 -0.05 h 0.02 Z " fill="#352f0e" id="path5424"></path><path d=" M 615.19,66.48 c -4.09 -9.26 -14.46 -14.99 -35.1 -26 -24.79 -13.32 -41.51 -22.22 -50.38 -15.62 -7.08,5.27 -1.14,14.52 -8.59,28.04 -9.96,18.2 -28.16,15.29 -32.57,26.67 -7.76,20.07,32.6,71.79,74.58,65.86 c 24.06 -3.42,38.46 -24.31,41.38 -28.56 c 3.35 -4.78,20.09 -29.13,10.74 -50.41 l -0.05 0.03 -0.01 -0.01 Z " fill="#4c420a" id="path5246"></path></g></g></g></g></svg>