<?xml version="1.0" encoding="UTF-8"?>
<svg id="Capa_14" data-name="Capa 14" xmlns="http://www.w3.org/2000/svg" viewBox="0 0 995.97 218.52">
  <defs>
    <style>
      .cls-1 {
        fill: #e8790a;
      }

      .cls-2 {
        fill: #f2c394;
      }

      .cls-3 {
        fill: #a52c14;
      }

      .cls-4 {
        fill: #f28e1f;
      }
    </style>
  </defs>
  <g>
    <path class="cls-4" d="m841.34,218.52h146.59c6.37,0,10.2-7.42,6.75-13.05l-38.45-62.61c-1.72-2.8-1.72-6.39,0-9.19l38.45-62.61c3.46-5.63-.38-13.05-6.75-13.05h-146.17c-4.6,0-8.27,4.06-8.02,8.9l7.6,151.61Z"/>
    <path class="cls-2" d="m918.17,72.29h75.74l.76-1.24c1.27-2.07,1.55-4.37,1.09-6.47h-77.59v7.7Z"/>
    <path class="cls-2" d="m994.67,205.46l-1.44-2.34h-150.42v6.69l.05,1.01h153.06c.16-1.78-.21-3.65-1.26-5.36Z"/>
    <path class="cls-1" d="m923.02,157.59l-75.16,58.99c-5.92,4.65-14.59.43-14.59-7.1V67.51l94.19-56.53-4.44,146.61Z"/>
  </g>
  <g>
    <path class="cls-4" d="m154.64,218.52H8.05c-6.37,0-10.2-7.42-6.75-13.05l38.45-62.61c1.72-2.8,1.72-6.39,0-9.19L1.3,71.05c-3.46-5.63.38-13.05,6.75-13.05h146.17c4.6,0,8.27,4.06,8.02,8.9l-7.6,151.61Z"/>
    <path class="cls-2" d="m77.48,65.35H.08c-.24,1.88.1,3.88,1.22,5.7l1.23,2h74.95v-7.7Z"/>
    <path class="cls-2" d="m152.79,209.82v-6.69H2.74l-1.44,2.34c-1.05,1.71-1.42,3.58-1.26,5.36h152.69l.05-1.01Z"/>
    <path class="cls-1" d="m72.96,157.59l75.16,58.99c5.92,4.65,14.59.43,14.59-7.1V67.51S68.56,10.76,68.56,10.76l4.4,146.83Z"/>
  </g>
  <path class="cls-4" d="m81.45,0h833.4c7.69,0,13.93,6.24,13.93,13.93v132.1c0,8-6.49,14.49-14.49,14.49H81.45c-7.69,0-13.93-6.24-13.93-13.93V13.93c0-7.69,6.24-13.93,13.93-13.93Z"/>
  <g>
    <path class="cls-3" d="m184.25,108.72c0,3.67-.7,7.13-2.11,10.37-1.41,3.24-3.33,6.08-5.76,8.51-2.43,2.43-5.27,4.35-8.51,5.76-3.24,1.41-6.7,2.11-10.37,2.11-7.48,0-13.82-2.62-19.03-7.85-.52-.53-.48-1.4.07-1.89l5.33-4.77c.51-.46,1.3-.45,1.78.03,3.26,3.25,7.21,4.88,11.84,4.88,2.39,0,4.61-.45,6.66-1.34s3.84-2.11,5.38-3.65c1.54-1.54,2.75-3.35,3.65-5.44.9-2.09,1.34-4.33,1.34-6.72,0-4.52-1.49-8.4-4.48-11.65l-15.87-17.54c-2.99-3.24-5.27-6.83-6.85-10.75-1.58-3.92-2.37-8.11-2.37-12.55s.83-8.56,2.5-12.35c1.66-3.8,3.92-7.08,6.78-9.86,2.86-2.77,6.23-4.95,10.11-6.53,3.48-1.41,7.15-2.2,11.01-2.34.74-.03,1.35.58,1.35,1.32v6.97c0,.71-.57,1.28-1.28,1.31-2.59.13-5.05.65-7.36,1.57-2.69,1.07-5.04,2.56-7.04,4.48-2.01,1.92-3.59,4.2-4.74,6.85-1.15,2.65-1.73,5.51-1.73,8.58,0,3.76.72,7.11,2.18,10.05,1.45,2.94,3.28,5.72,5.5,8.32,2.22,2.6,4.61,5.1,7.17,7.49,2.56,2.39,4.95,4.91,7.17,7.55,2.22,2.65,4.05,5.5,5.5,8.58,1.45,3.07,2.18,6.57,2.18,10.5Zm12.55,0c0,10.75-3.97,19.61-11.91,26.55-.24.21-.56.33-.88.33h0c-1.18,0-1.74-1.42-.91-2.25,6.58-6.64,9.86-14.87,9.86-24.67,0-4.61-.73-8.74-2.18-12.37-1.45-3.63-3.29-6.92-5.5-9.87-2.22-2.95-4.59-5.66-7.11-8.14-2.52-2.48-4.89-4.89-7.1-7.24-2.22-2.35-4.06-4.72-5.5-7.12-1.45-2.39-2.18-5-2.18-7.82,0-3.84,1.26-6.92,3.78-9.23,2.52-2.31,5.65-3.46,9.41-3.46h4.22v.64c-3.67.94-6.32,2.6-7.94,4.99-1.66,2.44-2.47,5.55-2.43,9.32.01,1.41.29,2.82.85,4.12.76,1.74,1.75,3.32,2.99,4.74l14.72,17.41c2.9,3.41,4.93,7.19,6.08,11.33,1.15,4.14,1.73,8.39,1.73,12.74Zm-9.54-65.25c-.43.02-.85.06-1.28.11-.78.1-1.47-.51-1.47-1.3v-15.84c0-.73.59-1.31,1.31-1.31h1.34c.73,0,1.31.59,1.31,1.31v15.72c0,.69-.53,1.27-1.22,1.31Z"/>
    <path class="cls-3" d="m309.97,137.57l-31.08-88.17c-.57-1.6-2.83-1.6-3.4,0l-31.2,88.17c-.56,1.59-2.8,1.6-3.39.02l-40.77-110.17c-.44-1.18.44-2.43,1.69-2.43h6.52c.76,0,1.43.47,1.69,1.18l30.73,83.59c.58,1.59,2.83,1.57,3.39-.03l31.33-89.36c.56-1.61,2.84-1.61,3.4,0l31.21,89.36c.56,1.6,2.81,1.62,3.39.03l30.86-83.6c.26-.71.94-1.18,1.69-1.18h6.52c1.26,0,2.13,1.25,1.69,2.43l-40.89,110.17c-.59,1.58-2.83,1.56-3.39-.03Zm-69.42-53.61l-20.85-56.53c-.43-1.18.44-2.43,1.69-2.43h6.64c.83,0,1.54.56,1.75,1.36l14.25,56.39c.08.33.07.67-.03.99l-.05.14c-.52,1.63-2.81,1.69-3.41.08Zm16.42,51.52h-.14c-1.24,0-2.11-1.23-1.7-2.4l20.33-57.36c.57-1.61,2.85-1.6,3.4.02l.05.13c.13.38.13.8,0,1.18l-20.23,57.22c-.25.72-.94,1.2-1.7,1.2Zm53.38-51.39l-19.66-56.7c-.41-1.17.46-2.39,1.7-2.39h6.79c.84,0,1.57.58,1.76,1.4l13,56.33c.08.34.06.69-.06,1.02l-.13.37c-.58,1.59-2.84,1.58-3.4-.03Zm16.15,51.39h0c-1.25,0-2.12-1.25-1.69-2.42l39.26-106.87c.26-.71.94-1.18,1.69-1.18h0c1.25,0,2.12,1.25,1.69,2.42l-39.26,106.87c-.26.71-.94,1.18-1.69,1.18Z"/>
    <path class="cls-3" d="m377.55,133.46V27.02c0-1.12.9-2.02,2.02-2.02h5.56c1.12,0,2.02.9,2.02,2.02v106.44c0,1.12-.9,2.02-2.02,2.02h-5.56c-1.12,0-2.02-.9-2.02-2.02Zm20.45,2.02h0c-1.12,0-2.02-.9-2.02-2.02V27.02c0-1.12.9-2.02,2.02-2.02h3.7c1.14,0,2.06.95,2.02,2.09l-3.7,106.44c-.04,1.09-.93,1.95-2.02,1.95Z"/>
    <path class="cls-3" d="m454.49,36.71v96.78c0,1.1-.89,1.98-1.98,1.98h-5.64c-1.1,0-1.98-.89-1.98-1.98V36.71c0-1.1-.89-1.98-1.98-1.98h-27.91c-1.1,0-1.98-.89-1.98-1.98v-5.63c0-1.1.89-1.98,1.98-1.98h69.26c1.1,0,1.98.89,1.98,1.98v5.63c0,1.1-.89,1.98-1.98,1.98h-27.78c-1.1,0-1.98.89-1.98,1.98Zm-41.48,8.83h0c0-1.1.89-1.98,1.98-1.98h18.82c1.1,0,1.98.89,1.98,1.98h0c0,1.1-.89,1.98-1.98,1.98h-18.82c-1.1,0-1.98-.89-1.98-1.98Zm54.15,9.36v78.59c0,1.1-.89,1.98-1.98,1.98h0c-1.1,0-1.98-.89-1.98-1.98V45.55c0-1.1.89-1.98,1.98-1.98h13.89c2.1,0,2.76,2.83.88,3.76l-11.69,5.81c-.67.34-1.1,1.02-1.1,1.78Zm26.88-13.33v-14.47c0-1.1.89-1.98,1.98-1.98h0c1.1,0,1.98.89,1.98,1.98v14.47c0,1.1-.89,1.98-1.98,1.98h0c-1.1,0-1.98-.89-1.98-1.98Z"/>
    <path class="cls-3" d="m583.43,126.46c.48.73.27,1.73-.47,2.19-4.3,2.68-8.8,4.71-13.51,6.09-5.21,1.52-10.63,2.28-16.26,2.28-7.86,0-15.22-1.47-22.08-4.42-6.87-2.94-12.87-6.98-17.98-12.1-5.12-5.12-9.15-11.11-12.1-17.99-2.95-6.87-4.42-14.23-4.42-22.08s1.45-15.23,4.36-22.15c2.9-6.91,6.92-12.93,12.03-18.05,5.12-5.12,11.13-9.17,18.04-12.16,6.91-2.99,14.29-4.48,22.15-4.48,10.74,0,20.66,2.83,29.77,8.49.74.46.95,1.45.48,2.19l-3.55,5.54c-.47.73-1.43.93-2.17.47-7.34-4.55-15.52-6.83-24.53-6.83-6.57,0-12.7,1.22-18.37,3.65s-10.65,5.79-14.91,10.06c-4.27,4.27-7.62,9.27-10.05,15-2.43,5.72-3.65,11.83-3.65,18.33s1.23,12.61,3.71,18.33c2.47,5.72,5.83,10.7,10.05,14.93,4.22,4.23,9.19,7.56,14.91,10,5.72,2.44,11.82,3.65,18.31,3.65,8.87,0,17.05-2.29,24.55-6.86.73-.45,1.68-.25,2.15.47l3.54,5.43Zm-25.25-82.51c-5.12.26-9.9,1.45-14.34,3.58-4.44,2.13-8.28,4.91-11.52,8.32-3.25,3.41-5.81,7.4-7.68,11.97-1.88,4.57-2.82,9.41-2.82,14.53s.81,9.56,2.43,13.83c1.62,4.27,3.9,8.02,6.85,11.26,2.94,3.25,6.46,5.85,10.56,7.81,4.1,1.96,8.66,3.07,13.7,3.33h-2.05c-5.29,0-10.26-1-14.91-3.01-4.65-2-8.71-4.74-12.16-8.19s-6.19-7.49-8.19-12.1c-2.01-4.61-3.01-9.56-3.01-14.85s1-10.28,3.01-14.98c2.01-4.69,4.74-8.77,8.19-12.23,3.46-3.46,7.51-6.19,12.16-8.19,4.65-2,9.62-3.01,14.91-3.01.26,0,.62.09,1.09.26.47.17.96.36,1.47.58.51.21.98.43,1.41.64.42.21.72.36.9.45Zm26.51,3.5s-.02-.01-.03-.02c-.79-.47-1.06-1.49-.55-2.25l6.06-9.09c.49-.74,1.5-.92,2.23-.41l.12.09c.69.49.87,1.45.39,2.16l-6.08,9.07c-.47.71-1.41.89-2.15.46Zm7.97,80.86l-8.55-12.87c-.51-.77-.24-1.78.55-2.25,0,0,.02-.01.03-.02.73-.43,1.67-.25,2.15.46l8.59,12.84c.49.73.28,1.73-.46,2.2l-.15.1c-.72.46-1.68.26-2.16-.46Z"/>
    <path class="cls-3" d="m684.28,134.2v-27.65c0-.71-.57-1.28-1.28-1.28h-66.57c-.71,0-1.28.57-1.28,1.28v27.65c0,.71-.57,1.28-1.28,1.28h-7.04c-.71,0-1.28-.57-1.28-1.28V26.41c0-.71.57-1.28,1.28-1.28h7.04c.71,0,1.28.57,1.28,1.28v67.98c0,.71.57,1.28,1.28,1.28h66.57c.71,0,1.28-.57,1.28-1.28V26.41c0-.71.57-1.28,1.28-1.28h7.04c.71,0,1.28.57,1.28,1.28v107.79c0,.71-.57,1.28-1.28,1.28h-7.04c-.71,0-1.28-.57-1.28-1.28Zm-56.65-47.37h-2.36c-.71,0-1.28-.57-1.28-1.28V26.41c0-.71.57-1.28,1.28-1.28h5.19c.73,0,1.31.61,1.28,1.34l-2.82,59.14c-.03.68-.6,1.22-1.28,1.22Zm1.04,30.92l-.78,16.51c-.03.68-.6,1.22-1.28,1.22h-1.34c-.71,0-1.28-.57-1.28-1.28v-18.95c0-.71.57-1.28,1.28-1.28h50.7c.71,0,1.28.57,1.28,1.28h0c0,.71-.57,1.28-1.28,1.28h-46.02c-.68,0-1.25.54-1.28,1.22Zm76.78,17.73h-1.45c-.71,0-1.28-.57-1.28-1.28V26.41c0-.71.57-1.28,1.28-1.28h5.2c.72,0,1.3.6,1.28,1.32l-3.75,107.79c-.02.69-.59,1.24-1.28,1.24Z"/>
    <path class="cls-3" d="m719.74,133.56V27.05c0-1.06.86-1.92,1.92-1.92h40.46c1.06,0,1.92.86,1.92,1.92v5.76c0,1.06-.86,1.92-1.92,1.92h-30.6c-1.06,0-1.92.86-1.92,1.92v54.66c0,1.06.86,1.92,1.92,1.92h30.85c1.06,0,1.92.86,1.92,1.92v5.76c0,1.06-.86,1.92-1.92,1.92h-30.85c-1.06,0-1.92.86-1.92,1.92v19.2c0,1.06.86,1.92,1.92,1.92h34.44c1.06,0,1.92.86,1.92,1.92v5.76c0,1.06-.86,1.92-1.92,1.92h-44.3c-1.06,0-1.92-.86-1.92-1.92Zm31.93-86.43l-9.77,26.98c-.73,2.02-3.72,1.5-3.72-.65v-28.24c0-1.06.86-1.92,1.92-1.92h30.09c1.06,0,1.92-.86,1.92-1.92v-14.34c0-1.06.86-1.92,1.92-1.92h0c1.06,0,1.92.86,1.92,1.92v16.9c0,1.06-.86,1.92-1.92,1.92h-20.54c-.81,0-1.53.51-1.8,1.27Zm-9.53,66.45v1.54c0,1.06-.86,1.92-1.92,1.92h-.13c-1.06,0-1.92-.86-1.92-1.92v-4.1c0-1.06.86-1.92,1.92-1.92h30.09c1.06,0,1.92-.86,1.92-1.92v-20.87c0-1.06.86-1.92,1.92-1.92h0c1.06,0,1.92.86,1.92,1.92v23.43c0,1.06-.86,1.92-1.92,1.92h-29.96c-1.06,0-1.92.86-1.92,1.92Zm33.54,20.1v-14.72c0-1.06.86-1.92,1.92-1.92h.13c1.06,0,1.92.86,1.92,1.92v14.72c0,1.06-.86,1.92-1.92,1.92h-.13c-1.06,0-1.92-.86-1.92-1.92Z"/>
    <path class="cls-3" d="m846.09,71.09c0,7.94-1.92,15.32-5.76,22.15-3.67,6.52-8.61,11.87-14.85,16.05-.5.33-.65.99-.34,1.51l12.55,20.53c.32.53.16,1.22-.37,1.54l-6.28,3.83c-.53.32-1.21.16-1.54-.37l-13.15-21.44c-.27-.44-.81-.65-1.31-.48-1.66.58-3.71,1.14-6.15,1.68-2.86.64-5.49.96-7.87.96-.43,0-.85-.02-1.28-.06-.43-.04-.85-.11-1.28-.19v17.57c0,.62-.5,1.12-1.12,1.12h-7.37c-.62,0-1.12-.5-1.12-1.12V26.25c0-.62.5-1.12,1.12-1.12h10.28c6.4,0,12.37,1.2,17.92,3.58,5.55,2.39,10.39,5.68,14.53,9.86,4.14,4.18,7.4,9.05,9.79,14.59,2.39,5.55,3.58,11.52,3.58,17.92Zm-9.6,0c0-4.95-.94-9.64-2.82-14.08-1.88-4.44-4.46-8.3-7.75-11.59-3.29-3.28-7.13-5.89-11.52-7.81-4.4-1.92-9.11-2.88-14.15-2.88h-.67c-.62,0-1.12.5-1.12,1.12v70.22c0,.62.5,1.12,1.12,1.12h.67c4.95,0,9.64-.94,14.08-2.82,4.44-1.88,8.28-4.46,11.52-7.74,3.24-3.28,5.83-7.11,7.75-11.46,1.92-4.35,2.88-9.05,2.88-14.08Zm-24.2,53.9c-.51,0-.85.04-1.02.13v9.25c0,.62-.5,1.12-1.12,1.12h-1.73c-.62,0-1.12-.5-1.12-1.12v-8.3c0-.55.4-1.01.94-1.1l3.67-.61.38.64Zm-.96-29.51c-.04.43-.33.8-.73.95-.45.16-.89.32-1.32.46-.12.04-.24.08-.36.12-.73.26-1.49-.28-1.49-1.05v-49.83c0-.78.77-1.31,1.51-1.05.93.33,1.86.7,2.78,1.11,1.17.53,2.33,1.08,3.47,1.64.42.21.66.65.62,1.12l-4.47,46.53Zm47.43-24.39c0,7.94-1.62,15.47-4.86,22.6-3.11,6.84-7.53,12.76-13.23,17.75-.41.36-.51.96-.22,1.43l12.34,19.74c.33.53.17,1.23-.37,1.55l-11.82,7.19c-.18.11-.38.16-.58.16h-3.53l11.97-7.35c.53-.33.69-1.02.36-1.55l-12.34-19.74c-.29-.47-.19-1.07.22-1.43,5.71-4.99,10.14-10.91,13.3-17.75,3.28-7.12,4.93-14.66,4.93-22.6,0-4.69-.58-9.26-1.73-13.7-1.15-4.44-2.79-8.62-4.93-12.55-2.13-3.92-4.78-7.57-7.94-10.95-2.34-2.49-4.88-4.74-7.64-6.74-.88-.64-.45-2.03.64-2.03h0c.22,0,.43.06.62.18,3.81,2.44,7.24,5.3,10.28,8.59,3.11,3.37,5.74,7.04,7.87,11.01,2.13,3.97,3.78,8.17,4.93,12.61,1.15,4.44,1.73,8.96,1.73,13.57Z"/>
  </g>
  <path class="cls-2" d="m67.52,13.93v1.8h861.25v-1.8c0-2.11-.48-4.11-1.33-5.9H68.84c-.84,1.79-1.33,3.79-1.33,5.9Z"/>
  <path class="cls-2" d="m67.52,144.34v2.24c0,1.94.4,3.78,1.11,5.46h858.82c.84-1.84,1.32-3.87,1.32-6.02v-1.68H67.52Z"/>
</svg>