<?xml version="1.0" encoding="UTF-8"?>
<svg id="Capa_14" data-name="Capa 14" xmlns="http://www.w3.org/2000/svg" viewBox="0 0 1236.67 201.25">
  <defs>
    <style>
      .cls-1 {
        fill: #e8790a;
      }

      .cls-2 {
        fill: #f2c394;
      }

      .cls-3 {
        fill: #a52c14;
      }

      .cls-4 {
        fill: #f28e1f;
      }
    </style>
  </defs>
  <g>
    <path class="cls-4" d="m1025.79,201.25h199.91c8.68,0,13.92-6.87,9.2-12.08l-52.44-57.95c-2.34-2.59-2.34-5.91,0-8.5l52.44-57.95c4.71-5.21-.52-12.08-9.2-12.08h-199.33c-6.28,0-11.27,3.76-10.94,8.24l10.36,140.33Z"/>
    <rect class="cls-2" x="1018.16" y="57.36" width="217.72" height="7.13"/>
    <rect class="cls-2" x="1025.37" y="189.37" width="210.51" height="7.13"/>
    <path class="cls-1" d="m1137.47,144.86l-102.74,54.6c-8.09,4.3-19.94.4-19.94-6.57V61.49l110.22-44.79,12.47,128.16Z"/>
  </g>
  <g>
    <path class="cls-4" d="m210.89,201.25H10.98c-8.68,0-13.92-6.87-9.2-12.08l52.44-57.95c2.34-2.59,2.34-5.91,0-8.5L1.77,64.76c-4.71-5.21.52-12.08,9.2-12.08h199.33c6.28,0,11.27,3.76,10.94,8.24l-10.36,140.33Z"/>
    <rect class="cls-2" x=".8" y="57.36" width="217.72" height="7.13" transform="translate(219.31 121.85) rotate(-180)"/>
    <rect class="cls-2" x=".8" y="189.37" width="210.51" height="7.13" transform="translate(212.1 385.87) rotate(-180)"/>
    <path class="cls-1" d="m99.2,144.86l102.74,54.6c8.09,4.3,19.94.4,19.94-6.57V61.49S111.67,16.69,111.67,16.69l-12.47,128.16Z"/>
  </g>
  <g>
    <path class="cls-4" d="m107.24,0h1023.09c8.18,0,14.82,6.64,14.82,14.82v118.34c0,8.51-6.91,15.41-15.41,15.41H107.24c-8.18,0-14.82-6.64-14.82-14.82V14.82c0-8.18,6.64-14.82,14.82-14.82Z"/>
    <path class="cls-2" d="m92.43,14.82v.34h1052.72v-.34c0-2.45-.61-4.76-1.66-6.79H94.08c-1.05,2.04-1.66,4.34-1.66,6.79Z"/>
    <path class="cls-2" d="m95.16,142.31h1046.96c1.52-2.05,2.54-4.48,2.88-7.13H92.5c.25,2.64,1.2,5.08,2.66,7.13Z"/>
  </g>
  <g>
    <path class="cls-3" d="m163.48,107.21c.33.51.19,1.2-.33,1.52-2.98,1.86-6.1,3.27-9.36,4.22-3.61,1.05-7.36,1.58-11.27,1.58-5.44,0-10.54-1.02-15.3-3.06-4.76-2.04-8.92-4.83-12.46-8.38-3.55-3.55-6.34-7.7-8.38-12.46-2.04-4.76-3.06-9.86-3.06-15.3s1.01-10.56,3.02-15.35c2.01-4.79,4.79-8.96,8.34-12.51,3.55-3.55,7.71-6.36,12.5-8.43,4.79-2.07,9.91-3.11,15.35-3.11,7.44,0,14.32,1.96,20.63,5.88.51.32.66,1.01.34,1.52l-2.46,3.83c-.32.51-.99.64-1.5.33-5.09-3.16-10.76-4.73-17-4.73-4.55,0-8.8.84-12.73,2.53-3.93,1.69-7.38,4.01-10.34,6.97-2.96,2.96-5.28,6.43-6.96,10.39-1.69,3.97-2.53,8.2-2.53,12.7s.86,8.74,2.57,12.7c1.71,3.97,4.04,7.42,6.96,10.35,2.93,2.93,6.37,5.24,10.34,6.93,3.96,1.69,8.19,2.53,12.69,2.53,6.15,0,11.82-1.58,17.01-4.75.51-.31,1.17-.17,1.49.33l2.45,3.76Zm-17.5-57.18c-3.55.18-6.86,1.01-9.94,2.48-3.08,1.48-5.74,3.4-7.98,5.77-2.25,2.37-4.02,5.13-5.32,8.3-1.3,3.16-1.95,6.52-1.95,10.07s.56,6.62,1.69,9.58c1.12,2.96,2.71,5.56,4.75,7.81,2.04,2.25,4.48,4.05,7.32,5.41,2.84,1.36,6,2.13,9.49,2.31h-1.42c-3.67,0-7.11-.69-10.33-2.08-3.22-1.39-6.03-3.28-8.43-5.68s-4.29-5.19-5.68-8.38c-1.39-3.19-2.08-6.62-2.08-10.29s.69-7.13,2.08-10.38c1.39-3.25,3.28-6.08,5.68-8.47s5.2-4.29,8.43-5.68c3.22-1.39,6.67-2.08,10.33-2.08.18,0,.43.06.75.18.32.12.66.25,1.02.4.35.15.68.3.98.44.3.15.5.25.62.31Zm18.37,2.42s-.01,0-.02-.01c-.55-.32-.73-1.03-.38-1.56l4.2-6.3c.34-.51,1.04-.64,1.54-.28l.08.06c.48.34.6,1.01.27,1.5l-4.21,6.28c-.33.49-.98.62-1.49.32Zm5.52,56.04l-5.92-8.92c-.35-.53-.17-1.24.38-1.56,0,0,.01,0,.02-.01.51-.3,1.16-.18,1.49.32l5.96,8.9c.34.51.2,1.2-.32,1.53l-.11.07c-.5.32-1.17.18-1.5-.32Z"/>
    <path class="cls-3" d="m218.47,68.83c0,5.5-1.33,10.62-3.99,15.35-2.45,4.35-5.72,7.95-9.81,10.8-.61.42-.79,1.23-.41,1.86l8.09,13.22c.4.65.19,1.5-.46,1.89l-3.33,2.03c-.65.39-1.49.19-1.89-.46l-8.55-13.94c-.33-.54-.99-.79-1.59-.59-1.07.35-2.34.69-3.82,1.02-1.98.44-3.8.67-5.46.67-.3,0-.59-.01-.89-.04-.3-.03-.59-.07-.89-.13v11.58c0,.76-.62,1.38-1.38,1.38h-3.9c-.76,0-1.38-.62-1.38-1.38V38.36c0-.76.62-1.38,1.38-1.38h6.52c4.44,0,8.58.83,12.42,2.48,3.84,1.66,7.2,3.93,10.07,6.83,2.87,2.9,5.13,6.27,6.79,10.11,1.65,3.85,2.48,7.98,2.48,12.42Zm-6.65,0c0-3.43-.65-6.68-1.95-9.76-1.3-3.07-3.09-5.75-5.37-8.03-2.28-2.28-4.94-4.08-7.98-5.41-3.05-1.33-6.31-2-9.8-2h-1.24v50.21h1.24c3.43,0,6.68-.65,9.76-1.95,3.07-1.3,5.74-3.09,7.98-5.37,2.25-2.28,4.04-4.92,5.37-7.94,1.33-3.02,2-6.27,2-9.76Zm-16.77,37.35c-.35,0-.59.03-.71.09v5.81c0,.76-.62,1.38-1.38,1.38h0c-.76,0-1.38-.62-1.38-1.38v-4.65c0-.67.49-1.25,1.15-1.36l2.04-.34.27.44Zm-.63-20.83c-.05.54-.41.99-.92,1.17-.18.06-.36.12-.53.18-.44.15-.87.31-1.29.49v-34.8c0-.96.96-1.64,1.86-1.29.37.15.75.3,1.12.47.68.31,1.36.63,2.03.95.52.25.82.8.76,1.37l-3.02,31.45Zm32.83-16.52c0,5.5-1.12,10.72-3.37,15.66-2.09,4.59-5.02,8.57-8.79,11.96-.5.45-.62,1.19-.26,1.76l7.96,12.73c.41.65.2,1.51-.45,1.9l-7.53,4.58c-.22.13-.46.2-.71.2h-2.28l7.78-4.78c.65-.4.85-1.25.45-1.9l-7.96-12.74c-.36-.57-.24-1.31.26-1.76,3.77-3.39,6.72-7.37,8.83-11.96,2.28-4.94,3.42-10.16,3.42-15.66,0-3.25-.4-6.42-1.2-9.49-.8-3.07-1.94-5.97-3.42-8.69-1.48-2.72-3.31-5.25-5.5-7.59-2.19-2.34-4.64-4.36-7.36-6.08h2.34c.27,0,.54.08.76.22,2.58,1.67,4.9,3.62,6.97,5.85,2.16,2.34,3.98,4.88,5.46,7.63,1.48,2.75,2.62,5.66,3.42,8.74.8,3.08,1.2,6.21,1.2,9.4Z"/>
    <path class="cls-3" d="m233.64,112.13V38.31c0-.73.6-1.33,1.33-1.33h28.03c.73,0,1.33.6,1.33,1.33v3.99c0,.73-.6,1.33-1.33,1.33h-21.2c-.73,0-1.33.6-1.33,1.33v37.88c0,.73.6,1.33,1.33,1.33h21.38c.73,0,1.33.6,1.33,1.33v3.99c0,.73-.6,1.33-1.33,1.33h-21.38c-.73,0-1.33.6-1.33,1.33v13.31c0,.73.6,1.33,1.33,1.33h23.87c.73,0,1.33.6,1.33,1.33v3.99c0,.73-.6,1.33-1.33,1.33h-30.7c-.73,0-1.33-.6-1.33-1.33Zm22.13-59.89l-6.77,18.7c-.51,1.4-2.58,1.04-2.58-.45v-19.57c0-.73.6-1.33,1.33-1.33h20.85c.73,0,1.33-.6,1.33-1.33v-9.94c0-.73.6-1.33,1.33-1.33h0c.73,0,1.33.6,1.33,1.33v11.71c0,.73-.6,1.33-1.33,1.33h-14.24c-.56,0-1.06.35-1.25.88Zm-6.6,46.05v1.06c0,.73-.6,1.33-1.33,1.33h-.09c-.73,0-1.33-.6-1.33-1.33v-2.84c0-.73.6-1.33,1.33-1.33h20.85c.73,0,1.33-.6,1.33-1.33v-14.46c0-.73.6-1.33,1.33-1.33h0c.73,0,1.33.6,1.33,1.33v16.23c0,.73-.6,1.33-1.33,1.33h-20.76c-.73,0-1.33.6-1.33,1.33Zm23.24,13.93v-10.2c0-.73.6-1.33,1.33-1.33h.09c.73,0,1.33.6,1.33,1.33v10.2c0,.73-.6,1.33-1.33,1.33h-.09c-.73,0-1.33-.6-1.33-1.33Z"/>
    <path class="cls-3" d="m333.23,112.87l-2.41-6.64c-.13-.35-.46-.58-.83-.58h-37.79c-.37,0-.71.23-.83.58l-2.41,6.64c-.13.35-.46.58-.83.58h-5.29c-.62,0-1.05-.61-.83-1.19l28.27-76.83c.29-.77,1.38-.77,1.67,0l28.18,76.83c.21.58-.22,1.19-.83,1.19h-5.21c-.37,0-.71-.23-.83-.58Zm-22.98-57.83l-15.76,42.76c-.21.58.22,1.19.83,1.19h31.44c.62,0,1.05-.61.83-1.19l-15.68-42.76c-.28-.77-1.38-.78-1.67,0Zm-13.07,58.51h-.75c-.63,0-1.06-.63-.82-1.22h0c.13-.34.46-.56.82-.56h.75c.63,0,1.06.63.82,1.22h0c-.13.34-.46.56-.82.56Zm7.66-20.67h-.9c-.62,0-1.05-.62-.83-1.2l7.15-19.26c.29-.77,1.38-.77,1.66,0l2.21,6.03c.1.26.06.55-.09.78l-8.46,13.24c-.16.26-.44.41-.75.41Zm41.97,20.1l-28.08-74.7c-.22-.58.21-1.2.83-1.2h.85c.37,0,.7.23.83.58l27.99,74.7c.22.58-.21,1.2-.83,1.2h-.77c-.37,0-.7-.23-.83-.57Z"/>
    <path class="cls-3" d="m407.36,107.21c.33.51.19,1.2-.33,1.52-2.98,1.86-6.1,3.27-9.36,4.22-3.61,1.05-7.36,1.58-11.27,1.58-5.44,0-10.54-1.02-15.3-3.06-4.76-2.04-8.92-4.83-12.46-8.38-3.55-3.55-6.34-7.7-8.38-12.46-2.04-4.76-3.06-9.86-3.06-15.3s1.01-10.56,3.02-15.35c2.01-4.79,4.79-8.96,8.34-12.51,3.55-3.55,7.71-6.36,12.5-8.43,4.79-2.07,9.91-3.11,15.35-3.11,7.44,0,14.32,1.96,20.63,5.88.51.32.66,1.01.34,1.52l-2.46,3.83c-.32.51-.99.64-1.5.33-5.09-3.16-10.76-4.73-17-4.73-4.55,0-8.8.84-12.73,2.53-3.93,1.69-7.38,4.01-10.34,6.97-2.96,2.96-5.28,6.43-6.96,10.39-1.69,3.97-2.53,8.2-2.53,12.7s.86,8.74,2.57,12.7c1.71,3.97,4.04,7.42,6.96,10.35,2.93,2.93,6.37,5.24,10.34,6.93,3.96,1.69,8.19,2.53,12.69,2.53,6.15,0,11.82-1.58,17.01-4.75.51-.31,1.17-.17,1.49.33l2.45,3.76Zm-17.5-57.18c-3.55.18-6.86,1.01-9.94,2.48-3.08,1.48-5.74,3.4-7.98,5.77-2.25,2.37-4.02,5.13-5.32,8.3-1.3,3.16-1.95,6.52-1.95,10.07s.56,6.62,1.69,9.58c1.12,2.96,2.71,5.56,4.75,7.81,2.04,2.25,4.48,4.05,7.32,5.41,2.84,1.36,6,2.13,9.49,2.31h-1.42c-3.67,0-7.11-.69-10.33-2.08-3.22-1.39-6.03-3.28-8.43-5.68s-4.29-5.19-5.68-8.38c-1.39-3.19-2.08-6.62-2.08-10.29s.69-7.13,2.08-10.38c1.39-3.25,3.28-6.08,5.68-8.47,2.4-2.4,5.2-4.29,8.43-5.68,3.22-1.39,6.67-2.08,10.33-2.08.18,0,.43.06.75.18.32.12.66.25,1.02.4.35.15.68.3.98.44.3.15.5.25.62.31Zm18.37,2.42s-.01,0-.02-.01c-.55-.32-.73-1.03-.38-1.56l4.2-6.3c.34-.51,1.04-.64,1.54-.28l.08.06c.48.34.6,1.01.27,1.5l-4.21,6.28c-.33.49-.98.62-1.49.32Zm5.52,56.04l-5.92-8.92c-.35-.53-.17-1.24.38-1.56,0,0,.01,0,.02-.01.51-.3,1.16-.18,1.49.32l5.96,8.9c.34.51.2,1.2-.32,1.53l-.11.07c-.5.32-1.17.18-1.5-.32Z"/>
    <path class="cls-3" d="m422.69,112.06V38.29c0-.77.63-1.4,1.4-1.4h3.86c.77,0,1.4.63,1.4,1.4v73.76c0,.77-.63,1.4-1.4,1.4h-3.86c-.77,0-1.4-.63-1.4-1.4Zm14.17,1.4h0c-.77,0-1.4-.63-1.4-1.4V38.29c0-.77.63-1.4,1.4-1.4h2.56c.79,0,1.43.66,1.4,1.45l-2.56,73.76c-.03.75-.64,1.35-1.4,1.35Z"/>
    <path class="cls-3" d="m525.77,75.31c0,5.44-1.04,10.54-3.11,15.3-2.07,4.76-4.89,8.92-8.47,12.46-3.58,3.55-7.76,6.34-12.55,8.38-4.79,2.04-9.88,3.06-15.26,3.06s-10.54-1.02-15.3-3.06c-4.76-2.04-8.9-4.83-12.42-8.38-3.52-3.55-6.3-7.7-8.34-12.46-2.04-4.76-3.06-9.86-3.06-15.3s1.02-10.56,3.06-15.35c2.04-4.79,4.82-8.96,8.34-12.51,3.52-3.55,7.66-6.36,12.42-8.43,4.76-2.07,9.86-3.11,15.3-3.11s10.56,1.04,15.35,3.11c4.79,2.07,8.96,4.88,12.51,8.43s6.36,7.72,8.43,12.51c2.07,4.79,3.11,9.91,3.11,15.35Zm-6.83.04c0-4.5-.84-8.74-2.53-12.7-1.69-3.97-4.01-7.43-6.96-10.39-2.96-2.96-6.42-5.29-10.38-6.97-3.96-1.69-8.19-2.53-12.69-2.53s-8.8.86-12.73,2.58c-3.93,1.72-7.36,4.04-10.29,6.97-2.93,2.93-5.23,6.38-6.92,10.35-1.69,3.97-2.53,8.2-2.53,12.7s.84,8.74,2.53,12.7c1.69,3.97,3.99,7.42,6.92,10.35,2.93,2.93,6.37,5.24,10.34,6.93,3.96,1.69,8.19,2.53,12.69,2.53s8.72-.84,12.69-2.53c3.96-1.69,7.41-4,10.34-6.93,2.93-2.93,5.25-6.37,6.96-10.31,1.72-3.94,2.57-8.19,2.57-12.75Zm-29.19-25.33c-3.54.18-6.82,1.01-9.86,2.48-3.04,1.48-5.67,3.42-7.91,5.81-2.24,2.4-4.01,5.16-5.3,8.29-1.3,3.14-1.94,6.48-1.94,10.03s.54,6.62,1.63,9.58c1.09,2.96,2.65,5.56,4.68,7.81,2.03,2.25,4.46,4.05,7.29,5.41,2.83,1.36,5.98,2.13,9.46,2.31h-1.42c-3.67,0-7.1-.69-10.29-2.08-3.19-1.39-5.99-3.28-8.38-5.68-2.4-2.4-4.27-5.19-5.63-8.38-1.36-3.19-2.04-6.62-2.04-10.29s.68-7.11,2.04-10.34c1.36-3.22,3.22-6.05,5.59-8.47,2.36-2.42,5.16-4.33,8.38-5.72,3.22-1.39,6.67-2.08,10.34-2.08.18,0,.43.06.75.18.32.12.67.25,1.02.4.35.15.68.3.98.44.3.15.5.25.62.31Zm44.71,25.29c0,3.96-.49,7.79-1.46,11.49-.98,3.7-2.37,7.17-4.17,10.43-1.8,3.25-4.02,6.27-6.65,9.05-2,2.11-4.2,4.02-6.59,5.72-1.44,1.02-3.17,1.55-4.93,1.55h-.06c6.68-4.26,11.87-9.72,15.57-16.37,3.7-6.65,5.54-13.95,5.54-21.87,0-3.9-.47-7.7-1.42-11.4-.95-3.7-2.34-7.19-4.17-10.47-1.83-3.28-4.05-6.31-6.65-9.09-2.6-2.78-5.53-5.24-8.78-7.36h0c1.8,0,3.56.55,5.01,1.61,2.38,1.73,4.55,3.65,6.53,5.76,2.6,2.78,4.82,5.81,6.65,9.09,1.83,3.28,3.22,6.76,4.17,10.43.95,3.67,1.42,7.48,1.42,11.45Z"/>
    <path class="cls-3" d="m547.51,55.39v57.07c0,.55-.44.99-.99.99h-4.67c-.55,0-.99-.44-.99-.99V37.03c0-.94,1.17-1.35,1.76-.63l49.7,61.13c.59.73,1.76.31,1.76-.63v-57.07c0-.55.44-.99.99-.99h4.67c.55,0,.99.44.99.99v75.43c0,.94-1.17,1.35-1.76.63l-49.7-61.13c-.59-.73-1.76-.31-1.76.63Zm6.45-16.55h0c.3,0,.58.13.77.36l33.28,40.35c.15.18.23.4.23.63v.07c0,.93-1.17,1.35-1.76.63l-33.28-40.42c-.53-.65-.07-1.62.77-1.62Zm1.07,74.61h-.68c-.55,0-.99-.44-.99-.99v-40.48c0-.94,1.17-1.35,1.76-.63l4.1,5.05c.16.2.24.46.22.72l-3.42,35.42c-.05.51-.48.9-.99.9Zm51.47-.9V39.84c0-.55.44-.99.99-.99h.67c.55,0,.99.44.99.99v72.71c0,.55-.44.99-.99.99h-.67c-.55,0-.99-.44-.99-.99Z"/>
    <path class="cls-3" d="m672.51,75.22c0,4.79-.83,9.4-2.48,13.84-1.65,4.44-3.97,8.38-6.95,11.84-2.98,3.46-6.52,6.3-10.62,8.52-4.1,2.22-8.57,3.5-13.41,3.86l-2.09.16c-.78.06-1.45-.56-1.45-1.34V38.17c0-.78.67-1.4,1.45-1.34l2.09.16c4.9.35,9.4,1.66,13.5,3.9,4.1,2.25,7.63,5.1,10.58,8.56,2.95,3.46,5.25,7.42,6.9,11.89,1.65,4.47,2.48,9.09,2.48,13.88Zm-6.65,0c0-3.55-.58-7.01-1.73-10.38-1.15-3.37-2.77-6.46-4.83-9.27-2.07-2.81-4.56-5.2-7.45-7.19-2.42-1.66-5.07-2.89-7.95-3.7-.86-.24-1.72.4-1.72,1.3v58.3c0,.9.86,1.54,1.72,1.3,2.88-.81,5.52-2.04,7.95-3.7,2.9-1.98,5.38-4.35,7.45-7.1,2.07-2.75,3.68-5.81,4.83-9.18,1.15-3.37,1.73-6.83,1.73-10.38Zm-15.4,20.17h0c-.88.68-2.16.05-2.16-1.07v-38.58c0-1.09,1.24-1.74,2.12-1.1.02.01.04.03.05.04.5.37,1,.74,1.51,1.13.36.27.56.69.54,1.14l-1.54,37.43c-.02.4-.21.77-.53,1.01Zm30.84-20.17c0,3.9-.49,7.7-1.46,11.4-.98,3.7-2.4,7.22-4.26,10.56-1.86,3.34-4.13,6.4-6.79,9.18-2.57,2.69-5.45,5.01-8.63,6.98-.22.13-.47.2-.72.2h-2.27c3.31-2.01,6.3-4.41,8.96-7.19,2.66-2.78,4.92-5.84,6.79-9.18,1.86-3.34,3.28-6.86,4.26-10.56.98-3.7,1.46-7.5,1.46-11.4s-.49-7.61-1.46-11.31c-.98-3.7-2.38-7.2-4.21-10.51-1.83-3.31-4.05-6.36-6.65-9.14-2.6-2.78-5.53-5.2-8.78-7.27h2.34c.26,0,.52.08.75.22,3.11,2.02,5.91,4.37,8.4,7.06,2.57,2.78,4.78,5.83,6.61,9.14,1.83,3.31,3.24,6.82,4.21,10.51.98,3.7,1.46,7.47,1.46,11.31Z"/>
    <path class="cls-3" d="m687.68,112.13V38.31c0-.73.6-1.33,1.33-1.33h28.03c.73,0,1.33.6,1.33,1.33v3.99c0,.73-.6,1.33-1.33,1.33h-21.2c-.73,0-1.33.6-1.33,1.33v37.88c0,.73.6,1.33,1.33,1.33h21.38c.73,0,1.33.6,1.33,1.33v3.99c0,.73-.6,1.33-1.33,1.33h-21.38c-.73,0-1.33.6-1.33,1.33v13.31c0,.73.6,1.33,1.33,1.33h23.87c.73,0,1.33.6,1.33,1.33v3.99c0,.73-.6,1.33-1.33,1.33h-30.7c-.73,0-1.33-.6-1.33-1.33Zm22.13-59.89l-6.77,18.7c-.51,1.4-2.58,1.04-2.58-.45v-19.57c0-.73.6-1.33,1.33-1.33h20.85c.73,0,1.33-.6,1.33-1.33v-9.94c0-.73.6-1.33,1.33-1.33h0c.73,0,1.33.6,1.33,1.33v11.71c0,.73-.6,1.33-1.33,1.33h-14.24c-.56,0-1.06.35-1.25.88Zm-6.6,46.05v1.06c0,.73-.6,1.33-1.33,1.33h-.09c-.73,0-1.33-.6-1.33-1.33v-2.84c0-.73.6-1.33,1.33-1.33h20.85c.73,0,1.33-.6,1.33-1.33v-14.46c0-.73.6-1.33,1.33-1.33h0c.73,0,1.33.6,1.33,1.33v16.23c0,.73-.6,1.33-1.33,1.33h-20.76c-.73,0-1.33.6-1.33,1.33Zm23.24,13.93v-10.2c0-.73.6-1.33,1.33-1.33h.09c.73,0,1.33.6,1.33,1.33v10.2c0,.73-.6,1.33-1.33,1.33h-.09c-.73,0-1.33-.6-1.33-1.33Z"/>
    <path class="cls-3" d="m795.2,68.83c0,4.44-.83,8.58-2.48,12.42-1.66,3.85-3.93,7.2-6.83,10.07-2.9,2.87-6.27,5.13-10.11,6.79-3.85,1.66-7.98,2.48-12.42,2.48h-.58c-.21,0-.4-.03-.58-.09v11.58c0,.76-.62,1.38-1.38,1.38h-3.9c-.76,0-1.38-.62-1.38-1.38V38.36c0-.76.62-1.38,1.38-1.38h6.43c4.44,0,8.57.83,12.42,2.48,3.84,1.66,7.22,3.93,10.11,6.83,2.9,2.9,5.17,6.27,6.83,10.11,1.65,3.85,2.48,7.98,2.48,12.42Zm-6.65.09c0-3.73-.68-7.13-2.04-10.2-1.36-3.07-3.24-5.72-5.63-7.94s-5.19-3.95-8.38-5.19c-2.76-1.07-5.67-1.68-8.74-1.83-.79-.04-1.47.58-1.47,1.37v48.8h1.06c3.43,0,6.68-.65,9.76-1.95,3.07-1.3,5.75-3.07,8.03-5.32,2.28-2.25,4.08-4.89,5.41-7.94,1.33-3.05,2-6.31,2-9.8Zm15.35-.09c0,4.73-.83,9.24-2.48,13.53-1.66,4.29-3.95,8.1-6.88,11.44-2.93,3.34-6.39,6.11-10.38,8.3-3.66,2.01-7.63,3.34-11.9,4-.68.1-1.18.67-1.18,1.36v4.62c0,.76-.62,1.38-1.38,1.38h0c-.76,0-1.38-.62-1.38-1.38v-4.62c0-.68.51-1.25,1.18-1.36,4.28-.66,8.25-2,11.91-4,3.99-2.19,7.45-4.95,10.38-8.3,2.93-3.34,5.22-7.16,6.88-11.44,1.65-4.29,2.48-8.8,2.48-13.53,0-3.25-.39-6.42-1.15-9.49-.77-3.07-1.91-5.97-3.42-8.69-1.51-2.72-3.34-5.25-5.5-7.59-2.16-2.34-4.6-4.36-7.32-6.08h2.34c.27,0,.54.08.76.22,2.58,1.67,4.9,3.62,6.97,5.85,2.16,2.34,3.99,4.87,5.5,7.59,1.51,2.72,2.65,5.62,3.42,8.69.77,3.08,1.15,6.24,1.15,9.49Zm-32.65,16.52c-.05.54-.41.99-.92,1.17-.18.06-.36.12-.53.18-.44.15-.87.31-1.29.49v-34.8c0-.96.96-1.64,1.86-1.29.37.15.75.3,1.12.47.68.31,1.36.63,2.03.95.52.25.82.8.76,1.37l-3.02,31.45Z"/>
    <path class="cls-3" d="m851.32,112.87l-2.41-6.64c-.13-.35-.46-.58-.83-.58h-37.79c-.37,0-.71.23-.83.58l-2.41,6.64c-.13.35-.46.58-.83.58h-5.29c-.62,0-1.05-.61-.83-1.19l28.27-76.83c.29-.77,1.38-.77,1.67,0l28.18,76.83c.21.58-.22,1.19-.83,1.19h-5.21c-.37,0-.71-.23-.83-.58Zm-22.98-57.83l-15.76,42.76c-.21.58.22,1.19.83,1.19h31.44c.62,0,1.05-.61.83-1.19l-15.68-42.76c-.28-.77-1.38-.78-1.67,0Zm-13.07,58.51h-.75c-.63,0-1.06-.63-.82-1.22h0c.13-.34.46-.56.82-.56h.75c.63,0,1.06.63.82,1.22h0c-.13.34-.46.56-.82.56Zm7.66-20.67h-.9c-.62,0-1.05-.62-.83-1.2l7.15-19.26c.29-.77,1.38-.77,1.66,0l2.21,6.03c.1.26.06.55-.09.78l-8.46,13.24c-.16.26-.44.41-.75.41Zm41.97,20.1l-28.08-74.7c-.22-.58.21-1.2.83-1.2h.85c.37,0,.7.23.83.58l27.99,74.7c.22.58-.21,1.2-.83,1.2h-.77c-.37,0-.7-.23-.83-.57Z"/>
    <path class="cls-3" d="m913.81,68.83c0,5.5-1.33,10.62-3.99,15.35-2.45,4.35-5.72,7.95-9.81,10.8-.61.42-.79,1.23-.41,1.86l8.09,13.22c.4.65.19,1.5-.46,1.89l-3.33,2.03c-.65.39-1.49.19-1.89-.46l-8.55-13.94c-.33-.54-.99-.79-1.59-.59-1.07.35-2.34.69-3.82,1.02-1.98.44-3.8.67-5.46.67-.3,0-.59-.01-.89-.04-.3-.03-.59-.07-.89-.13v11.58c0,.76-.62,1.37-1.37,1.37h-3.9c-.76,0-1.37-.62-1.37-1.37V38.36c0-.76.62-1.37,1.37-1.37h6.52c4.44,0,8.57.83,12.42,2.48,3.84,1.66,7.2,3.93,10.07,6.83,2.87,2.9,5.13,6.27,6.79,10.11,1.65,3.85,2.48,7.98,2.48,12.42Zm-6.65,0c0-3.43-.65-6.68-1.95-9.76-1.3-3.07-3.09-5.75-5.37-8.03-2.28-2.28-4.94-4.08-7.98-5.41s-6.31-2-9.8-2h-1.24v50.21h1.24c3.43,0,6.68-.65,9.76-1.95,3.07-1.3,5.74-3.09,7.98-5.37,2.25-2.28,4.04-4.92,5.37-7.94,1.33-3.02,2-6.27,2-9.76Zm-16.77,37.35c-.35,0-.59.03-.71.09v5.81c0,.76-.62,1.37-1.37,1.37h0c-.76,0-1.37-.62-1.37-1.37v-4.65c0-.67.49-1.25,1.15-1.36l2.04-.34.27.44Zm-.63-20.83c-.05.54-.41.99-.92,1.17-.18.06-.36.12-.53.18-.44.15-.87.31-1.29.49v-34.8c0-.96.96-1.64,1.86-1.29.37.15.75.3,1.12.47.68.31,1.36.63,2.03.95.52.25.82.8.76,1.37l-3.02,31.45Zm32.83-16.52c0,5.5-1.13,10.72-3.37,15.66-2.09,4.59-5.02,8.57-8.79,11.96-.5.45-.62,1.19-.26,1.76l7.96,12.73c.41.65.2,1.51-.45,1.9l-7.53,4.58c-.22.13-.46.2-.71.2h-2.28l7.78-4.78c.65-.4.85-1.25.45-1.9l-7.96-12.74c-.36-.57-.24-1.31.26-1.76,3.77-3.39,6.72-7.37,8.83-11.96,2.28-4.94,3.42-10.16,3.42-15.66,0-3.25-.4-6.42-1.2-9.49-.8-3.07-1.94-5.97-3.42-8.69-1.48-2.72-3.31-5.25-5.5-7.59-2.19-2.34-4.64-4.36-7.36-6.08h2.34c.27,0,.54.08.76.22,2.58,1.67,4.9,3.62,6.97,5.85,2.16,2.34,3.98,4.88,5.46,7.63,1.48,2.75,2.62,5.66,3.42,8.74.8,3.08,1.2,6.21,1.2,9.4Z"/>
    <path class="cls-3" d="m955.06,45.01v67.07c0,.76-.62,1.37-1.37,1.37h-3.9c-.76,0-1.37-.62-1.37-1.37V45.01c0-.76-.62-1.37-1.37-1.37h-19.34c-.76,0-1.37-.62-1.37-1.37v-3.9c0-.76.62-1.37,1.37-1.37h48c.76,0,1.37.62,1.37,1.37v3.9c0,.76-.62,1.37-1.37,1.37h-19.25c-.76,0-1.37.62-1.37,1.37Zm-28.74,6.12h0c0-.76.62-1.38,1.37-1.38h13.04c.76,0,1.37.62,1.37,1.37h0c0,.76-.62,1.38-1.37,1.38h-13.04c-.76,0-1.37-.62-1.37-1.37Zm37.53,6.49v54.46c0,.76-.62,1.37-1.37,1.37h0c-.76,0-1.37-.62-1.37-1.37v-60.95c0-.76.62-1.37,1.37-1.37h9.62c1.45,0,1.91,1.96.61,2.61l-8.1,4.02c-.47.23-.76.71-.76,1.23Zm18.63-9.24v-10.03c0-.76.62-1.37,1.37-1.37h0c.76,0,1.37.62,1.37,1.37v10.03c0,.76-.62,1.37-1.37,1.37h0c-.76,0-1.37-.62-1.37-1.37Z"/>
    <path class="cls-3" d="m991.61,112.06V38.3c0-.77.63-1.4,1.4-1.4h3.85c.77,0,1.4.63,1.4,1.4v73.76c0,.77-.63,1.4-1.4,1.4h-3.85c-.77,0-1.4-.63-1.4-1.4Zm14.17,1.4h0c-.77,0-1.4-.63-1.4-1.4V38.3c0-.77.63-1.4,1.4-1.4h2.56c.79,0,1.43.66,1.4,1.45l-2.56,73.76c-.03.75-.64,1.35-1.4,1.35Z"/>
    <path class="cls-3" d="m1053.18,75.22c0,4.79-.83,9.4-2.48,13.84-1.65,4.44-3.97,8.38-6.95,11.84-2.98,3.46-6.52,6.3-10.62,8.52-4.1,2.22-8.57,3.5-13.41,3.86l-2.09.16c-.78.06-1.45-.56-1.45-1.34V38.17c0-.78.67-1.4,1.45-1.34l2.09.16c4.9.35,9.4,1.66,13.5,3.9,4.1,2.25,7.63,5.1,10.58,8.56,2.95,3.46,5.25,7.42,6.9,11.89,1.65,4.47,2.48,9.09,2.48,13.88Zm-6.65,0c0-3.55-.58-7.01-1.73-10.38-1.15-3.37-2.76-6.46-4.83-9.27-2.07-2.81-4.56-5.2-7.45-7.19-2.42-1.66-5.07-2.89-7.95-3.7-.86-.24-1.72.4-1.72,1.3v58.3c0,.9.86,1.54,1.72,1.3,2.88-.81,5.52-2.04,7.95-3.7,2.9-1.98,5.38-4.35,7.45-7.1,2.07-2.75,3.68-5.81,4.83-9.18,1.15-3.37,1.73-6.83,1.73-10.38Zm-15.4,20.17h0c-.88.68-2.16.05-2.16-1.07v-38.58c0-1.09,1.24-1.74,2.12-1.1.02.01.04.03.05.04.5.37,1,.74,1.52,1.13.36.27.56.69.54,1.14l-1.54,37.43c-.02.4-.21.77-.53,1.01Zm30.84-20.17c0,3.9-.49,7.7-1.46,11.4-.98,3.7-2.4,7.22-4.26,10.56-1.86,3.34-4.12,6.4-6.79,9.18-2.57,2.69-5.45,5.01-8.63,6.98-.22.13-.47.2-.72.2h-2.27c3.31-2.01,6.3-4.41,8.96-7.19,2.66-2.78,4.92-5.84,6.79-9.18,1.86-3.34,3.28-6.86,4.26-10.56.98-3.7,1.46-7.5,1.46-11.4s-.49-7.61-1.46-11.31c-.98-3.7-2.38-7.2-4.21-10.51-1.83-3.31-4.05-6.36-6.65-9.14-2.6-2.78-5.53-5.2-8.78-7.27h2.34c.26,0,.52.08.75.22,3.11,2.02,5.91,4.37,8.4,7.06,2.57,2.78,4.78,5.83,6.61,9.14,1.83,3.31,3.24,6.82,4.22,10.51.98,3.7,1.46,7.47,1.46,11.31Z"/>
    <path class="cls-3" d="m1111.52,112.87l-2.41-6.64c-.13-.35-.46-.58-.83-.58h-37.79c-.37,0-.71.23-.83.58l-2.41,6.64c-.13.35-.46.58-.83.58h-5.29c-.62,0-1.05-.61-.83-1.19l28.27-76.83c.29-.77,1.38-.77,1.67,0l28.18,76.83c.21.58-.22,1.19-.83,1.19h-5.21c-.37,0-.71-.23-.83-.58Zm-22.98-57.83l-15.76,42.76c-.21.58.22,1.19.83,1.19h31.44c.62,0,1.05-.61.83-1.19l-15.68-42.76c-.28-.77-1.38-.78-1.67,0Zm-13.07,58.51h-.75c-.63,0-1.06-.63-.82-1.22h0c.13-.34.46-.56.82-.56h.75c.63,0,1.06.63.82,1.22h0c-.13.34-.46.56-.82.56Zm7.66-20.67h-.9c-.62,0-1.05-.62-.83-1.2l7.15-19.26c.29-.77,1.38-.77,1.66,0l2.21,6.03c.1.26.06.55-.09.78l-8.46,13.24c-.16.26-.44.41-.75.41Zm41.97,20.1l-28.08-74.7c-.22-.58.21-1.2.83-1.2h.85c.37,0,.7.23.83.58l27.99,74.7c.22.58-.21,1.2-.83,1.2h-.77c-.37,0-.7-.23-.83-.57Z"/>
  </g>
</svg>