<?xml version="1.0" encoding="UTF-8"?>
<svg id="Capa_14" data-name="Capa 14" xmlns="http://www.w3.org/2000/svg" viewBox="0 0 1532.09 1274.43">
  <defs>
    <style>
      .cls-1 {
        fill: #e8790a;
      }

      .cls-2 {
        fill: #f2c394;
      }

      .cls-3 {
        fill: #f28e1f;
      }
    </style>
  </defs>
  <path class="cls-3" d="m1456.21,1274.38H75.83c-59.94,0-96.12-47.44-63.53-83.41l362.1-400.14c16.16-17.88,16.16-40.81,0-58.69L12.24,331.92c-32.52-35.97,3.59-83.41,63.53-83.41h1376.37c43.36,0,77.82,25.96,75.54,56.9l-71.54,968.98h.07Z"/>
  <path class="cls-2" d="m1508.82,280.83H6.52c-9.31,15.06-9.23,33.17,4.11,49.23h1498.2v-49.23Z"/>
  <path class="cls-2" d="m1459.04,1235.1v-42.75H11.1c-13.62,16.01-13.95,34.11-4.85,49.23h1452.3l.48-6.48Z"/>
  <path class="cls-1" d="m684.99,885.01l709.42,377.01c55.86,29.69,137.69,2.76,137.69-45.37V309.34L771.09,0l-86.11,884.94v.07Z"/>
</svg>