<?xml version="1.0" encoding="UTF-8"?>
<svg id="Capa_14" data-name="Capa 14" xmlns="http://www.w3.org/2000/svg" viewBox="0 0 1065.22 1057.07">
  <defs>
    <style>
      .cls-1 {
        fill: #f28e1f;
      }
    </style>
  </defs>
  <g>
    <path class="cls-1" d="m992.23,988.37c8.22-15.34,12.15-29.62,11.7-42.76-1.26-31.93-20.57-69.7-57.92-113.36-.64-.72-1.65-1.72-3.09-3.08-1.43-1.3-2.39-2.27-2.9-2.86-2.61-3.05-2.18-6.1,1.37-9.11,2.12-1.79,5.82-.69,11.12,3.35,7.53,5.97,13.52,9.73,17.91,11.25l4.26-3.93c1.88-10.19,1.86-22.61-.11-37.25-1.54-11.31-1.28-17.84.72-19.58,2.96-2.51,7.36-.3,13.34,6.68,6.54,7.59,14.03,20.8,22.48,39.43,11.89,26.51,18.13,50.37,18.68,71.48.6,24.79-1.83,46.35-7.32,64.69-5.05,17.03-11.94,29.23-20.64,36.67-4.93,4.21-8.22,5.42-9.82,3.49-1.01-1.13-.93-2.83.24-5.11Zm-157.27-88.97c2.12-1.79,6.66-1.09,13.62,2,6.96,3.12,11.31,3.94,13.08,2.45,1.68-1.45,2.35-5.42,2.08-11.89-.38-7.83-2.27-15.62-5.64-23.33-6.85-13.29-11.44-21.41-13.73-24.33-.6-2.33.42-4.63,3-6.81,2.25-1.98,4.98-1.35,8.28,1.76,4.96,5.11,9.95,10.22,14.97,15.32,7.13,6.75,14.1,11.07,20.8,13.05,6.73,2.03,11.66,1.67,14.84-1.05,1.66-1.4,2.3-3.4,1.96-5.94-.06-.78-.81-3.71-2.32-8.76-2.34-7.99-1.67-13.55,1.96-16.68,2-1.68,4.1-1.27,6.34,1.34,25.98,30.33,43.05,51.27,51.17,62.65,6.06,8.45,11.05,17.98,15.1,28.53,3.99,10.51,6.34,19.64,6.93,27.22.84,10.49.62,26.17-.69,47.07-.22,3.05-1.4,5.53-3.53,7.34-3.51,2.95-7.29,4.01-11.24,2.9-3.62-1.62-7.17-3.1-10.71-4.63-6.24-1.56-12.5-3.16-18.73-4.73-10.75-3.02-20.79-7.11-30.13-12.28-9.32-5.2-16.69-10.96-22.13-17.3-.39-.46-4.05-5.36-10.88-14.71-6.88-9.29-13.84-18.1-20.88-26.32-2.73-3.18-6.66-6.93-11.84-11.16-5.16-4.24-8.42-7.17-9.85-8.84-4.73-5.5-5.35-9.83-1.81-12.86Zm137.02,90.77c1.64-1.43,0-6.54-4.91-15.37-6.16-11.23-15.69-24.44-28.59-39.48-11.57-13.55-21.89-24.28-30.95-32.25-7.6-6.66-11.97-9.56-13.15-8.54-.72.6-.48,1.81.69,3.63,1.67,2.42,3.36,4.91,5.03,7.32,16.67,26.1,31.36,46.68,44.18,61.6,15.43,18,24.63,25.69,27.71,23.08Zm-214.47-22.6c5.86-5.02,18.86-5.71,38.87-2.07,17.22,3.23,26.82,4,28.69,2.4,1.01-.94,1.14-2.69.38-5.26-1.34-3.98-2.67-7.88-4.02-11.89-1.95-6-2.28-9.59-.98-10.75,2.11-1.79,4.1-1.6,5.89.48.72.83,2.95,4.08,6.76,9.84,3.77,5.71,7.57,10.75,11.41,15.28,16.9,19.79,40.55,34.63,70.88,44.54,9.61,3.21,19.83,5.66,30.56,7.51,7.58,1.25,11.72,2.29,12.43,3.07,1.7,2.04,1.64,3.83-.25,5.43-1.66,1.44-10.26,2.75-25.85,4.1-20.27,1.86-40.52,1.28-60.85-1.77-25.1-3.58-48.18-11.31-69.2-23.32-10.43-5.97-20.75-12.75-30.91-20.34-7.39-5.51-11.59-8.93-12.7-10.21-2.65-3.05-3.02-5.42-1.13-7.04Z"/>
    <path class="cls-1" d="m626.19,999.52c1.93-1.94,5.96-3.61,12.08-5.08,6.08-1.43,9.89-2.95,11.42-4.47,1.95-1.94,2.96-4.78,3.08-8.57.12-3.79-.63-6.48-2.19-8.01-1.92-1.92-10.19-5.64-24.84-11.17-14.61-5.45-22.8-9.16-24.56-10.89-2.72-2.69-4.39-6.45-5.19-11.32-.76-4.83-.08-8.32,2.05-10.44,1.13-1.14,2.53-1.5,4.18-.99,1.62.45,2.99.23,3.95-.75,1.36-1.35,2.42-4.75,3.18-10.14,1.1-5.74,2.5-10.31,4.23-13.73.26-.52.7-.94,1.22-1.21,6.07-3.09,11.34-4.89,15.87-5.52,4.77-.66,8.22,0,10.36,2.11,1.7,1.75,1.06,5.67-2.04,11.88-.03.05-.05.11-.08.16-2.3,5.34-3.41,10.21-3.28,14.52.07,2.44,3.06,3.69,4.77,1.96,0,0,.02-.02.02-.02,10.05-8.09,17.9-9.38,23.52-3.76,1.52,1.55,3.42,3.88,5.63,7.11,2.3,3.19,3.96,5.36,5.14,6.54,5.04,5.02,12.15,6.56,21.46,4.62,10.44-2.3,21.02-8.8,31.65-19.4,24.98-25,41.22-55.18,48.78-90.63,4.82-22.31,5.92-34.76,3.18-37.46-1.33-1.37-5.86-2.45-13.59-3.18-15.53-1.57-25.1-2.6-28.79-3.18-18.99-2.74-36.95-7.76-53.98-15.17-14.71-6.56-25.64-13.46-32.8-20.6-18.19-18.15-27.72-40.11-28.6-65.77-.9-25.62,6.71-46.48,22.76-62.55,6.6-6.57,16.21-11.44,28.78-14.51,12.59-3.14,25.08-3.34,37.44-.57,17.42,3.86,36.88,16.54,58.37,38.08,12.55,12.56,22.65,32.45,30.19,59.74,3.48,12.78,6.41,26.74,8.71,41.78,1.53,11.3,2.69,17.3,3.47,18.08,2.13,2.09,7.66,3.37,16.55,3.76,10.3.54,21.62-.29,34-2.6,28.29-5.5,49.94-15.71,65.02-30.79,22.28-22.27,33.18-40.55,32.85-54.88-.21-4.49-2.06-12.88-5.52-25.27-2.54-8.27-2.24-14.03.82-17.11,1.74-1.76,5.7-3.47,11.79-5.08,6.08-1.67,10.21-3.56,12.34-5.66.95-.96,1.37-1.74,1.16-2.33-.17-.21-.47-.32-.9-.3-7.92-2.45-15.86-3.32-23.79-2.33-6.59.8-11.01,2.33-13.31,4.68-1.41,1.36-2.41,5.71-3.06,13.15-.66,7.47-2.09,12.33-4.23,14.43-4.83,4.84-9.61,4.91-14.23.31-4.49-4.49-7.36-15.69-8.68-33.73-.62-9.46.65-15.76,3.73-18.84,12.81-12.81,24.76-19.38,36-19.73,7.94-.21,16.58,1.52,25.88,5.22,9.3,3.64,16.32,7.94,21.13,12.75,5.54,5.52,10.67,16.73,15.28,33.66.4,1.45,1.88,2.33,3.34,2,9.92-2.26,17.35-3.2,22.34-2.82,6.61.36,12.22,2.87,16.87,7.51,8.12,8.11,10.15,14.23,6.07,18.26-2.14,2.18-6.43,3.02-12.9,2.51-6.5-.48-13.2-.93-20.24-1.31-8.3-.19-17.35,4.62-27.25,14.48-2.12,2.11-8.43,11.76-19.02,28.97-10.57,17.08-21.36,31.21-32.37,42.22-23.58,23.58-54.36,37.74-92.31,42.37-9.49.96-21.51,2.12-36,3.51-8.7.56-13.47,1.22-14.23,2.02-1.55,1.52-3.2,8.03-4.95,19.47-2.72,17.39-5.35,31.25-7.85,41.48-5.41,22.48-13.83,44.65-25.28,66.53-9.84,18.79-19.35,32.73-28.41,41.78-10.46,10.45-24.68,20.73-42.7,30.76-18,10.12-27.57,15.71-28.75,16.87-2.32,2.33-3.24,8.96-2.75,19.91.48,10.91-1.21,18.31-5.07,22.2-5.43,5.43-16.07.16-31.94-15.74-14.87-14.86-16.57-28.11-4.95-39.75Zm153.11-230.18c.3-.03.6-.1.88-.22,1.77-.77,3.28-1.79,4.51-3.03,1.04-1.02,1.85-2.17,2.44-3.44.33-.72.35-1.55.05-2.28-12.52-30.65-29.22-56.48-50.06-77.33-27.67-27.69-51.8-31.24-72.33-10.72-6.37,6.38-9.75,14.1-10,23.08-.27,8.99,2.97,16.86,9.69,23.65,37.46,37.42,75.71,54.16,114.82,50.29Z"/>
    <path class="cls-1" d="m956.77,109.88c-6.26,26.37-23.26,109.49-40.29,134.03-17.01,24.58-28.3,50.26-73.12,70.11-56.67,25.15-81.66,47.2-107.76,86.98-37.13,56.65-36.87,130.42-35.9,158.77.64,19.36,9.6,20.52,13.22,1.88,6.76-34.68,19.58-76.04,35.92-98.28,15.22-20.73,43.48-30.25,77.5-30.25,34.01,0,52.54-5.25,73.46,17.41,17.97,19.43,17.68,40.81,10.12,55.95-7.55,15.12,5.36,19.06,24.16,11.68,21.49-8.39,44.91-28.96,45.37-58.59.41-27.05-12.55-39.42-42.14-59.69-20.83-14.25-58.33-15.47-80.96-16.63-20.84-1.1-23.99-12.31.59-16.07,24.58-3.78,70.27-8.96,99.83-39.91,52.7-55.19,42.84-164.71,27.58-211.34-10.12-30.94-23.22-24.41-27.58-6.04Z"/>
    <path class="cls-1" d="m116.57,950.1c26.34-6.27,109.46-23.3,134.03-40.29,24.58-17.02,50.25-28.3,70.12-73.14,25.12-56.65,47.16-81.67,86.94-107.73,56.64-37.16,130.44-36.89,158.78-35.93,19.34.66,20.52,9.61,1.88,13.22-34.66,6.78-76.03,19.59-98.28,35.92-20.74,15.2-30.26,43.48-30.26,77.51,0,34.01-5.26,52.59,17.39,73.48,19.47,17.95,40.86,17.66,55.99,10.1,15.13-7.56,19.05,5.38,11.68,24.15-8.41,21.51-28.97,44.89-58.58,45.37-27.06.41-39.43-12.52-59.7-42.11-14.27-20.85-15.46-58.35-16.65-80.99-1.11-20.84-12.31-23.98-16.09.59-3.77,24.58-8.95,70.27-39.9,99.84-55.18,52.67-164.69,42.82-211.33,27.56-30.95-10.09-24.38-23.2-6.03-27.56Z"/>
    <path class="cls-1" d="m606.58,599.33c-19.52,19.53-28.54,45.41-27.73,71.24.09,2.95-3.72,4.19-5.35,1.73-23.84-36.01-25.29-78.72-.57-103.49,23.62-23.62,63.78-23.48,98.75-2.64,2.5,1.49,1.51,5.29-1.4,5.42-23.28,1.04-46.09,10.13-63.71,27.74Z"/>
  </g>
  <path class="cls-1" d="m1012.06,11.06v412.01c0,41.8,5.67,89.37-41.42,110.7-11.65,5.28-4.48,30.26,6.75,25.17,43.86-19.87,54.14-61.41,54.14-104.97v-154.97c0-95.33,0-190.66,0-285.99,0-14.76-19.47-19-19.47-1.96h0Z"/>
  <path class="cls-1" d="m10.59,1037.93h437.92c43.44,0,84.42-9.17,104.45-53.41,5.06-11.16-11.03-29.11-17.73-14.33-20.45,45.15-65.47,42.16-106.08,42.16H8.96c-13.78,0-10.42,25.58,1.63,25.58h0Z"/>
</svg>