<!-- Animated using SVGANIMA - https://svganima.com -->
<svg id="ewhu8pT3eHD1" xmlns="http://www.w3.org/2000/svg" xmlns:xlink="http://www.w3.org/1999/xlink" viewBox="0 0 1000.91 689.42" shape-rendering="geometricPrecision" text-rendering="geometricPrecision" project-id="48d420df78204ea7b3358066ab887adc" export-id="32464259e0e740c4947b95e2a4df9fac" cached="false" preserveAspectRatio="xMidYMid" width="NaN" height="NaN">
<style id="style9705">
#ewhu8pT3eHD2_tr {animation: ewhu8pT3eHD2_tr__tr 3000ms linear infinite normal forwards}@keyframes ewhu8pT3eHD2_tr__tr { 0% {transform: translate(260.754791px,436.956032px) rotate(0deg);animation-timing-function: cubic-bezier(0.42,0,0.58,1)} 50% {transform: translate(260.754791px,436.956032px) rotate(-3.561683deg);animation-timing-function: cubic-bezier(0.42,0,0.58,1)} 100% {transform: translate(260.754791px,436.956032px) rotate(0deg)}} #ewhu8pT3eHD61_tr {animation: ewhu8pT3eHD61_tr__tr 3000ms linear infinite normal forwards}@keyframes ewhu8pT3eHD61_tr__tr { 0% {transform: translate(330.825123px,340.221251px) rotate(0deg);animation-timing-function: cubic-bezier(0.42,0,0.58,1)} 50% {transform: translate(330.825123px,340.221251px) rotate(6.41479deg);animation-timing-function: cubic-bezier(0.42,0,0.58,1)} 100% {transform: translate(330.825123px,340.221251px) rotate(0deg)}} #ewhu8pT3eHD73_tr {animation: ewhu8pT3eHD73_tr__tr 3000ms linear infinite normal forwards}@keyframes ewhu8pT3eHD73_tr__tr { 0% {transform: translate(135.33781px,207.03926px) rotate(720deg);animation-timing-function: cubic-bezier(0.415,0.08,0.115,0.955)} 100% {transform: translate(135.33781px,207.03926px) rotate(439.480519deg)}} #ewhu8pT3eHD73 {animation: ewhu8pT3eHD73_f_p 3000ms linear infinite normal forwards}@keyframes ewhu8pT3eHD73_f_p { 0% {fill: #d2dbed} 100% {fill: #d2dbed}} #ewhu8pT3eHD74_tr {animation: ewhu8pT3eHD74_tr__tr 3000ms linear infinite normal forwards}@keyframes ewhu8pT3eHD74_tr__tr { 0% {transform: translate(11.12px,29.9px) rotate(-720deg);animation-timing-function: cubic-bezier(0.415,0.08,0.115,0.955)} 100% {transform: translate(11.12px,29.9px) rotate(-439.480519deg)}}
</style><style class="darkreader darkreader--sync" media="screen" id="style5925"></style>
<defs id="defs7064"><linearGradient id="ewhu8pT3eHD67-fill" x1="0.5" y1="0" x2="0.5" y2="1" spreadMethod="pad" gradientUnits="objectBoundingBox" gradientTransform="translate(0 0)"><stop id="ewhu8pT3eHD67-fill-0" offset="0%" stop-color="rgba(255,255,255,0)" style="--darkreader-inline-stopcolor: rgba(24, 26, 27, 0);" data-darkreader-inline-stopcolor=""></stop><stop id="ewhu8pT3eHD67-fill-1" offset="100%" stop-color="#010022" style="--darkreader-inline-stopcolor: #01001b;" data-darkreader-inline-stopcolor=""></stop></linearGradient></defs><g id="ewhu8pT3eHD2_tr" transform="translate(260.754791,436.956032) rotate(0)"><g transform="translate(-260.754789,-436.956024)" id="g6775"><g id="g6985"><path d=" M 398.4,481.86 v 0 c 14.34 0.41,25.27,10.2,26.43,24.77 c 1.03,13.17 -11.34,26.83 -24.77,26.43 -29.04 -0.84 -57.23 -7.84 -83.19 -21.61 s -47.67 -33.21 -65.96 -55.99 c -8.96 -11.18 -2.66 -28.07,7.71 -35.39 c 5.28 -3.75,13.37 -4.82,19.6 -3.39 c 6.93,1.57,11.47,5.7,15.8,11.1 0.5 0.63,4.47,5.65,1.69,2.12 s 0.71 0.74,1.35,1.45 c 1.85,2.07,3.74,4.07,5.68,6.06 c 4.17,4.3,8.62,8.34,13.19,12.21 c 2.34,1.92,4.67,3.78,7.03,5.58 c 1.18 0.9,2.4,1.72,3.58,2.62 -5.89 -4.61 -1.85 -1.29 -0.48 -0.39 c 4.76,3.1,9.43,5.92,14.63,8.69 c 5.2,2.78,10.55,5.27,16.05,7.47 c 3.73,1.55 0.55 0.01 -1.34 -0.43 c 1.43 0.34,2.78,1,4.19,1.47 c 2.82 0.93,5.66,1.73,8.5,2.53 c 5.72,1.53,11.53,2.79,17.4,3.68 c 1.51 0.19,2.96 0.4,4.46 0.6 c 2.74 0.29,5.14 -0.7-0.62 -0.05 c 2.84 -0.34,6.21 0.41,9.06 0.49 v 0 l 0.01 -0.02 Z " fill="#92921a" id="path8623" style="--darkreader-inline-fill: #757515;" data-darkreader-inline-fill=""></path></g><g id="g2131"><path d=" M 874.12,161.91 c 3.79 -2.67,9.01 -2.18,12.16,1.22 s 6.42,7.41,9.35,11.57 c 1.96,2.78,3.76,5.61,5.4,8.46 c 2.4,4.16,1.17,9.48 -2.76,12.24 L 438.05,519.13 c -4.22,2.97 -10.04,1.95 -13.01 -2.26 l -13.01 -18.49 c -2.97 -4.22 -1.95 -10.04,2.26 -13.01 L 874.12,161.92 v -0.01 Z " fill="#ab7131" id="path8959" style="--darkreader-inline-fill: #895a27;" data-darkreader-inline-fill=""></path><path d=" M 841.51,184.85 c 4.92,5.25,9.66,10.81,14.19,16.68 c 4.02,5.21,7.76,10.53,11.23,15.91 L 672.68,354.08 c -1.9 -2.28 -3.78 -4.61 -5.61 -6.99 -6.75 -8.74 -12.71 -17.77 -17.91 -26.95 l 192.35 -135.3 v 0.01 Z " fill="#955200" id="path8587" style="--darkreader-inline-fill: #774200;" data-darkreader-inline-fill=""></path><path d=" M 514.85,134.57 c 2.61 -2.1,5.23 -4.2,7.84 -6.3 c 1.96 -2.03,3.75 -4.24,6.12 -5.85 c 1.24 -1,2.48 -1.99,3.72 -2.99 c 1.72 -1.85,4.19 -2.92,6.16 -0.79 -3.5 -4.65,26.17 -22.22,30.37 -27.93 c 2.05 -1.64,4.1 -3.29,6.14 -4.93 0.94 -0.75,1.87 -1.52,2.84 -2.24 c 4.34 0.1,7.68,5.42,11.59,7.42 c 2.29 -2.55,5.36 -4.36,7.93 -6.64 -1.68 -3.86 -5.88 -7.24 -6.06 -11.42 c 20.14 -16.2,40.27 -32.4,60.4 -48.6 0.16 -0.13 0.32 -0.26 0.48 -0.39 s 0.32 -0.26 0.48 -0.39 c 0.32 -0.26 0.65 -0.52 0.97 -0.78 0.19 -0.15 0.38 -0.3 0.57 -0.45 0.48 -0.39 0.97 -0.78,1.45 -1.17 0.16 -0.13 0.32 -0.26 0.48 -0.39 0.35 -0.28 0.7 -0.56,1.05 -0.84 0.16 -0.13 0.32 -0.26 0.48 -0.39 s 0.32 -0.26 0.48 -0.39 c 0.35 -0.28 0.7 -0.56,1.05 -0.84 0.16 -0.13 0.32 -0.26 0.48 -0.39 0.1 -0.09 0.18 -0.16 0.31 -0.09 c 5.03 -4.13,10.03 -8.3,15.12 -12.35 c 2.13 -1.13,12.37,16.31,14.64,17.72 C 791.8,149.25,880.39,264.04,984.57,394.07 c -1.46 0.94,5.64,4.24,6.95,3.06 -2.54,5.34,1.19,5.83 -2.95,9.71 -4.03,3.24 -7.99,6.57 -12.4,9.32 -1.92 -1.39 -3.82 -2.82 -5.73 -4.22 c 2.12,8.75,2.18,7.88 -4.8,13.24 -9.59,7.74 -19.34,15.41 -28.8,23.16 -16.33,13.22 -32.94,26.12 -49.16,39.48 -4.96,3.35 -9.18,8.93 -14.95,10.48 -2.27 0.36 -4.94 -4.25 -7.37 -4.97 -1.8,1.33 -3.38,2.89 -5.28,4.13 c 6.07,7.44,7,7.48 -1.09,13.4 -8.83,7.03 -17.56,14.21 -26.46,21.16 C 722.82,412.79,617.96,265.36,511.16,137.73 c 1.14 -1.13,2.38 -2.16,3.65 -3.15 l 0.04 -0.01 Z " fill="#955200" id="path5674" style="--darkreader-inline-fill: #774200;" data-darkreader-inline-fill=""></path><path d=" M 864.69,506.19 c 0.94 -2.44 -1 -3.91 -2.14 -5.72 -2.19 -3.48 -6.19 -5.77 -6.88 -10.22 -3.27 -3.97 -6.71 -7.81 -9.04 -12.45 -0.6 -1.19 -1.81 -2.19 -0.49 -3.49 c 1.2 -1.18,2.46 -0.7,3.47 0.31 c 5.42,5.36,11.6,9.94,16.04,16.3 c 1.07 0.5,2.06 0.37,2.99 -0.19 c 2.15 -5.9,2.24 -5.95,7.49 -2.21 c 1.48,1.05,2.78,2.38,4.17,3.58 0.32,0,.5 -0.16 0.56 -0.48 0.42 0.01 0.83 0.02,1.25 0.03 c 4.14 -2.14,7.38 -5.47,10.97 -8.32 c 15.67 -12.44,31.26 -24.97,46.88 -37.46 0.17 -0.29 0.35 -0.58 0.52 -0.88 -3.04 -6.77 -8.43 -11.86 -12.85 -17.64 -1.94 -2.54 -3.93 -5.02 -4.32 -8.29 -2.9 -4.04 -7.28 -6.73 -9.89 -11.03 -1.04 -1.7 -3.89 -3.33 -1.16 -5.39 c 2.39 -1.81,3.41 0.96,4.69,2.3 c 7.44,7.8,14.05,16.35,21.61,24.06 c 2.47,2.52,5.83,4.89,6.07,9.04 0.99,1.15,2.31 0.44,3.41 0.9 0.31 -0.13 0.62 -0.26 0.92 -0.39 c 7.43 -5.95,14.86 -11.91,22.28 -17.86 0.19 -0.28 0.38 -0.57 0.56 -0.85 -0.18 -5.52 -2.76 -10.87 -2.38 -16.43 -1.03 -3.51 0.56 -4,3.11 -2.32 c 4.04,2.66,7.89,5.65,11.82,8.5 c 1.6 -1.07,3.21 -2.15,4.81 -3.22 0.28 -0.25 0.56 -0.49 0.84 -0.73 c 3.31 -3.82,8.82 -5.3,10.88 -10.46 -0.54 0.32 -1.17 0.71 -1.68,0 -0.49 -0.68 0.05 -1.19 0.49 -1.63 -8.95 -11.22 -17.87 -22.46 -26.86 -33.65 -37.35 -46.52 -74.73 -93.02 -112.09 -139.53 -12.17 -15.15 -24.34 -30.3 -36.5 -45.45 C 779.3,118.95,734.37,62.97,689.43,7 c -0.54 -0.67 -1.15 -1.29 -1.72 -1.94 -1.3 -0.58 -2.59 -1.15 -3.89 -1.73 -2.57 -1.14 -1.08 -2.03 -0.06 -2.96 -0.75 -0.7 -1.4 -0.27 -2.05 0.03 -1.04 0.8 -2.07,1.6 -3.11,2.39 -0.47 0.38 -0.93 0.77 -1.4,1.15 -3.22,2.65 -6.44,5.3 -9.65,7.95 -0.29 0.69 -0.57,1.37 -0.86,2.06 0.25 0.23 0.49 0.48 0.7 0.75 c 2.98,3.56,5.82,7.21,8,11.34 0.85,1.59,2.82,3.1 0.39,4.54 -2.03,1.2 -3.68 -0.25 -4.46 -1.96 -1.47 -3.21 -4.2 -5.21 -6.35 -7.76 -1.52 -1.25 -2.91 -2.74 -4.92 -3.12 -20.13,16.2 -40.27,32.4 -60.4,48.6 -0.04 0.45 -0.08 0.91 -0.11,1.36 c 3.47,6.11,8.1,11.69,9.85,18.63 -3.39,1.7 -5.02 -0.63 -6.84 -2.35 -1.99 -0.33 -4.4 -1.9 -5.11,1.46 c 1.24,2.38,2.67,4.7,3.66,7.17 0.92,2.29,4.32,5.02,1.65,6.98 -3.12,2.29 -4.45 -2.25 -6.58 -3.79 -4.91 -3.64 -9.85 -7.22 -14.69 -10.95 -1.12 -0.87 -1.98 -1.95 -3.46 -1.31 -0.3 0.23 -0.6 0.46 -0.9 0.68 -0.44 0.41 -0.87 0.82 -1.31,1.23 -9.92,8.03 -19.84,16.06 -29.76,24.09 -0.21 0.81 -0.06,1.56 0.55,2.22 c 9.65,13.52,19.32,27.02,28.91,40.58 c 1.06,1.5,3.77,3.21,1.66,5.07 -2.15,1.89 -4.11 -0.76 -5.3 -2.26 -4.93 -6.2 -11.25 -11.13 -15.69 -17.75 -5.16 -4.36 -9.64 -9.39 -14.09 -14.47 -1.75 -1.99 -2.78 -4.83 -5.73 -5.53 -0.45,0 -0.91 0.02 -1.36 0.03 -0.43 0.34 -0.86 0.68 -1.28,1.02 -3.84,5.33 -9.82,8.2 -14.38,12.71 0.21,1.05 0.09,2.21,1.15,2.99 c 3,.95,3.86,3.99,5.74,6.04 0.58 0.64,1.19,1.25,1.73,1.92 c 99.54,123.92,199.07,247.85,298.6,371.78 0.43 0.54 0.8,1.13,1.2,1.69 c 2.7,3.29,5.41,6.58,8.11,9.87 c 1.84,2.89,3.31,1.05,4.84,0 c 0.3 -0.22 0.59 -0.43 0.89 -0.65 c 7.42 -5.95,14.84 -11.9,22.26 -17.85 0.27 -0.26 0.54 -0.51 0.81 -0.77 l 0.02 0.01 Z " fill="#ab7131" id="path4488" style="--darkreader-inline-fill: #895a27;" data-darkreader-inline-fill=""></path><g id="g6644"><path d=" M 692.18,80.09 c 1.65,2.11,2.38,4.5,2.17,7.15 s -1.24,5.49 -3.09,8.52 -4.82,6.14 -8.92,9.35 c -4.92,3.85 -9.81,6.15 -14.69,6.89 s -8.67 -0.61 -11.38 -4.08 -2.96 -7.18 -1.13 -11.67 c 1.82 -4.49,5.35 -8.78,10.58 -12.87 c 5.36 -4.2,10.46 -6.62,15.31 -7.27 s 8.56 0.68,11.15,3.98 Z m -3.78,5.7 c 1.8 -1.41,2.24 -2.69,1.33 -3.86 -0.38 -0.49 -0.93 -0.73 -1.65 -0.73 s -1.4 0.26 -2.04 0.77 l -26.03,20.37 c -0.88 0.69 -1.41,1.38 -1.59,2.08 s -0.09,1.29 0.28,1.76 c 0.42 0.53,1,.76,1.76 0.69 s 1.44 -0.35,2.06 -0.83 l 25.87 -20.25 h 0.01 Z " fill="#3f2104" id="path1473" style="--darkreader-inline-fill: #321a03;" data-darkreader-inline-fill=""></path><path d=" M 713.26,107.02 l 0.88,1.12 c 0.2 0.26 0.26 0.53 0.16 0.81 s -0.54 0.78 -1.34,1.5 l -6.55,5.93 c -0.13 0.13 -0.26 0.24 -0.39 0.34 -0.5 0.39 -0.92 0.58 -1.26 0.57 s -0.71 -0.28 -1.11 -0.8 c -0.5 -0.63 -0.67 -1.2 -0.53 -1.7 s 0.74 -1.35,1.79 -2.55 c 2.67 -3.04,3.58 -5.11,2.73 -6.2 -0.71 -0.91 -2.19 -0.47 -4.45,1.29 l -24.26,18.99 c -1.61,1.26 -2.04,2.36 -1.3,3.31 0.95,1.21,2.82 0.83,5.62 -1.13 0.81 -0.56,1.47 -0.84,1.97 -0.81 s 1.07 0.44,1.7,1.24 c 0.47 0.6 0.69,1.11 0.65,1.52 s -0.38 0.87 -1.03,1.38 c -2.06,1.61 -4.25,2.33 -6.57,2.15 -2.33 -0.17 -4.21 -1.18 -5.65 -3.02 s -2.05 -3.79 -1.98 -6.03 c 0.08 -2.24,1.12 -4.94,3.13 -8.1 s 5.19 -6.44,9.53 -9.84 c 4.1 -3.21,7.69 -5.36,10.79 -6.45 s 5.82 -1.52,8.16 -1.28 s 4.18,1.22,5.53,2.92 c 0.81,1.03,1.23,2.15,1.27,3.35 0.02 0.45 0.09 0.74 0.2 0.88 0.14 0.17 0.53 0.26,1.18 0.26 0.57,0,.95 0.1,1.13 0.33 v 0.02 Z " fill="#3f2104" id="path7282" style="--darkreader-inline-fill: #321a03;" data-darkreader-inline-fill=""></path><path d=" M 716.17,111.94 l 7.31,9.34 c 0.25 0.32 0.34 0.57 0.27 0.76 s -0.46 0.57 -1.16,1.12 -1.34 0.71 -1.89 0.47 c -0.42 -0.18 -0.77 -0.25 -1.04 -0.21 s -0.67 0.27 -1.21 0.68 l -24.17,18.92 c -0.66 0.52 -1.05,1.12 -1.17,1.82 -0.12 0.69 0.05,1.33 0.5,1.9 0.42 0.53,1,.8,1.75 0.82 0.75 0.01,1.41 -0.2,1.97 -0.64 l 24.15 -18.9 c 0.42 -0.33 0.68 -0.59 0.78 -0.8 s 0.15 -0.57 0.15 -1.07 c 0 -0.78 0.38 -1.48,1.16 -2.09 0.61 -0.48,1.03 -0.69,1.26 -0.65 s 0.45 0.19 0.65 0.45 l 3.65,4.66 c 0.41 0.52 0.35 0.98 -0.17,1.38 l -1.03 0.81 c -0.46 0.36 -0.77 0.56 -0.94 0.6 s -0.41 -0.04 -0.72 -0.23 c -0.76 -0.5 -1.49 -0.47 -2.19 0.08 l -23.52,18.42 c -2.23,1.74 -4.49,2.49 -6.8,2.22 -2.3 -0.26 -4.35 -1.53 -6.14 -3.82 -2 -2.56 -2.84 -5.05 -2.51 -7.47 s 1.79 -4.65,4.39 -6.69 l 22.73 -17.79 c 0.6 -0.47 0.8 -1.14 0.59 -2 -0.1-0.43 -0.12 -0.72 -0.05 -0.88 s 0.31 -0.4 0.71 -0.71 c 0.83 -0.65,1.4 -1.01,1.69 -1.08 s 0.63 0.13,1,.61 v -0.03 Z " fill="#3f2104" id="path1932" style="--darkreader-inline-fill: #321a03;" data-darkreader-inline-fill=""></path><path d=" M 718.91,155.59 l -10.69,8.37 c -0.5 0.39 -0.82 0.69 -0.94 0.89 s -0.16 0.52 -0.12 0.96 c 0.05 0.57 -0.21,1.08 -0.78,1.53 -0.83 0.65 -1.41 0.98 -1.72 0.98 s -0.63 -0.2-0.94 -0.6 l -7.13 -9.1 c -0.4 -0.52 -0.23 -1.07 0.51 -1.65 s 1.2 -0.9,1.44 -1.02 0.5 -0.09 0.78 0.09 c 0.94 0.54,1.86 0.45,2.78 -0.27 l 25.27 -19.78 c 0.93 -0.73,1.23 -1.52 0.89 -2.37 -0.16 -0.43 -0.21 -0.74 -0.16 -0.91 0.05 -0.18 0.35 -0.48 0.91 -0.92 c 1.11 -0.87,1.91 -1.01,2.38 -0.4 l 9.33,11.92 c 1.86,2.37,2.62,5.19,2.3,8.44 -0.33,3.26 -1.99,6.06 -4.99,8.41 -4.27,3.34 -8.76,3.35 -13.48 0.02 c 2.24,4.67,1.28,8.63 -2.89,11.9 l -5.13,4.02 c -0.43 0.34 -0.63 0.76 -0.58,1.26 0.05 0.59 -0.2,1.09 -0.73,1.51 -0.83 0.65 -1.37 0.99 -1.61,1.01 s -0.52 -0.18 -0.86 -0.61 l -4.52 -5.78 c -0.54 -0.69 -0.59 -1.56 -0.16 -2.62 s 1.23 -2.04,2.38 -2.94 l 8.69 -6.8 c 1.7 -1.33,1.87 -2.85 0.54 -4.56 l -0.76 -0.97 -0.01 -0.01 Z m 17.03 -13.33 l -14.53,11.38 l 1.1,1.4 c 1.11,1.42,3.1,1.02,5.96 -1.22 l 6.94 -5.44 c 1.21 -0.95,1.88 -1.84,2.02 -2.68 s -0.17 -1.74 -0.92 -2.71 l -0.57 -0.73 Z " fill="#3f2104" id="path4353" style="--darkreader-inline-fill: #321a03;" data-darkreader-inline-fill=""></path><path d=" M 737.63,179.51 l -10.69,8.37 c -0.5 0.39 -0.82 0.69 -0.94 0.89 s -0.16 0.52 -0.12 0.96 c 0.05 0.57 -0.21,1.08 -0.78,1.53 -0.83 0.65 -1.41 0.98 -1.72 0.98 s -0.63 -0.2-0.94 -0.6 l -7.13 -9.1 c -0.4 -0.52 -0.23 -1.07 0.51 -1.65 s 1.2 -0.9,1.44 -1.02 0.5 -0.09 0.78 0.09 c 0.94 0.54,1.86 0.45,2.78 -0.27 l 25.27 -19.78 c 0.93 -0.73,1.23 -1.52 0.89 -2.37 -0.16 -0.43 -0.21 -0.74 -0.16 -0.91 0.05 -0.18 0.35 -0.48 0.91 -0.92 c 1.11 -0.87,1.91 -1.01,2.38 -0.4 l 9.33,11.92 c 1.86,2.37,2.62,5.19,2.3,8.44 -0.33,3.26 -1.99,6.06 -4.99,8.41 -4.27,3.34 -8.76,3.35 -13.48 0.02 c 2.24,4.67,1.28,8.63 -2.89,11.9 l -5.13,4.02 c -0.43 0.34 -0.63 0.76 -0.58,1.26 0.05 0.59 -0.2,1.09 -0.73,1.51 -0.83 0.65 -1.37 0.99 -1.61,1.01 s -0.52 -0.18 -0.86 -0.61 l -4.52 -5.78 c -0.54 -0.69 -0.59 -1.56 -0.16 -2.62 s 1.23 -2.04,2.38 -2.94 l 8.69 -6.8 c 1.7 -1.33,1.87 -2.85 0.54 -4.56 l -0.76 -0.97 -0.01 -0.01 Z m 17.03 -13.33 l -14.53,11.38 l 1.1,1.4 c 1.11,1.42,3.1,1.02,5.96 -1.22 l 6.94 -5.44 c 1.21 -0.95,1.88 -1.84,2.02 -2.68 s -0.17 -1.74 -0.92 -2.71 l -0.57 -0.73 Z " fill="#3f2104" id="path939" style="--darkreader-inline-fill: #321a03;" data-darkreader-inline-fill=""></path><path d=" M 766.23,179.62 l 1.14 -0.89 c 0.45 -0.35 0.85 -0.29,1.23 0.19 l 8.09,10.33 c 0.3 0.39 0.45 0.68 0.44 0.87 s -0.27 0.49 -0.77 0.88 c -0.76 0.6 -1.27 0.93 -1.52,1 s -0.5 -0.02 -0.76 -0.26 c -0.86 -0.77 -1.77 -0.77 -2.75,0 l -25.92,20.29 c -0.55 0.43 -0.72,1.09 -0.53,1.98 0.12 0.57 0.14 0.97 0.05,1.18 s -0.33 0.47 -0.72 0.77 l -0.84 0.66 c -0.46 0.36 -0.75 0.52 -0.88 0.48 s -0.33 -0.24 -0.61 -0.6 l -8.24 -10.52 c -0.32 -0.4-0.31 -0.73,0 -0.98 c 1.03 -0.81,1.69 -1.27,1.98 -1.38 s 0.66,0,1.13 0.33 c 0.82 0.61,1.54 0.67,2.14 0.2 l 25.59 -20.04 c 0.6 -0.47,1 -0.9,1.2 -1.29 s 0.2 -0.9 0.02 -1.55 c -0.12 -0.48 -0.16 -0.81 -0.09 -0.99 0.06 -0.17 0.26 -0.4 0.61 -0.67 l 0.01 0.01 Z " fill="#3f2104" id="path972" style="--darkreader-inline-fill: #321a03;" data-darkreader-inline-fill=""></path><path d=" M 787.6,201.98 c 1.65,2.11,2.38,4.5,2.17,7.15 s -1.24,5.49 -3.09,8.52 -4.82,6.14 -8.92,9.35 c -4.92,3.85 -9.81,6.15 -14.69,6.89 s -8.67 -0.61 -11.38 -4.08 -2.96 -7.18 -1.13 -11.67 c 1.82 -4.49,5.35 -8.78,10.58 -12.87 s 10.46 -6.62,15.31 -7.27 s 8.56 0.68,11.15,3.98 Z m -3.78,5.7 c 1.8 -1.41,2.24 -2.69,1.33 -3.86 -0.38 -0.49 -0.93 -0.73 -1.65 -0.73 s -1.4 0.26 -2.04 0.77 l -26.03,20.37 c -0.88 0.69 -1.41,1.38 -1.59,2.08 s -0.09,1.29 0.28,1.76 c 0.42 0.53,1,.76,1.76 0.69 s 1.44 -0.35,2.06 -0.83 l 25.87 -20.25 h 0.01 Z " fill="#3f2104" id="path5460" style="--darkreader-inline-fill: #321a03;" data-darkreader-inline-fill=""></path><path d=" M 806,226.69 l 7.31,9.34 c 0.25 0.32 0.34 0.57 0.27 0.76 s -0.46 0.57 -1.16,1.12 -1.34 0.71 -1.89 0.47 c -0.42 -0.18 -0.77 -0.25 -1.04 -0.21 s -0.67 0.27 -1.21 0.68 l -24.17,18.92 c -0.66 0.52 -1.05,1.12 -1.17,1.82 -0.12 0.69 0.05,1.33 0.5,1.9 0.42 0.53,1,.8,1.75 0.82 0.75 0.01,1.41 -0.2,1.97 -0.64 l 24.15 -18.9 c 0.42 -0.33 0.68 -0.59 0.78 -0.8 s 0.15 -0.57 0.15 -1.07 c 0 -0.78 0.38 -1.48,1.16 -2.09 0.61 -0.48,1.03 -0.69,1.26 -0.65 s 0.45 0.19 0.65 0.45 l 3.65,4.66 c 0.41 0.52 0.35 0.98 -0.17,1.38 l -1.03 0.81 c -0.46 0.36 -0.77 0.56 -0.94 0.6 s -0.41 -0.04 -0.72 -0.23 c -0.76 -0.5 -1.49 -0.47 -2.19 0.08 l -23.52,18.42 c -2.23,1.74 -4.49,2.49 -6.8,2.22 -2.3 -0.26 -4.35 -1.53 -6.14 -3.82 -2 -2.56 -2.84 -5.05 -2.51 -7.47 s 1.79 -4.65,4.39 -6.69 l 22.73 -17.79 c 0.6 -0.47 0.8 -1.14 0.59 -2 -0.1-0.43 -0.12 -0.72 -0.05 -0.88 s 0.31 -0.4 0.71 -0.71 c 0.83 -0.65,1.4 -1.01,1.69 -1.08 s 0.63 0.13,1,.61 v -0.03 Z " fill="#3f2104" id="path7333" style="--darkreader-inline-fill: #321a03;" data-darkreader-inline-fill=""></path><path d=" M 809.55,262.27 l -15.22,11.92 c -0.63 0.5 -0.83,1.23 -0.58,2.19 0.2 0.82 0.05,1.42 -0.46,1.82 -1.05 0.82 -1.65,1.25 -1.81,1.29 -0.15 0.04 -0.38 -0.13 -0.67 -0.5 l -4.48 -5.72 c -0.22 -0.29 -0.25 -0.55 -0.09 -0.8 0.17 -0.25 0.69 -0.71,1.57 -1.4 0.4 -0.31 0.83 -0.34,1.29 -0.08 0.91 0.48,1.57 0.56,1.99 0.23 l 25.49 -19.95 c 0.62 -0.48,1.04 -0.9,1.26 -1.26 s 0.27 -0.81 0.16 -1.37 c -0.11 -0.49 -0.11 -0.87,0 -1.15 s 0.44 -0.64,1 -1.08 c 1.01 -0.79,1.72 -0.92,2.13 -0.39 l 4.67,5.96 -11.15,20.43 l 12.41 -9.71 c 0.69 -0.54 0.91 -1.28 0.64 -2.21 -0.14 -0.56 -0.14 -1,0 -1.31 s 0.56 -0.73,1.25 -1.27 c 0.43 -0.34 0.73 -0.5 0.89 -0.49 s 0.34 0.14 0.53 0.39 l 4.66,5.95 c 0.22 0.36 -0.13 0.9 -1.03,1.61 -0.53 0.42 -0.9 0.65 -1.09 0.7 s -0.43,0 -0.71 -0.16 c -0.6 -0.35 -1.04 -0.51 -1.32 -0.49 -0.29 0.02 -0.6 0.15 -0.93 0.41 l -30.64,23.99 -2.87 -3.67 l 13.11 -23.9 v 0.02 Z " fill="#3f2104" id="path2499" style="--darkreader-inline-fill: #321a03;" data-darkreader-inline-fill=""></path><path d=" M 849.82,288.13 l -12.31,9.64 l 1.15,1.47 c 0.31 0.4 0.63 0.63 0.95 0.68 s 0.8 -0.1,1.46 -0.45 c 1.16 -0.63,1.88 -0.96,2.16 -1.01 0.29 -0.05 0.52 0.04 0.7 0.27 0.89,1.14,1.35,1.82,1.37,2.04 s -0.28 0.58 -0.91,1.08 l -7.18,5.62 c -0.45 0.35 -0.79 0.5 -1.04 0.47 -0.25 -0.04 -0.67 -0.43 -1.25 -1.18 -0.38 -0.49 -0.55 -0.89 -0.5 -1.19 0.05 -0.31 0.43 -0.86,1.14 -1.68 0.64 -0.75 0.98 -1.27,1.04 -1.56 s -0.04 -0.59 -0.29 -0.9 l -1.32 -1.68 -14.86,11.63 0.89,1.14 c 0.55 0.7,1.13,1.03,1.73 0.99 s 2.08 -0.51,4.42 -1.39 c 0.98 -0.37,1.7 -0.53,2.14 -0.46 0.45 0.07 0.92 0.42,1.43,1.07 0.7 0.89 0.76,1.56 0.18,2.01 -0.17 0.14 -0.45 0.3 -0.82 0.5 l -5.52,3.03 c -1,.56 -1.63 0.86 -1.88 0.9 -0.25 0.05 -0.57 -0.17 -0.95 -0.66 l -11.26 -14.38 c -0.28 -0.36 -0.38 -0.65 -0.29 -0.88 s 0.52 -0.65,1.32 -1.27 c 0.5 -0.39,1.07 -0.42,1.71 -0.08 0.95 0.53,1.71 0.57,2.29 0.12 l 26.89 -21.05 c 0.26 -0.23 0.28 -0.77 0.06 -1.61 -0.15 -0.58 -0.17 -0.97 -0.06 -1.19 0.11 -0.21 0.5 -0.58,1.16 -1.1 0.56 -0.44 0.93 -0.66,1.1 -0.66 s 0.43 0.21 0.75 0.63 l 10.77,13.76 c 0.27 0.34 0.41 0.64 0.42 0.89 c 0,.25 -0.17 0.58 -0.53,1.01 l -4.7,5.45 c -0.24 0.28 -0.41 0.46 -0.51 0.54 -0.39 0.3 -0.85 0.11 -1.4 -0.59 -0.61 -0.78 -0.93 -1.37 -0.95 -1.77 s 0.23 -1.01 0.75 -1.81 c 0.95 -1.46,1.55 -2.54,1.8 -3.26 s 0.22 -1.27 -0.09 -1.67 l -1.14 -1.46 h -0.02 Z " fill="#3f2104" id="path7519" style="--darkreader-inline-fill: #321a03;" data-darkreader-inline-fill=""></path><path d=" M 847.44,319.79 l -10.69,8.37 c -0.5 0.39 -0.82 0.69 -0.94 0.89 s -0.16 0.52 -0.12 0.96 c 0.05 0.57 -0.21,1.08 -0.78,1.53 -0.83 0.65 -1.41 0.98 -1.72 0.98 s -0.63 -0.2-0.94 -0.6 l -7.13 -9.1 c -0.4 -0.52 -0.23 -1.07 0.51 -1.65 s 1.2 -0.9,1.44 -1.02 0.5 -0.09 0.78 0.09 c 0.94 0.54,1.86 0.45,2.78 -0.27 l 25.27 -19.78 c 0.93 -0.73,1.23 -1.52 0.89 -2.37 -0.16 -0.43 -0.21 -0.74 -0.16 -0.91 0.05 -0.18 0.35 -0.48 0.91 -0.92 c 1.11 -0.87,1.91 -1.01,2.38 -0.4 l 9.33,11.92 c 1.86,2.37,2.62,5.19,2.3,8.44 -0.33,3.26 -1.99,6.06 -4.99,8.41 -4.27,3.34 -8.76,3.35 -13.48 0.02 c 2.24,4.67,1.28,8.63 -2.89,11.9 l -5.13,4.02 c -0.43 0.34 -0.63 0.76 -0.58,1.26 0.05 0.59 -0.2,1.09 -0.73,1.51 -0.83 0.65 -1.37 0.99 -1.61,1.01 s -0.52 -0.18 -0.86 -0.61 l -4.52 -5.78 c -0.54 -0.69 -0.59 -1.56 -0.16 -2.62 s 1.23 -2.04,2.38 -2.94 l 8.69 -6.8 c 1.7 -1.33,1.87 -2.85 0.54 -4.56 l -0.76 -0.97 -0.01 -0.01 Z m 17.03 -13.33 l -14.53,11.38 l 1.1,1.4 c 1.11,1.42,3.1,1.02,5.96 -1.22 l 6.94 -5.44 c 1.21 -0.95,1.88 -1.84,2.02 -2.68 s -0.17 -1.74 -0.92 -2.71 l -0.57 -0.73 Z " fill="#3f2104" id="path4099" style="--darkreader-inline-fill: #321a03;" data-darkreader-inline-fill=""></path><path d=" M 866.16,343.7 l -10.69,8.37 c -0.5 0.39 -0.82 0.69 -0.94 0.89 s -0.16 0.52 -0.12 0.96 c 0.05 0.57 -0.21,1.08 -0.78,1.53 -0.83 0.65 -1.41 0.98 -1.72 0.98 s -0.63 -0.2-0.94 -0.6 l -7.13 -9.1 c -0.4 -0.52 -0.23 -1.07 0.51 -1.65 s 1.2 -0.9,1.44 -1.02 0.5 -0.09 0.78 0.09 c 0.94 0.54,1.86 0.45,2.78 -0.27 l 25.27 -19.78 c 0.93 -0.73,1.23 -1.52 0.89 -2.37 -0.16 -0.43 -0.21 -0.74 -0.16 -0.91 0.05 -0.18 0.35 -0.48 0.91 -0.92 c 1.11 -0.87,1.91 -1.01,2.38 -0.4 l 9.33,11.92 c 1.86,2.37,2.62,5.19,2.3,8.44 -0.33,3.26 -1.99,6.06 -4.99,8.41 -4.27,3.34 -8.76,3.35 -13.48 0.02 c 2.24,4.67,1.28,8.63 -2.89,11.9 l -5.13,4.02 c -0.43 0.34 -0.63 0.76 -0.58,1.26 0.05 0.59 -0.2,1.09 -0.73,1.51 -0.83 0.65 -1.37 0.99 -1.61,1.01 s -0.52 -0.18 -0.86 -0.61 l -4.52 -5.78 c -0.54 -0.69 -0.59 -1.56 -0.16 -2.62 s 1.23 -2.04,2.38 -2.94 l 8.69 -6.8 c 1.7 -1.33,1.87 -2.85 0.54 -4.56 l -0.76 -0.97 -0.01 -0.01 Z m 17.03 -13.33 l -14.53,11.38 l 1.1,1.4 c 1.11,1.42,3.1,1.02,5.96 -1.22 l 6.94 -5.44 c 1.21 -0.95,1.88 -1.84,2.02 -2.68 s -0.17 -1.74 -0.92 -2.71 l -0.57 -0.73 Z " fill="#3f2104" id="path7199" style="--darkreader-inline-fill: #321a03;" data-darkreader-inline-fill=""></path><path d=" M 906.04,353.28 c 1.65,2.11,2.38,4.5,2.17,7.15 s -1.24,5.49 -3.09,8.52 -4.82,6.14 -8.92,9.35 c -4.92,3.85 -9.81,6.15 -14.69,6.89 s -8.67 -0.61 -11.38 -4.08 c -2.58 -3.29 -2.96 -7.18 -1.13 -11.67 c 1.82 -4.49,5.35 -8.78,10.58 -12.87 s 10.46 -6.62,15.31 -7.27 s 8.56 0.68,11.15,3.98 Z m -3.78,5.7 c 1.8 -1.41,2.24 -2.69,1.33 -3.86 -0.38 -0.49 -0.93 -0.73 -1.65 -0.73 s -1.4 0.26 -2.04 0.77 l -26.03,20.37 c -0.88 0.69 -1.41,1.38 -1.59,2.08 s -0.09,1.29 0.28,1.76 c 0.42 0.53,1,.76,1.76 0.69 s 1.44 -0.35,2.06 -0.83 l 25.87 -20.25 h 0.01 Z " fill="#3f2104" id="path938" style="--darkreader-inline-fill: #321a03;" data-darkreader-inline-fill=""></path><path d=" M 903.6,391.53 l -10.69,8.37 c -0.5 0.39 -0.82 0.69 -0.94 0.89 s -0.16 0.52 -0.12 0.96 c 0.05 0.57 -0.21,1.08 -0.78,1.53 -0.83 0.65 -1.41 0.98 -1.72 0.98 s -0.63 -0.2-0.94 -0.6 l -7.13 -9.1 c -0.4 -0.52 -0.23 -1.07 0.51 -1.65 s 1.2 -0.9,1.44 -1.02 0.5 -0.09 0.78 0.09 c 0.94 0.54,1.86 0.45,2.78 -0.27 l 25.27 -19.78 c 0.93 -0.73,1.23 -1.52 0.89 -2.37 -0.16 -0.43 -0.21 -0.74 -0.16 -0.91 0.05 -0.18 0.35 -0.48 0.91 -0.92 c 1.11 -0.87,1.91 -1.01,2.38 -0.4 l 9.33,11.92 c 1.86,2.37,2.62,5.19,2.3,8.44 -0.33,3.26 -1.99,6.06 -4.99,8.41 -4.27,3.34 -8.76,3.35 -13.48 0.02 c 2.24,4.67,1.28,8.63 -2.89,11.9 l -5.13,4.02 c -0.43 0.34 -0.63 0.76 -0.58,1.26 0.05 0.59 -0.2,1.09 -0.73,1.51 -0.83 0.65 -1.37 0.99 -1.61,1.01 s -0.52 -0.18 -0.86 -0.61 l -4.52 -5.78 c -0.54 -0.69 -0.59 -1.56 -0.16 -2.62 s 1.23 -2.04,2.38 -2.94 l 8.69 -6.8 c 1.7 -1.33,1.87 -2.85 0.54 -4.56 l -0.76 -0.97 -0.01 -0.01 Z m 17.03 -13.33 L 906.1,389.58 l 1.1,1.4 c 1.11,1.42,3.1,1.02,5.96 -1.22 l 6.94 -5.44 c 1.21 -0.95,1.88 -1.84,2.02 -2.68 s -0.17 -1.74 -0.92 -2.71 l -0.57 -0.73 Z " fill="#3f2104" id="path6463" style="--darkreader-inline-fill: #321a03;" data-darkreader-inline-fill=""></path><path d=" M 619.96,101.93 l 1.14 -0.89 c 0.45 -0.35 0.85 -0.29,1.23 0.19 l 8.09,10.33 c 0.3 0.39 0.45 0.68 0.44 0.87 s -0.27 0.49 -0.77 0.88 c -0.76 0.6 -1.27 0.93 -1.52,1 s -0.5 -0.02 -0.76 -0.26 c -0.86 -0.77 -1.77 -0.77 -2.75,0 l -25.92,20.29 c -0.55 0.43 -0.72,1.09 -0.53,1.98 0.12 0.57 0.14 0.97 0.05,1.18 s -0.33 0.47 -0.72 0.77 l -0.84 0.66 c -0.46 0.36 -0.75 0.52 -0.88 0.48 s -0.33 -0.24 -0.61 -0.6 l -8.24 -10.52 c -0.32 -0.4-0.31 -0.73,0 -0.98 c 1.03 -0.81,1.69 -1.27,1.98 -1.38 s 0.66,0,1.13 0.33 c 0.82 0.61,1.54 0.67,2.14 0.2 l 25.59 -20.04 c 0.6 -0.47,1 -0.9,1.2 -1.29 s 0.2 -0.9 0.02 -1.55 c -0.12 -0.48 -0.16 -0.81 -0.09 -0.99 0.06 -0.17 0.26 -0.4 0.61 -0.67 l 0.01 0.01 Z " fill="#3f2104" id="path5900" style="--darkreader-inline-fill: #321a03;" data-darkreader-inline-fill=""></path><path d=" M 620.98,130.56 l -15.22,11.92 c -0.63 0.5 -0.83,1.23 -0.58,2.19 0.2 0.82 0.05,1.42 -0.46,1.82 -1.05 0.82 -1.65,1.25 -1.81,1.29 -0.15 0.04 -0.38 -0.13 -0.67 -0.5 l -4.48 -5.72 c -0.22 -0.29 -0.25 -0.55 -0.09 -0.8 0.17 -0.25 0.69 -0.71,1.57 -1.4 0.4 -0.31 0.83 -0.34,1.29 -0.08 0.91 0.48,1.57 0.56,1.99 0.23 l 25.49 -19.95 c 0.62 -0.48,1.04 -0.9,1.26 -1.26 s 0.27 -0.81 0.16 -1.37 c -0.11 -0.49 -0.11 -0.87,0 -1.15 s 0.44 -0.64,1 -1.08 c 1.01 -0.79,1.72 -0.92,2.13 -0.39 l 4.67,5.96 -11.15,20.43 l 12.41 -9.71 c 0.69 -0.54 0.91 -1.28 0.64 -2.21 -0.14 -0.56 -0.14 -1,0 -1.31 s 0.56 -0.73,1.25 -1.27 c 0.43 -0.34 0.73 -0.5 0.89 -0.49 s 0.34 0.14 0.53 0.39 l 4.66,5.95 c 0.22 0.36 -0.13 0.9 -1.03,1.61 -0.53 0.42 -0.9 0.65 -1.09 0.7 s -0.43,0 -0.71 -0.16 c -0.6 -0.35 -1.04 -0.51 -1.32 -0.49 -0.29 0.02 -0.6 0.15 -0.93 0.41 l -30.64,23.99 -2.87 -3.67 l 13.11 -23.9 v 0.02 Z " fill="#3f2104" id="path4389" style="--darkreader-inline-fill: #321a03;" data-darkreader-inline-fill=""></path><path d=" M 649.8,141.31 l -0.77 -0.98 c -0.25 -0.32 -0.67 -0.41 -1.25 -0.28 s -1.89 0.82 -3.93,2.06 c -0.9 0.54 -1.54 0.78 -1.91 0.73 -0.38 -0.05 -0.82 -0.4 -1.32 -1.05 s -0.72 -1.08 -0.71 -1.37 c 0 -0.3 0.24 -0.62 0.68 -0.97 0.26 -0.2 0.52 -0.4 0.79 -0.59 l 5.23 -3.67 c 0.61 -0.43,1.07 -0.63,1.39 -0.6 0.31 0.03 0.74 0.39,1.28,1.08 l 12.39,15.82 c 0.36 0.46 0.52 0.79 0.49 0.98 -0.04 0.19 -0.39 0.6 -1.06,1.22 l -4.15,3.84 c -0.32 0.3 -0.66 0.59 -1.02 0.87 -0.43 0.34 -0.8 0.54 -1.12 0.61 -0.31 0.07 -0.7-0.18 -1.15 -0.75 -0.57 -0.73 -0.87 -1.26 -0.89 -1.58 s 0.3 -0.84 0.96 -1.57 c 1.07 -1.21,1.9 -2.26,2.48 -3.16 s 0.72 -1.55 0.4 -1.95 l -0.51 -0.65 -27.69,21.67 c -0.79 0.62 -1.07,1.39 -0.83,2.32 0.1 0.39 0.09 0.7 -0.02 0.93 s -0.45 0.58 -1.02,1.03 c -0.73 0.57 -1.21 0.84 -1.43 0.81 s -0.52 -0.28 -0.88 -0.74 l -7.44 -9.51 c -0.29 -0.37 -0.41 -0.67 -0.35 -0.89 s 0.43 -0.59,1.1 -1.12 c 0.8 -0.63,1.47 -0.79,2 -0.47 0.51 0.3 0.9 0.45,1.16 0.43 0.26 -0.01 0.59 -0.18 0.99 -0.49 l 28.12 -22.01 h -0.01 Z " fill="#3f2104" id="path5625" style="--darkreader-inline-fill: #321a03;" data-darkreader-inline-fill=""></path><path d=" M 668.99,166.31 l -12.31,9.64 l 1.15,1.47 c 0.31 0.4 0.63 0.63 0.95 0.68 s 0.8 -0.1,1.46 -0.45 c 1.16 -0.63,1.88 -0.96,2.16 -1.01 0.29 -0.05 0.52 0.04 0.7 0.27 0.89,1.14,1.35,1.82,1.37,2.04 s -0.28 0.58 -0.91,1.08 l -7.18,5.62 c -0.45 0.35 -0.79 0.5 -1.04 0.47 -0.25 -0.04 -0.67 -0.43 -1.25 -1.18 -0.38 -0.49 -0.55 -0.89 -0.5 -1.19 0.05 -0.31 0.43 -0.86,1.14 -1.68 0.64 -0.75 0.98 -1.27,1.04 -1.56 s -0.04 -0.59 -0.29 -0.9 l -1.32 -1.68 -14.86,11.63 0.89,1.14 c 0.55 0.7,1.13,1.03,1.73 0.99 s 2.08 -0.51,4.42 -1.39 c 0.98 -0.37,1.7 -0.53,2.14 -0.46 0.45 0.07 0.92 0.42,1.43,1.07 0.7 0.89 0.76,1.56 0.18,2.01 -0.17 0.14 -0.45 0.3 -0.82 0.5 l -5.52,3.03 c -1,.56 -1.63 0.86 -1.88 0.9 -0.25 0.05 -0.57 -0.17 -0.95 -0.66 l -11.26 -14.38 c -0.28 -0.36 -0.38 -0.65 -0.29 -0.88 s 0.52 -0.65,1.32 -1.27 c 0.5 -0.39,1.07 -0.42,1.71 -0.08 0.95 0.53,1.71 0.57,2.29 0.12 l 26.89 -21.05 c 0.26 -0.23 0.28 -0.77 0.06 -1.61 -0.15 -0.58 -0.17 -0.97 -0.06 -1.19 0.11 -0.21 0.5 -0.58,1.16 -1.1 0.56 -0.44 0.93 -0.66,1.1 -0.66 s 0.43 0.21 0.75 0.63 l 10.77,13.76 c 0.27 0.34 0.41 0.64 0.42 0.89 c 0,.25 -0.17 0.58 -0.53,1.01 l -4.7,5.45 c -0.24 0.28 -0.41 0.46 -0.51 0.54 -0.39 0.3 -0.85 0.11 -1.4 -0.59 -0.61 -0.78 -0.93 -1.37 -0.95 -1.77 s 0.23 -1.01 0.75 -1.81 c 0.95 -1.46,1.55 -2.54,1.8 -3.26 s 0.22 -1.27 -0.09 -1.67 l -1.14 -1.46 h -0.02 Z " fill="#3f2104" id="path8827" style="--darkreader-inline-fill: #321a03;" data-darkreader-inline-fill=""></path><path d=" M 667.43,189.9 l -15.22,11.92 c -0.63 0.5 -0.83,1.23 -0.58,2.19 0.2 0.82 0.05,1.42 -0.46,1.82 -1.05 0.82 -1.65,1.25 -1.81,1.29 -0.15 0.04 -0.38 -0.13 -0.67 -0.5 l -4.48 -5.72 c -0.22 -0.29 -0.25 -0.55 -0.09 -0.8 0.17 -0.25 0.69 -0.71,1.57 -1.4 0.4 -0.31 0.83 -0.34,1.29 -0.08 0.91 0.48,1.57 0.56,1.99 0.23 l 25.49 -19.95 c 0.62 -0.48,1.04 -0.9,1.26 -1.26 s 0.27 -0.81 0.16 -1.37 c -0.11 -0.49 -0.11 -0.87,0 -1.15 s 0.44 -0.64,1 -1.08 c 1.01 -0.79,1.72 -0.92,2.13 -0.39 l 4.67,5.96 -11.15,20.43 l 12.41 -9.71 c 0.69 -0.54 0.91 -1.28 0.64 -2.21 -0.14 -0.56 -0.14 -1,0 -1.31 s 0.56 -0.73,1.25 -1.27 c 0.43 -0.34 0.73 -0.5 0.89 -0.49 s 0.34 0.14 0.53 0.39 l 4.66,5.95 c 0.22 0.36 -0.13 0.9 -1.03,1.61 -0.53 0.42 -0.9 0.65 -1.09 0.7 s -0.43,0 -0.71 -0.16 c -0.6 -0.35 -1.04 -0.51 -1.32 -0.49 -0.29 0.02 -0.6 0.15 -0.93 0.41 l -30.64,23.99 -2.87 -3.67 l 13.11 -23.9 v 0.02 Z " fill="#3f2104" id="path8383" style="--darkreader-inline-fill: #321a03;" data-darkreader-inline-fill=""></path><path d=" M 696.25,200.64 l -0.77 -0.98 c -0.25 -0.32 -0.67 -0.41 -1.25 -0.28 s -1.89 0.82 -3.93,2.06 c -0.9 0.54 -1.54 0.78 -1.91 0.73 -0.38 -0.05 -0.82 -0.4 -1.32 -1.05 s -0.72 -1.08 -0.71 -1.37 c 0 -0.3 0.24 -0.62 0.68 -0.97 0.26 -0.2 0.52 -0.4 0.79 -0.59 l 5.23 -3.67 c 0.61 -0.43,1.07 -0.63,1.39 -0.6 0.31 0.03 0.74 0.39,1.28,1.08 l 12.39,15.82 c 0.36 0.46 0.52 0.79 0.49 0.98 -0.04 0.19 -0.39 0.6 -1.06,1.22 l -4.15,3.84 c -0.32 0.3 -0.66 0.59 -1.02 0.87 -0.43 0.34 -0.8 0.54 -1.12 0.61 -0.31 0.07 -0.7-0.18 -1.15 -0.75 -0.57 -0.73 -0.87 -1.26 -0.89 -1.58 s 0.3 -0.84 0.96 -1.57 c 1.07 -1.21,1.9 -2.26,2.48 -3.16 s 0.72 -1.55 0.4 -1.95 l -0.51 -0.65 -27.69,21.67 c -0.79 0.62 -1.07,1.39 -0.83,2.32 0.1 0.39 0.09 0.7 -0.02 0.93 s -0.45 0.58 -1.02,1.03 c -0.73 0.57 -1.21 0.84 -1.43 0.81 s -0.52 -0.28 -0.88 -0.74 l -7.44 -9.51 c -0.29 -0.37 -0.41 -0.67 -0.35 -0.89 s 0.43 -0.59,1.1 -1.12 c 0.8 -0.63,1.47 -0.79,2 -0.47 0.51 0.3 0.9 0.45,1.16 0.43 0.26 -0.01 0.59 -0.18 0.99 -0.49 l 28.12 -22.01 h -0.01 Z " fill="#3f2104" id="path8821" style="--darkreader-inline-fill: #321a03;" data-darkreader-inline-fill=""></path><path d=" M 689.7,243.67 l -4.21 -5.38 -2.18,1.3 c 0,0 -0.12 0.07 -0.23 0.11 -0.51 0.21 -0.93 0.44 -1.26 0.7 -0.52 0.41 -0.69,1.08 -0.53,2.04 0.09 0.5 0.07 0.88 -0.06,1.12 s -0.43 0.55 -0.89 0.91 c -0.59 0.46 -0.97 0.71 -1.14 0.74 s -0.35 -0.08 -0.54 -0.32 l -4.44 -5.67 c -0.25 -0.32 -0.04 -0.73 0.62 -1.25 0.79 -0.62,1.63 -0.87,2.51 -0.75 0.82 0.13,1.5 0.03,2.06 -0.29 l 28.5 -15.87 c 0.44 -0.23 0.81 -0.46,1.1 -0.69 0.45 -0.35 0.6 -0.97 0.46 -1.86 -0.05 -0.42 0.21 -0.87 0.8 -1.33 0.79 -0.62,1.31 -0.96,1.57 -1.02 0.25 -0.06 0.53 0.1 0.82 0.47 l 6.45,8.23 c 0.39 0.5 0.43,1.04 0.11,1.61 s -1.19,1.58 -2.63,3.03 c -0.55 0.57 -1.09,1.13 -1.63,1.69 l -20.93,22.09 c -1.02,1.07 -1.56,2.18 -1.63,3.33 -0.01 0.31 -0.04 0.53 -0.09 0.66 s -0.31 0.38 -0.78 0.75 c -0.73 0.57 -1.22 0.88 -1.47 0.9 -0.24 0.03 -0.5-0.12 -0.75 -0.45 l -7.5 -9.58 c -0.22 -0.29 -0.06 -0.64 0.48 -1.07 0.69 -0.54,1.15 -0.84,1.38 -0.91 s 0.59 -0.01,1.09 0.15 c 0.71 0.25,1.31 0.19,1.8 -0.2 s 1.55 -1.47,3.14 -3.22 v 0.03 Z m 17.31 -17.71 l -18.76,10.76 l 3.75,4.79 l 15.01 -15.55 Z " fill="#3f2104" id="path6140" style="--darkreader-inline-fill: #321a03;" data-darkreader-inline-fill=""></path><path d=" M 700.84,268.21 l 0.96,1.23 c 0.49 0.63,1.11 0.9,1.85 0.81 s 2.21 -0.61,4.42 -1.55 c 0.84 -0.38,1.43 -0.51,1.77 -0.38 s 0.74 0.48,1.21,1.07 c 0.51 0.65 0.78,1.11 0.82,1.38 s -0.09 0.52 -0.37 0.74 c -0.2 0.16 -0.55 0.37 -1.05 0.65 l -5.74,3.28 c -0.6 0.33 -1.04 0.49 -1.32 0.49 s -0.58 -0.21 -0.91 -0.63 l -11.11 -14.19 c -0.47 -0.6-0.34 -1.2 0.41 -1.78 0.57 -0.45 0.98 -0.7,1.2 -0.75 0.23 -0.05 0.49 0.02 0.77 0.21 0.9 0.62,1.98 0.44,3.23 -0.54 L 722.6,238.2 c 0.53 -0.42 0.71 -0.97 0.54 -1.67 -0.16 -0.59 -0.17 -1.03 -0.02 -1.31 s 0.49 -0.63,1.02 -1.05 c 0.63 -0.49,1.06 -0.76,1.28 -0.79 s 0.47 0.14 0.77 0.51 l 7.78,9.94 c 0.29 0.37 0.4 0.7 0.33 0.98 s -0.5 0.73 -1.3,1.34 c -0.47 0.37 -0.83 0.58 -1.07 0.61 -0.24 0.04 -0.57 -0.09 -1.01 -0.38 -0.81 -0.53 -1.56 -0.52 -2.27 0.04 l -27.82,21.77 0.01 0.02 Z " fill="#3f2104" id="path9971" style="--darkreader-inline-fill: #321a03;" data-darkreader-inline-fill=""></path><path d=" M 749.04,261.91 c 1.65,2.11,2.38,4.5,2.17,7.15 s -1.24,5.49 -3.09,8.52 -4.82,6.14 -8.92,9.35 c -4.92,3.85 -9.81,6.15 -14.69,6.89 s -8.67 -0.61 -11.38 -4.08 -2.96 -7.18 -1.13 -11.67 c 1.82 -4.49,5.35 -8.78,10.58 -12.87 s 10.46 -6.62,15.31 -7.27 s 8.56 0.68,11.15,3.98 Z m -3.78,5.7 c 1.8 -1.41,2.24 -2.69,1.33 -3.86 -0.38 -0.49 -0.93 -0.73 -1.65 -0.73 s -1.4 0.26 -2.04 0.77 l -26.03,20.37 c -0.88 0.69 -1.41,1.38 -1.59,2.08 s -0.09,1.29 0.28,1.76 c 0.42 0.53,1,.76,1.76 0.69 s 1.44 -0.35,2.06 -0.83 l 25.87 -20.25 h 0.01 Z " fill="#3f2104" id="path8625" style="--darkreader-inline-fill: #321a03;" data-darkreader-inline-fill=""></path><path d=" M 738.03,310.87 l 26.11 -20.44 c 0.25 -0.27 0.27 -0.7 0.04 -1.28 -0.18 -0.46 -0.21 -0.85 -0.08 -1.15 0.12 -0.3 0.55 -0.74,1.28 -1.32 0.53 -0.42 0.96 -0.6,1.28 -0.55 s 0.78 0.47,1.39,1.24 l 8.09,10.33 c 2.31,2.95,2.86,6.45,1.66,10.51 s -4.96,8.56 -11.27,13.5 c -5.75,4.5 -10.78,6.93 -15.1,7.3 s -7.68 -0.99 -10.09 -4.07 l -8.91 -11.38 c -0.25 -0.32 -0.34 -0.6-0.29 -0.83 0.06 -0.24 0.34 -0.56 0.86 -0.97 0.62 -0.48,1.02 -0.77,1.21 -0.85 s 0.53 -0.01,1.03 0.2 c 1.05 0.48,1.98 0.4,2.8 -0.24 h -0.01 Z m 33.73 -13.47 L 741.9,320.78 l 0.89,1.14 c 0.63 0.8,1.43,1.13,2.39 0.98 s 2.3 -0.89,4.01 -2.23 l 22.04 -17.25 c 0.96 -0.75,1.57 -1.6,1.81 -2.53 s 0.03 -1.82 -0.63 -2.67 l -0.64 -0.82 h -0.01 Z " fill="#3f2104" id="path2521" style="--darkreader-inline-fill: #321a03;" data-darkreader-inline-fill=""></path><path d=" M 790.56,321.6 l -12.31,9.64 l 1.15,1.47 c 0.31 0.4 0.63 0.63 0.95 0.68 s 0.8 -0.1,1.46 -0.45 c 1.16 -0.63,1.88 -0.96,2.16 -1.01 0.29 -0.05 0.52 0.04 0.7 0.27 0.89,1.14,1.35,1.82,1.37,2.04 s -0.28 0.58 -0.91,1.08 l -7.18,5.62 c -0.45 0.35 -0.79 0.5 -1.04 0.47 -0.25 -0.04 -0.67 -0.43 -1.25 -1.18 -0.38 -0.49 -0.55 -0.89 -0.5 -1.19 0.05 -0.31 0.43 -0.86,1.14 -1.68 0.64 -0.75 0.98 -1.27,1.04 -1.56 s -0.04 -0.59 -0.29 -0.9 l -1.32 -1.68 -14.86,11.63 0.89,1.14 c 0.55 0.7,1.13,1.03,1.73 0.99 s 2.08 -0.51,4.42 -1.39 c 0.98 -0.37,1.7 -0.53,2.14 -0.46 0.45 0.07 0.92 0.42,1.43,1.07 0.7 0.89 0.76,1.56 0.18,2.01 -0.17 0.14 -0.45 0.3 -0.82 0.5 l -5.52,3.03 c -1,.56 -1.63 0.86 -1.88 0.9 -0.25 0.05 -0.57 -0.17 -0.95 -0.66 L 751.23,337.6 c -0.28 -0.36 -0.38 -0.65 -0.29 -0.88 s 0.52 -0.65,1.32 -1.27 c 0.5 -0.39,1.07 -0.42,1.71 -0.08 0.95 0.53,1.71 0.57,2.29 0.12 l 26.89 -21.05 c 0.26 -0.23 0.28 -0.77 0.06 -1.61 -0.15 -0.58 -0.17 -0.97 -0.06 -1.19 0.11 -0.21 0.5 -0.58,1.16 -1.1 0.56 -0.44 0.93 -0.66,1.1 -0.66 s 0.43 0.21 0.75 0.63 l 10.77,13.76 c 0.27 0.34 0.41 0.64 0.42 0.89 c 0,.25 -0.17 0.58 -0.53,1.01 l -4.7,5.45 c -0.24 0.28 -0.41 0.46 -0.51 0.54 -0.39 0.3 -0.85 0.11 -1.4 -0.59 -0.61 -0.78 -0.93 -1.37 -0.95 -1.77 s 0.23 -1.01 0.75 -1.81 c 0.95 -1.46,1.55 -2.54,1.8 -3.26 s 0.22 -1.27 -0.09 -1.67 l -1.14 -1.46 h -0.02 Z " fill="#3f2104" id="path4649" style="--darkreader-inline-fill: #321a03;" data-darkreader-inline-fill=""></path><path d=" M 797.45,355.99 l -15.22,11.92 c -0.63 0.5 -0.83,1.23 -0.58,2.19 0.2 0.82 0.05,1.42 -0.46,1.82 -1.05 0.82 -1.65,1.25 -1.81,1.29 -0.15 0.04 -0.38 -0.13 -0.67 -0.5 l -4.48 -5.72 c -0.22 -0.29 -0.25 -0.55 -0.09 -0.8 0.17 -0.25 0.69 -0.71,1.57 -1.4 0.4 -0.31 0.83 -0.34,1.29 -0.08 0.91 0.48,1.57 0.56,1.99 0.23 l 25.49 -19.95 c 0.62 -0.48,1.04 -0.9,1.26 -1.26 s 0.27 -0.81 0.16 -1.37 c -0.11 -0.49 -0.11 -0.87,0 -1.15 s 0.44 -0.64,1 -1.08 c 1.01 -0.79,1.72 -0.92,2.13 -0.39 l 4.67,5.96 -11.15,20.43 l 12.41 -9.71 c 0.69 -0.54 0.91 -1.28 0.64 -2.21 -0.14 -0.56 -0.14 -1,0 -1.31 s 0.56 -0.73,1.25 -1.27 c 0.43 -0.34 0.73 -0.5 0.89 -0.49 s 0.34 0.14 0.53 0.39 l 4.66,5.95 c 0.22 0.36 -0.13 0.9 -1.03,1.61 -0.53 0.42 -0.9 0.65 -1.09 0.7 s -0.43,0 -0.71 -0.16 c -0.6 -0.35 -1.04 -0.51 -1.32 -0.49 -0.29 0.02 -0.6 0.15 -0.93 0.41 l -30.64,23.99 -2.87 -3.67 l 13.11 -23.9 v 0.02 Z " fill="#3f2104" id="path3137" style="--darkreader-inline-fill: #321a03;" data-darkreader-inline-fill=""></path><path d=" M 824.87,359.98 l 7.31,9.34 c 0.25 0.32 0.34 0.57 0.27 0.76 s -0.46 0.57 -1.16,1.12 -1.34 0.71 -1.89 0.47 c -0.42 -0.18 -0.77 -0.25 -1.04 -0.21 s -0.67 0.27 -1.21 0.68 l -24.17,18.92 c -0.66 0.52 -1.05,1.12 -1.17,1.82 -0.12 0.69 0.05,1.33 0.5,1.9 0.42 0.53,1,.8,1.75 0.82 0.75 0.01,1.41 -0.2,1.97 -0.64 l 24.15 -18.9 c 0.42 -0.33 0.68 -0.59 0.78 -0.8 s 0.15 -0.57 0.15 -1.07 c 0 -0.78 0.38 -1.48,1.16 -2.09 0.61 -0.48,1.03 -0.69,1.26 -0.65 s 0.45 0.19 0.65 0.45 l 3.65,4.66 c 0.41 0.52 0.35 0.98 -0.17,1.38 l -1.03 0.81 c -0.46 0.36 -0.77 0.56 -0.94 0.6 s -0.41 -0.04 -0.72 -0.23 c -0.76 -0.5 -1.49 -0.47 -2.19 0.08 l -23.52,18.42 c -2.23,1.74 -4.49,2.49 -6.8,2.22 -2.3 -0.26 -4.35 -1.53 -6.14 -3.82 -2 -2.56 -2.84 -5.05 -2.51 -7.47 s 1.79 -4.65,4.39 -6.69 l 22.73 -17.79 c 0.6 -0.47 0.8 -1.14 0.59 -2 -0.1-0.43 -0.12 -0.72 -0.05 -0.88 s 0.31 -0.4 0.71 -0.71 c 0.83 -0.65,1.4 -1.01,1.69 -1.08 s 0.63 0.13,1,.61 v -0.03 Z " fill="#3f2104" id="path9388" style="--darkreader-inline-fill: #321a03;" data-darkreader-inline-fill=""></path><path d=" M 844.38,390.36 L 832.07,400 l 1.15,1.47 c 0.31 0.4 0.63 0.63 0.95 0.68 s 0.8 -0.1,1.46 -0.45 c 1.16 -0.63,1.88 -0.96,2.16 -1.01 0.29 -0.05 0.52 0.04 0.7 0.27 0.89,1.14,1.35,1.82,1.37,2.04 s -0.28 0.58 -0.91,1.08 l -7.18,5.62 c -0.45 0.35 -0.79 0.5 -1.04 0.47 -0.25 -0.04 -0.67 -0.43 -1.25 -1.18 -0.38 -0.49 -0.55 -0.89 -0.5 -1.19 0.05 -0.31 0.43 -0.86,1.14 -1.68 0.64 -0.75 0.98 -1.27,1.04 -1.56 s -0.04 -0.59 -0.29 -0.9 l -1.32 -1.68 -14.86,11.63 0.89,1.14 c 0.55 0.7,1.13,1.03,1.73 0.99 s 2.08 -0.51,4.42 -1.39 c 0.98 -0.37,1.7 -0.53,2.14 -0.46 0.45 0.07 0.92 0.42,1.43,1.07 0.7 0.89 0.76,1.56 0.18,2.01 -0.17 0.14 -0.45 0.3 -0.82 0.5 l -5.52,3.03 c -1,.56 -1.63 0.86 -1.88 0.9 -0.25 0.05 -0.57 -0.17 -0.95 -0.66 l -11.26 -14.38 c -0.28 -0.36 -0.38 -0.65 -0.29 -0.88 s 0.52 -0.65,1.32 -1.27 c 0.5 -0.39,1.07 -0.42,1.71 -0.08 0.95 0.53,1.71 0.57,2.29 0.12 l 26.89 -21.05 c 0.26 -0.23 0.28 -0.77 0.06 -1.61 -0.15 -0.58 -0.17 -0.97 -0.06 -1.19 0.11 -0.21 0.5 -0.58,1.16 -1.1 0.56 -0.44 0.93 -0.66,1.1 -0.66 s 0.43 0.21 0.75 0.63 l 10.77,13.76 c 0.27 0.34 0.41 0.64 0.42 0.89 c 0,.25 -0.17 0.58 -0.53,1.01 l -4.7,5.45 c -0.24 0.28 -0.41 0.46 -0.51 0.54 -0.39 0.3 -0.85 0.11 -1.4 -0.59 -0.61 -0.78 -0.93 -1.37 -0.95 -1.77 s 0.23 -1.01 0.75 -1.81 c 0.95 -1.46,1.55 -2.54,1.8 -3.26 s 0.22 -1.27 -0.09 -1.67 l -1.14 -1.46 h -0.02 Z " fill="#3f2104" id="path9" style="--darkreader-inline-fill: #321a03;" data-darkreader-inline-fill=""></path><path d=" M 842.04,425.69 l 19.25 -9.72 c 0.17 -0.08 0.33 -0.19 0.49 -0.31 0.58 -0.45 0.75 -1.18 0.52 -2.18 -0.13 -0.64 -0.09 -1.04 0.12 -1.21 0.1 -0.08 0.2 -0.15 0.32 -0.21 l 0.34 -0.27 c 0.64 -0.5,1.07 -0.79,1.28 -0.85 s 0.43 0.05 0.66 0.33 l 4.17,5.33 c 0.19 0.24 0.24 0.44 0.14 0.6 s -0.43 0.46 -1,.9 c -0.67 0.53 -1.1 0.83 -1.28 0.93 -0.18 0.09 -0.39 0.09 -0.62,0 -0.63 -0.21 -1.09 -0.29 -1.39 -0.24 s -0.94 0.32 -1.92 0.81 L 830.7,435.93 l -1.98 0.99 c -0.18 0.1 -0.38,0 -0.59 -0.27 l -3.39 -4.33 c -0.15 -0.19 -0.17 -0.4-0.08 -0.63 0.09 -0.24 0.54 -0.82,1.35 -1.75 l 24.25 -28.05 c 0.62 -0.69 0.87 -1.45 0.76 -2.27 -0.05 -0.42 -0.06 -0.7-0.02 -0.84 s 0.21 -0.32 0.51 -0.56 c 0.1 -0.08 0.2 -0.15 0.32 -0.21 0.17 -0.11 0.32 -0.22 0.47 -0.33 0.1 -0.08 0.19 -0.16 0.26 -0.24 l 0.3 -0.24 c 0.47 -0.37 0.84 -0.38,1.11 -0.03 l 7.68,9.8 c 0.26 0.33 0.09 0.73 -0.51,1.2 -0.01 0.01 -0.44 0.32 -1.27 0.93 -0.21 0.12 -0.48 0.09 -0.82 -0.08 -0.8-0.4 -1.52 -0.34 -2.18 0.18 -0.16 0.12 -0.32 0.29 -0.49 0.49 L 842.03,425.7 l 0.01 -0.01 Z " fill="#3f2104" id="path9083" style="--darkreader-inline-fill: #321a03;" data-darkreader-inline-fill=""></path><path d=" M 879.72,428.84 c 1.65,2.11,2.38,4.5,2.17,7.15 s -1.24,5.49 -3.09,8.52 -4.82,6.14 -8.92,9.35 c -4.92,3.85 -9.81,6.15 -14.69,6.89 s -8.67 -0.61 -11.38 -4.08 -2.96 -7.18 -1.13 -11.67 c 1.82 -4.49,5.35 -8.78,10.58 -12.87 s 10.46 -6.62,15.31 -7.27 s 8.56 0.68,11.15,3.98 Z m -3.78,5.7 c 1.8 -1.41,2.24 -2.69,1.33 -3.86 -0.38 -0.49 -0.93 -0.73 -1.65 -0.73 s -1.4 0.26 -2.04 0.77 l -26.03,20.37 c -0.88 0.69 -1.41,1.38 -1.59,2.08 s -0.09,1.29 0.28,1.76 c 0.42 0.53,1,.76,1.76 0.69 s 1.44 -0.35,2.06 -0.83 l 25.87 -20.25 h 0.01 Z " fill="#3f2104" id="path7820" style="--darkreader-inline-fill: #321a03;" data-darkreader-inline-fill=""></path></g></g><circle r="42.86" transform="translate(434.01 498.89)" fill="#7d898f" id="circle5874" style="--darkreader-inline-fill: #5c6468;" data-darkreader-inline-fill=""></circle></g></g><g id="g6566"><ellipse rx="51.22" ry="30.99" transform="matrix(.535827-.844328 0.844328 0.535827 37.938911 643.032659)" fill="#7d898f" id="ellipse2546" style="--darkreader-inline-fill: #5c6468;" data-darkreader-inline-fill=""></ellipse><g id="g1100"><path d=" M 34.82,515.62 h 150.56 c 14.44,0,26.16,11.72,26.16,26.16 v 35.99 c 0,14.44 -11.72,26.16 -26.16,26.16 h -150.56 c -14.44,0 -26.16 -11.72 -26.16 -26.16 v -35.99 c 0 -14.44,11.72 -26.16,26.16 -26.16 Z " transform="matrix(.674689-.738102 0.738102 0.674689-377.36 263.38)" fill="#4e2b07" id="path4580" style="--darkreader-inline-fill: #3e2206;" data-darkreader-inline-fill=""></path><path d=" M 64.24,544.49 l 64.05 -70.08 c 9.75 -10.66,26.29 -11.41,36.95 -1.66 l 26.56,24.28 c 10.66,9.75,11.41,26.29,1.66,36.95 l -45.02,49.26 c -25.57 -1.32 -51.28 -13.64 -75.77 -32.1 -2.89 -2.18 -5.7 -4.4 -8.43 -6.66 v 0.01 Z " fill="#3f2106" id="path4924" style="--darkreader-inline-fill: #321a05;" data-darkreader-inline-fill=""></path></g><ellipse rx="97.04" ry="61.4" transform="matrix(.556586-.83079 0.83079 0.556586 346.511084 332.3694)" fill="#727d84" id="ellipse9886" style="--darkreader-inline-fill: #5d6468;" data-darkreader-inline-fill=""></ellipse><g id="g5414"><path d=" M 261.82,521.61 c -50.71,67.35 -109.54,56.11 -162.63,16.11 -53.08 -40 -80.36 -93.54 -29.65 -160.89 s 134.87 -89.56,187.99 -49.6 c 53.13,39.96,55.03,126.99,4.33,194.34 l -0.04 0.04 Z " fill="#cac93c" id="path4170" style="--darkreader-inline-fill: #767520;" data-darkreader-inline-fill=""></path><path d=" M 69.54,376.83 c 15.95 -21.19,35.21 -37.9,55.78 -49.63 -12.78,16.11 -22.24,35.12 -27.16,56.32 -18.34,79.02,33.21,158.5,115.15,177.52 0.87 0.2,1.74 0.39,2.61 0.57 -38.5,18.38 -79.06,4.49 -116.72 -23.9 -53.08 -40 -80.36 -93.54 -29.65 -160.89 l -0.01 0.01 Z " fill="#92921a" id="path6096" style="--darkreader-inline-fill: #757515;" data-darkreader-inline-fill=""></path><path d=" M 65.29,505.48 c 26.56 -20.64,72.36 -60.46,98.89 -107.58 c 16.37 -28.05,27.59 -58.48,33.41 -90.53 c 4.96 0.08,9.87 0.48,14.69,1.19 -6.05,34.25 -17.94,66.78 -35.37,96.64 -27.41,48.69 -74.29,89.73 -101.93,111.32 -3.47 -3.59 -6.71 -7.27 -9.7 -11.03 l 0.01 -0.01 Z " fill="#1c1d15" id="path4145" style="--darkreader-inline-fill: #161711;" data-darkreader-inline-fill=""></path><path d=" M 148.59,564.74 c 1.78 -1.05,3.68 -2.13,5.76 -3.32 c 22.48 -12.81,60.11 -34.25,94.57 -97.09 l 0.1 -0.17 c 17.27 -29.59,28.82 -61.83,34.33 -95.8 l 6.33,1.03 c 2.15,5.26,3.93,10.72,5.31,16.37 -6.51,30.22 -17.65,59 -33.24,85.73 -32.33,58.91 -68.56,84.12 -91.87,97.92 -7.1 -0.77 -14.2 -2.35 -21.28 -4.66 l -0.01 -0.01 Z " fill="#1c1d15" id="path8674" style="--darkreader-inline-fill: #161711;" data-darkreader-inline-fill=""></path></g><g id="g6300"><circle r="18.15" transform="translate(253.35 362.86)" fill="#d82d0c" id="circle3013" style="--darkreader-inline-fill: #ad240a;" data-darkreader-inline-fill=""></circle><path d=" M 283.77,395.26 l 13.56 -23.91 c 4.19 -7.4 -2.65 -16.17 -10.84 -13.9 l -18.73,5.18 c -5.08,1.4 -8.06,6.66 -6.66,11.74 l 5.18,18.73 c 2.26,8.19,13.31,9.56,17.5,2.16 h -0.01 Z " fill="#d82d0c" id="path5468" style="--darkreader-inline-fill: #ad240a;" data-darkreader-inline-fill=""></path><path d=" M 218.34,330.27 l -12.62,24.42 c -3.9,7.55,3.27,16.05,11.37,13.47 l 18.52 -5.9 c 5.02 -1.6,7.8 -6.97,6.2 -11.99 l -5.9 -18.52 c -2.58 -8.1 -13.67 -9.04 -17.57 -1.49 v 0.01 Z " fill="#d82d0c" id="path5523" style="--darkreader-inline-fill: #ad240a;" data-darkreader-inline-fill=""></path></g><g id="g9380"><circle r="102.67" transform="matrix(.707107-.707107 0.707107 0.707107 302.009236 267.622598)" fill="#7d898f" id="circle1755" style="--darkreader-inline-fill: #5c6468;" data-darkreader-inline-fill=""></circle><path d=" M 287.96,187.98 c 22.92,24.99,9.49,74.61 -30,110.84 -12.88,11.82 -26.94,20.73 -40.84,26.54 -28.27 -41.46 -22.58 -98.47,15.48 -133.39 c 8.11 -7.44,17.09 -13.31,26.58 -17.66 c 11.54,1.31,21.54,5.79,28.78,13.68 v -0.01 Z " fill="#727d84" id="path4909" style="--darkreader-inline-fill: #5d6468;" data-darkreader-inline-fill=""></path><ellipse rx="97.04" ry="61.4" transform="matrix(.736805-.676105 0.676105 0.736805 217.812695 239.677101)" fill="#9c9292" id="ellipse6442" style="--darkreader-inline-fill: #535a5d;" data-darkreader-inline-fill=""></ellipse></g><g id="ewhu8pT3eHD61_tr" transform="translate(330.825123,340.221251) rotate(0)"><g transform="translate(-330.825108,-340.22125)" id="g2560"><path d=" M 305.99,352.2 v 0 c -8.93 -11.17 -3.19 -27.95,7.19 -35.53 c 11.92 -8.63,27.15 -3.26,35.53,7.19 c 1.63,2.02,3.22,4.01,4.9,5.93 -2.54 -2.91 0.36 0.31 0.75 0.69 c 2.67,2.78,5.29,5.54,8.08,8.19 c 5.9,5.59,12.16,10.71,18.76,15.41 c 1.37 0.99,3,1.85 0.62 0.43 c 1.45 0.84,2.84,1.78,4.34,2.64 c 3.67,2.18,7.46,4.11,11.28,5.98 c 3.25,1.6,6.66,3.01,10.06,4.29 c 1.01 0.3,6.18,1.75,1.47 0.53 c 1.54 0.37,3.09 0.88,4.61,1.3 c 6.62,1.78,13.28,2.42,20.06,3.63 c 2.83 0.49 -0.1 0.08 -0.67 0.06 c 1.62 0.09,3.21 0.1,4.81 0.12 c 3.19 0.03,6.4 -0.13,9.59 -0.36 c 2.39 -0.17,4.75 -0.55,7.12 -0.8 0.69 -0.11,4.75 -0.81 0.64,0 c 2.64 -0.56,5.24 -1.27,7.8 -2.06 c 2.87 -0.9,5.74 -1.92,8.54 -3.05 c 1.38 -0.6,2.77 -1.2,4.15 -1.81 c 3.56 -1.52 -3.02,1.98 0.2 -0.16 c 5.4 -3.56,10.88 -6.64,15.88 -10.84 -4.04,3.4,2.29 -2.46,3.14 -3.39 c 1.79 -1.94,3.52 -3.91,5.12 -6 c 1.5 -1.89,2.75 -3.9 0.74 -0.73 0.81 -1.27,1.63 -2.53,2.34 -3.85 c 1.39 -2.58,2.76 -5.24,3.92 -8 c 0.61 -1.37,1.08 -2.73,1.64 -4.13 -0.33 0.93 -1.38,5.02 -0.1 0.21 0.72 -2.91,1.47 -5.74,1.99 -8.63 0.32 -1.83 0.64 -3.66 0.83 -5.48 0.1 -0.72 0.6 -5.4 0.32 -2.21 -0.21,2.52 0.07 -4.32 0.04 -5.55 -0.12 -6.02 -0.81 -11.92 -1.83 -17.8 0.97,5.34 -0.53 -1.8 -0.66 -2.31 -0.32 -1.05 -0.61 -2.15 -0.92 -3.21 -0.84 -2.85 -1.82 -5.69 -2.89 -8.46 -0.52 -1.41 -1.07 -2.77 -1.68 -4.15 -0.24 -0.56 -2.27 -4.89 -0.99 -2.28 s -0.97 -1.82 -1.28 -2.36 c -0.78 -1.41 -1.56 -2.82 -2.37 -4.17 -3.44 -5.78 -7.34 -11.41 -11.54 -16.68 -1.01 -1.2 -2.05 -2.48 -3.06 -3.68 0.75 0.82,3.06,3.29 -0.39 -0.38 -1.92 -2.09 -3.86 -4.14 -5.86 -6.07 -9.45 -9.31 -19.88 -17.56 -30.81 -25.04 -11.78 -8.09 -9.99 -26.48 -2.17 -36.16 c 9.42 -11.64,25.12 -9.7,36.16 -2.17 c 30.37,20.85,56.1,48.4,70.76,82.48 c 12.8,29.91,14.38,63.21,3.23,94.69 -11.15,31.47 -36.63,54.83 -68.39,67.36 s -65.43,10.67 -98.71 -1.11 -60.55 -35.28 -82.35 -62.5 l 0.08 -0.03 -0.02 0.01 Z " fill="#7d898f" id="path416" style="--darkreader-inline-fill: #5c6468;" data-darkreader-inline-fill=""></path><g id="g8943"><path d=" M 352.42,44.7 c 14.77 -8.7,37.81,2.03,52.26,8.73 c 8.08,3.77,70.85,33.99,72.06,84.66 0.35,15.99 -5.21,42.72 -25.28,50.35 -31.15,11.93 -82.48 -27.79 -101.27 -69.09 -10.95 -24.14 -17.34 -63.06,2.22 -74.6 l 0.03 -0.05 h -0.02 Z " fill="#352f0e" id="path3295" style="--darkreader-inline-fill: #2a260b;" data-darkreader-inline-fill=""></path><path d=" M 385.72,66.48 c 4.09 -9.26,14.46 -14.99,35.1 -26 c 24.79 -13.32,41.51 -22.22,50.38 -15.62 c 7.08,5.27,1.14,14.52,8.59,28.04 c 9.96,18.2,28.16,15.29,32.57,26.67 c 7.76,20.07 -32.6,71.79 -74.58,65.86 -24.06 -3.42 -38.46 -24.31 -41.38 -28.56 -3.35 -4.78 -20.09 -29.13 -10.74 -50.41 l 0.05 0.03 0.01 -0.01 Z " fill="#4c420a" id="path425" style="--darkreader-inline-fill: #3d3508;" data-darkreader-inline-fill=""></path></g></g></g><ellipse rx="31.1" ry="21.5" transform="matrix(.515786-.856718 0.856718 0.515786 307.876092 283.597534)" fill="none" stroke="#f9f97c" stroke-width="6" stroke-miterlimit="10" id="ellipse4925" style="--darkreader-inline-stroke: #f9f973;" data-darkreader-inline-stroke=""></ellipse></g></svg>