<?xml version="1.0" encoding="UTF-8" standalone="no"?>
<!-- Created with Inkscape (http://www.inkscape.org/) -->

<svg
   width="1470.0833"
   height="218.52328"
   viewBox="0 0 388.95952 57.817619"
   version="1.1"
   id="svg1"
   xml:space="preserve"
   inkscape:version="1.3 (0e150ed6c4, 2023-07-21)"
   sodipodi:docname="Switcher.svg"
   inkscape:export-filename="partidas-activas.svg"
   inkscape:export-xdpi="96"
   inkscape:export-ydpi="96"
   xmlns:inkscape="http://www.inkscape.org/namespaces/inkscape"
   xmlns:sodipodi="http://sodipodi.sourceforge.net/DTD/sodipodi-0.dtd"
   xmlns="http://www.w3.org/2000/svg"
   xmlns:svg="http://www.w3.org/2000/svg"><sodipodi:namedview
     id="namedview1"
     pagecolor="#ffffff"
     bordercolor="#000000"
     borderopacity="0.25"
     inkscape:showpageshadow="2"
     inkscape:pageopacity="0.0"
     inkscape:pagecheckerboard="0"
     inkscape:deskcolor="#d1d1d1"
     inkscape:document-units="mm"
     inkscape:zoom="0.52850974"
     inkscape:cx="1055.7989"
     inkscape:cy="511.81649"
     inkscape:window-width="1920"
     inkscape:window-height="1017"
     inkscape:window-x="-8"
     inkscape:window-y="32"
     inkscape:window-maximized="1"
     inkscape:current-layer="g1" /><defs
     id="defs1"><style
       id="style1">&#10;      .cls-1 {&#10;        fill: #e8790a;&#10;      }&#10;&#10;      .cls-2 {&#10;        fill: #f2c394;&#10;      }&#10;&#10;      .cls-3 {&#10;        fill: #a52c14;&#10;      }&#10;&#10;      .cls-4 {&#10;        fill: #f28e1f;&#10;      }&#10;    </style></defs><g
     inkscape:label="Capa 1"
     inkscape:groupmode="layer"
     id="layer1"
     transform="translate(82.193548,-90.987142)"><g
       id="g4"
       transform="matrix(0.26458333,0,0,0.26458333,43.245698,90.98714)"
       inkscape:export-filename="partidas_activas.png"
       inkscape:export-xdpi="96"
       inkscape:export-ydpi="96"><path
         class="cls-4"
         d="m 841.34,218.52 h 146.59 c 6.37,0 10.2,-7.42 6.75,-13.05 l -38.45,-62.61 c -1.72,-2.8 -1.72,-6.39 0,-9.19 l 38.45,-62.61 c 3.46,-5.63 -0.38,-13.05 -6.75,-13.05 H 841.76 c -4.6,0 -8.27,4.06 -8.02,8.9 z"
         id="path1" /><path
         class="cls-2"
         d="m 918.17,72.29 h 75.74 l 0.76,-1.24 c 1.27,-2.07 1.55,-4.37 1.09,-6.47 h -77.59 v 7.7 z"
         id="path2" /><path
         class="cls-2"
         d="m 994.67,205.46 -1.44,-2.34 H 842.81 v 6.69 l 0.05,1.01 h 153.06 c 0.16,-1.78 -0.21,-3.65 -1.26,-5.36 z"
         id="path3" /><path
         class="cls-1"
         d="m 923.02,157.59 -75.16,58.99 c -5.92,4.65 -14.59,0.43 -14.59,-7.1 V 67.51 l 94.19,-56.53 z"
         id="path4" /></g><g
       id="g8"
       transform="matrix(0.26458333,0,0,0.26458333,-82.192961,90.98714)"><path
         class="cls-4"
         d="M 154.64,218.52 H 8.05 c -6.37,0 -10.2,-7.42 -6.75,-13.05 l 38.45,-62.61 c 1.72,-2.8 1.72,-6.39 0,-9.19 L 1.3,71.05 C -2.16,65.42 1.68,58 8.05,58 h 146.17 c 4.6,0 8.27,4.06 8.02,8.9 l -7.6,151.61 z"
         id="path5" /><path
         class="cls-2"
         d="M 77.48,65.35 H 0.08 c -0.24,1.88 0.1,3.88 1.22,5.7 l 1.23,2 h 74.95 z"
         id="path6" /><path
         class="cls-2"
         d="m 152.79,209.82 v -6.69 H 2.74 l -1.44,2.34 c -1.05,1.71 -1.42,3.58 -1.26,5.36 h 152.69 l 0.05,-1.01 z"
         id="path7" /><path
         class="cls-1"
         d="m 72.96,157.59 75.16,58.99 c 5.92,4.65 14.59,0.43 14.59,-7.1 V 67.51 c 0,0 -94.15,-56.75 -94.15,-56.75 z"
         id="path8" /></g><g
       id="g1"
       transform="matrix(0.26458333,0,0,0.26458333,-82.192961,90.98714)"><path
         class="cls-4"
         d="M 89.136775,0 H 1382.089 c 11.9304,0 21.6114,6.24 21.6114,13.93 v 132.1 c 0,8 -10.0688,14.49 -22.4801,14.49 H 89.136775 c -11.930408,0 -21.61126,-6.24 -21.61126,-13.93 V 13.93 C 67.525515,6.24 77.206367,0 89.136775,0 Z"
         id="path9"
         style="stroke-width:1.24556" /><path
         class="cls-2"
         d="m 67.525515,13.93 v 1.8 H 1403.6848 v -1.8 c 0,-2.11 -0.7448,-4.11 -2.0634,-5.9 H 69.573386 C 68.270196,9.82 67.51,11.82 67.51,13.93 Z"
         id="path18"
         style="stroke-width:1.24556" /><path
         class="cls-2"
         d="m 67.525515,144.34 v 2.24 c 0,1.94 0.620567,3.78 1.722074,5.46 H 1401.637 c 1.303,-1.84 2.0478,-3.87 2.0478,-6.02 v -1.68 z"
         id="path19"
         style="stroke-width:1.24556" /><path
         style="font-size:74.6667px;font-family:'Seaside Resort NF';-inkscape-font-specification:'Seaside Resort NF';white-space:pre;fill:#a52c14;stroke-width:1.04315"
         d="m 94.223151,583.35573 q 0,12.02134 -7.914671,21.05601 -7.840003,8.96001 -19.712009,10.45334 v 6.048 h -2.314668 v -6.048 q 11.872006,-1.49333 19.71201,-10.45334 7.91467,-9.03467 7.91467,-21.05601 0,-8.21334 -3.882668,-15.30667 -3.808002,-7.16801 -10.752006,-11.49867 h 2.314668 q 6.944004,4.33066 10.752005,11.49867 3.882669,7.09333 3.882669,15.30667 z M 79.06581,564.39039 q 7.840004,7.84 7.840004,18.96534 0,11.12534 -7.840004,18.96534 -7.840003,7.76534 -18.965342,7.76534 -0.672,0 -0.970667,-0.0747 v 10.90134 h -5.600003 v -64.36269 h 6.57067 q 11.125339,0 18.965342,7.84 z m 2.240001,18.96534 q 0,-9.25867 -6.421336,-15.23201 -6.34667,-5.97333 -15.680007,-5.97333 v 42.26135 h 0.896 q 8.736004,0 14.93334,-6.12267 6.272003,-6.19733 6.272003,-14.93334 z m -11.946672,-13.36534 -2.688001,28.00002 q -0.298667,0.14933 -1.120001,0.448 -0.746667,0.224 -1.12,0.37333 v -30.91202 q 1.866667,0.52267 4.928002,2.09067 z m 78.624021,50.99736 h -2.24 l -24.19201,-64.3627 h 2.31466 z m -7.69067,-0.0747 h -5.97334 l -2.38933,-6.57067 H 99.076469 l -2.389335,6.57067 h -6.048003 l 24.864009,-67.57336 z m -35.39202,-1.41866 -0.59733,1.49333 h -2.24 l 0.59733,-1.49333 z m 24.86401,-10.75201 -14.26134,-38.90135 -14.336,38.90135 z m -11.57334,-16.94934 -7.54133,11.79734 h -2.24 l 7.09333,-19.11468 z m 75.93605,-8.43734 q 0,6.944 -2.912,13.21601 -2.83733,6.19733 -8.064,10.67734 l 7.84,12.544 -7.616,4.62934 h -2.24 l 7.54133,-4.62934 -7.84,-12.544 q 5.22667,-4.48001 8.13867,-10.75201 2.912,-6.272 2.912,-13.14134 0,-8.21334 -3.88267,-15.30667 -3.88266,-7.16801 -10.82667,-11.49867 h 2.31467 q 6.86934,4.33066 10.75201,11.49867 3.88266,7.168 3.88266,15.30667 z m -7.392,0 q 0,6.86934 -3.36,12.91734 -3.36,5.97334 -9.18401,9.70667 l 7.98934,13.06668 -4.77867,2.912 -8.288,-13.51468 q -4.77867,1.71734 -8.66134,1.71734 -0.59733,0 -1.49333,-0.14934 v 10.90134 h -5.60001 v -64.36269 h 6.64534 q 11.12534,0 18.89068,7.84 7.84,7.84 7.84,18.96534 z m -19.71201,31.43468 q -0.448,0 -0.59733,0.0747 v 6.048 h -2.31467 v -6.048 l 2.688,-0.448 z m 7.91467,-16.50134 q 6.19734,-6.19733 6.19734,-14.93334 0,-8.736 -6.19734,-14.93334 -6.19733,-6.272 -14.93334,-6.272 h -1.04533 v 42.26135 h 1.04533 q 8.73601,0 14.93334,-6.12267 z m -5.824,-28.29868 -2.688,28.00002 q -0.29867,0.14933 -1.12,0.448 -0.74667,0.224 -1.12,0.37333 v -30.91202 q 1.86666,0.52267 4.928,2.09067 z m 77.72799,-2.688 h -2.31467 v -10.752 h 2.31467 z m -6.12267,0 -11.872,5.89867 v 47.71202 h -2.31467 v -53.61069 z m -30.16535,2.31467 h -13.29067 v -2.31467 h 13.29067 z m 29.41868,-7.46667 h -18.51734 v 58.76269 h -5.6 v -58.76269 h -18.59201 v -5.6 h 42.70935 z m 27.55202,-5.67467 -2.24,64.43736 h -2.31467 v -64.43736 z m -9.70667,64.43736 h -5.6 v -64.43736 h 5.6 z m 53.61072,-32.18135 q 0,9.85601 -4.85333,18.51735 -4.85334,8.66133 -13.21601,13.73867 h -2.24 q 8.36267,-5.07734 13.21601,-13.73867 4.85333,-8.66134 4.85333,-18.51735 0,-9.70667 -4.77867,-18.368 -4.77866,-8.66134 -12.992,-13.81334 h 2.31467 q 8.13867,5.152 12.91734,13.81334 4.77866,8.66133 4.77866,18.368 z m -7.31733,0 q 0,12.32001 -8.06401,21.72801 -8.064,9.40801 -20.16001,10.30401 l -2.98666,0.224 v -64.66136 l 2.98666,0.224 q 12.17068,0.97066 20.16001,10.37867 8.06401,9.408 8.06401,21.80267 z m -11.27467,16.57601 q 5.6,-7.46667 5.6,-16.57601 0,-9.10933 -5.6,-16.576 -5.60001,-7.54134 -14.33601,-9.48268 v 51.96803 q 8.736,-1.94133 14.33601,-9.33334 z m -5.60001,-32.55468 -1.344,32.62935 -2.24,1.71733 v -36.88535 q 0.896,0.52267 3.584,2.53867 z m 79.74395,48.23469 h -2.24 l -24.19201,-64.3627 h 2.31467 z m -7.69067,-0.0747 h -5.97333 l -2.38934,-6.57067 h -32.85335 l -2.38933,6.57067 h -6.048 l 24.86401,-67.57336 z m -35.39201,-1.41866 -0.59734,1.49333 h -2.24 l 0.59734,-1.49333 z M 348.76184,608.74235 334.5005,569.841 320.16449,608.74235 Z m -11.57334,-16.94934 -7.54134,11.79734 h -2.24 l 7.09334,-19.11468 z m 64.88537,-24.49068 q -1.19467,0 -2.31467,0.224 v -10.976 h 2.31467 z m 4.85333,38.00535 q 0,9.48267 -7.168,15.68001 h -2.24 q 7.168,-6.19734 7.168,-15.68001 0,-4.48 -1.792,-8.36267 -1.792,-3.95733 -4.33067,-6.64534 -2.464,-2.76266 -5.00267,-5.152 -2.53867,-2.464 -4.33067,-5.07733 -1.792,-2.688 -1.792,-5.37601 0,-3.28533 2.16534,-5.30133 2.24,-2.09067 5.52533,-2.09067 h 2.464 v 0.29867 q -6.048,1.49333 -6.048,8.21333 0,2.68801 2.24,5.30134 l 8.58667,10.15467 q 4.55467,5.376 4.55467,14.03734 z m -7.31733,0 q 0,6.42134 -4.62934,11.05067 -4.55467,4.55467 -10.97601,4.55467 -6.944,0 -11.648,-5.152 l 4.256,-3.808 q 2.98667,3.36 7.392,3.36 4.10667,0 7.01867,-2.912 2.91201,-2.912 2.91201,-7.09334 0,-3.95733 -2.61334,-6.79467 l -9.25867,-10.22934 q -5.376,-5.97333 -5.376,-13.58934 0,-7.69067 5.376,-12.91734 5.376,-5.22666 13.14134,-5.22666 v 5.6 q -5.45067,0 -9.184,3.584 -3.73334,3.584 -3.73334,8.96 0,3.58401 1.792,6.86934 1.792,3.21067 4.33067,5.74934 2.53867,2.464 5.07734,5.00267 2.53866,2.53866 4.33066,5.89867 1.79201,3.28533 1.79201,7.09333 z m 86.83738,15.68001 h -2.24 l -24.19201,-64.3627 h 2.31467 z m -7.69067,-0.0747 h -5.97334 l -2.38933,-6.57067 h -32.85335 l -2.38933,6.57067 h -6.04801 l 24.86402,-67.57336 z m -35.39202,-1.41866 -0.59733,1.49333 h -2.24 l 0.59733,-1.49333 z m 24.86402,-10.75201 -14.26134,-38.90135 -14.33601,38.90135 z m -11.57334,-16.94934 -7.54134,11.79734 h -2.24 l 7.09334,-19.11468 z m 84.37337,-28.52268 -4.55467,6.79467 q -0.672,-0.52267 -1.64267,-0.97067 l 4.62934,-6.944 z m 1.49333,53.16269 -1.64267,1.04533 -6.048,-9.10933 q 0.97067,-0.448 1.64267,-0.97067 z m -6.944,-0.0747 q -8.13867,5.45067 -18.14401,5.45067 -9.03467,0 -16.65068,-4.40533 -7.616,-4.40534 -12.02133,-12.02134 -4.40534,-7.61601 -4.40534,-16.57601 0,-13.81334 9.632,-23.44534 9.70668,-9.70668 23.44535,-9.70668 9.856,0 18.14401,5.45067 l -3.06134,4.77867 q -6.72,-4.48 -15.08267,-4.48 -11.42401,0 -19.41334,7.98934 -7.98934,7.98934 -7.98934,19.41334 0,11.34934 7.98934,19.33868 8.064,7.98933 19.41334,7.98933 8.288,0 15.08267,-4.48 z m -15.30668,-48.83202 q -8.96,0.52267 -15.08267,6.944 -6.12267,6.42134 -6.12267,15.45601 0,8.73601 5.45067,14.70934 5.45067,5.97334 14.11201,6.42134 h -1.19467 q -9.25867,0 -15.82934,-6.49601 -6.496,-6.496 -6.496,-15.75467 0,-9.33334 6.496,-15.82934 6.57067,-6.57067 15.82934,-6.57067 0.0747,0 2.83733,1.12 z m 77.20536,-0.224 h -2.31467 v -10.752 h 2.31467 z m -6.12267,0 -11.872,5.89867 v 47.71202 h -2.31467 v -53.61069 z m -30.16535,2.31467 h -13.29067 v -2.31467 h 13.29067 z m 29.41869,-7.46667 h -18.51735 v 58.76269 h -5.6 v -58.76269 h -18.59201 v -5.6 h 42.70936 z m 27.552,-5.67467 -2.24,64.43736 h -2.31467 V 556.4756 Z m -9.70667,64.43736 h -5.60001 V 556.4756 h 5.60001 z m 73.39743,-64.36269 -24.04268,64.36269 h -2.31467 l 24.11735,-64.36269 z m -31.88269,34.64535 -1.12,3.136 -13.888,-37.78135 h 6.19733 z m 24.26668,-34.64535 -25.38668,68.99203 -25.31201,-68.99203 h 6.04801 l 19.264,52.49069 19.33868,-52.49069 z m 53.61067,64.43736 h -2.24 l -24.19201,-64.3627 h 2.31467 z m -7.69067,-0.0747 h -5.97333 l -2.38934,-6.57067 h -32.85335 l -2.38933,6.57067 h -6.04801 l 24.86402,-67.57336 z m -35.39202,-1.41866 -0.59733,1.49333 h -2.24 l 0.59733,-1.49333 z m 24.86402,-10.75201 -14.26134,-38.90135 -14.33601,38.90135 z m -11.57334,-16.94934 -7.54134,11.79734 h -2.24 l 7.09334,-19.11468 z m 64.88536,-24.49068 q -1.19466,0 -2.31466,0.224 v -10.976 h 2.31466 z m 4.85334,38.00535 q 0,9.48267 -7.168,15.68001 h -2.24001 q 7.16801,-6.19734 7.16801,-15.68001 0,-4.48 -1.792,-8.36267 -1.792,-3.95733 -4.33067,-6.64534 -2.464,-2.76266 -5.00267,-5.152 -2.53867,-2.464 -4.33067,-5.07733 -1.792,-2.688 -1.792,-5.37601 0,-3.28533 2.16533,-5.30133 2.24001,-2.09067 5.52534,-2.09067 h 2.464 v 0.29867 q -6.048,1.49333 -6.048,8.21333 0,2.68801 2.24,5.30134 l 8.58667,10.15467 q 4.55467,5.376 4.55467,14.03734 z m -7.31734,0 q 0,6.42134 -4.62933,11.05067 -4.55467,4.55467 -10.97601,4.55467 -6.944,0 -11.648,-5.152 l 4.256,-3.808 q 2.98667,3.36 7.392,3.36 4.10667,0 7.01867,-2.912 2.912,-2.912 2.912,-7.09334 0,-3.95733 -2.61333,-6.79467 l -9.25867,-10.22934 q -5.37601,-5.97333 -5.37601,-13.58934 0,-7.69067 5.37601,-12.91734 5.376,-5.22666 13.14134,-5.22666 v 5.6 q -5.45067,0 -9.18401,3.584 -3.73333,3.584 -3.73333,8.96 0,3.58401 1.792,6.86934 1.792,3.21067 4.33067,5.74934 2.53866,2.464 5.07733,5.00267 2.53867,2.53866 4.33067,5.89867 1.792,3.28533 1.792,7.09333 z"
         id="text1"
         transform="matrix(1.7390842,0,0,1.7390842,21.439601,-944.82767)"
         aria-label="PARTIDAS Activas" /></g></g></svg>
