<?xml version="1.0" encoding="utf-8"?>
<!-- Generator: Adobe Illustrator 27.2.0, SVG Export Plug-In . SVG Version: 6.00 Build 0)  -->
<svg version="1.1" id="Layer_1" xmlns="http://www.w3.org/2000/svg" xmlns:xlink="http://www.w3.org/1999/xlink" x="0px" y="0px"
	 viewBox="0 0 283.5 425.2" style="enable-background:new 0 0 283.5 425.2;" xml:space="preserve">
<style type="text/css">
	.st0{fill:none;}
	.st1{fill:#867B6C;}
	.st2{fill:#966B55;}
	.st3{fill:#623C25;}
	.st4{fill:#95171A;}
	.st5{fill:#350B0B;}
	.st6{fill:url(#XMLID_00000142149332852002756670000016664276096457503903_);stroke:#231F20;stroke-miterlimit:10;}
</style>
<pattern  y="425.2" width="60.3" height="68.2" patternUnits="userSpaceOnUse" id="Diamond_Harlequin_Color" viewBox="10.1 -85.3 60.3 68.2" style="overflow:visible;">
	<g>
		<rect x="10.1" y="-85.3" class="st0" width="60.3" height="68.2"/>
		<g>
			<polygon class="st0" points="10.1,-17.1 70.4,-17.1 70.4,-85.3 10.1,-85.3 			"/>
			<g>
				<polygon class="st1" points="80.4,-85.3 70.4,-68.3 60.3,-85.3 70.4,-102.4 				"/>
			</g>
			<g>
				<polygon class="st1" points="80.4,-85.3 70.4,-68.3 60.3,-85.3 70.4,-102.4 				"/>
				<polygon class="st2" points="60.3,-85.3 50.3,-68.3 40.2,-85.3 50.3,-102.4 				"/>
				<polygon class="st3" points="40.2,-85.3 30.2,-68.3 20.1,-85.3 30.2,-102.4 				"/>
				<polygon class="st1" points="20.1,-85.3 10.1,-68.3 0,-85.3 10.1,-102.4 				"/>
			</g>
			<g>
				<polygon class="st1" points="20.1,-85.3 10.1,-68.3 0,-85.3 10.1,-102.4 				"/>
			</g>
			<g>
				<polygon class="st1" points="80.4,-85.3 70.4,-68.3 60.3,-85.3 70.4,-102.4 				"/>
				<polygon class="st4" points="80.4,-51.2 70.4,-34.2 60.3,-51.2 70.4,-68.3 				"/>
				<polygon class="st1" points="80.4,-17.1 70.4,0 60.3,-17.1 70.4,-34.2 				"/>
			</g>
			<g>
				<polygon class="st1" points="80.4,-85.3 70.4,-68.3 60.3,-85.3 70.4,-102.4 				"/>
				<polygon class="st2" points="60.3,-85.3 50.3,-68.3 40.2,-85.3 50.3,-102.4 				"/>
				<polygon class="st3" points="40.2,-85.3 30.2,-68.3 20.1,-85.3 30.2,-102.4 				"/>
				<polygon class="st1" points="20.1,-85.3 10.1,-68.3 0,-85.3 10.1,-102.4 				"/>
				<polygon class="st4" points="80.4,-51.2 70.4,-34.2 60.3,-51.2 70.4,-68.3 				"/>
				<polygon class="st3" points="60.3,-51.2 50.3,-34.2 40.2,-51.2 50.3,-68.3 				"/>
				<polygon class="st2" points="40.2,-51.2 30.2,-34.2 20.1,-51.2 30.2,-68.3 				"/>
				<polygon class="st4" points="20.1,-51.2 10.1,-34.2 0,-51.2 10.1,-68.3 				"/>
				<polygon class="st1" points="80.4,-17.1 70.4,0 60.3,-17.1 70.4,-34.2 				"/>
				<polygon class="st2" points="60.3,-17.1 50.3,0 40.2,-17.1 50.3,-34.2 				"/>
				<polygon class="st3" points="40.2,-17.1 30.2,0 20.1,-17.1 30.2,-34.2 				"/>
				<polygon class="st1" points="20.1,-17.1 10.1,0 0,-17.1 10.1,-34.2 				"/>
			</g>
			<g>
				<polygon class="st1" points="20.1,-85.3 10.1,-68.3 0,-85.3 10.1,-102.4 				"/>
				<polygon class="st4" points="20.1,-51.2 10.1,-34.2 0,-51.2 10.1,-68.3 				"/>
				<polygon class="st1" points="20.1,-17.1 10.1,0 0,-17.1 10.1,-34.2 				"/>
			</g>
			<g>
				<polygon class="st1" points="80.4,-17.1 70.4,0 60.3,-17.1 70.4,-34.2 				"/>
			</g>
			<g>
				<polygon class="st1" points="80.4,-17.1 70.4,0 60.3,-17.1 70.4,-34.2 				"/>
				<polygon class="st2" points="60.3,-17.1 50.3,0 40.2,-17.1 50.3,-34.2 				"/>
				<polygon class="st3" points="40.2,-17.1 30.2,0 20.1,-17.1 30.2,-34.2 				"/>
				<polygon class="st1" points="20.1,-17.1 10.1,0 0,-17.1 10.1,-34.2 				"/>
			</g>
			<g>
				<polygon class="st1" points="20.1,-17.1 10.1,0 0,-17.1 10.1,-34.2 				"/>
			</g>
		</g>
	</g>
</pattern>
<path id="XMLID_1_" class="st5" d="M33.2,29.2h214.7c7.6,0,13.7,6.1,13.7,13.7v332.5c0,7.6-6.1,13.7-13.7,13.7H33.2
	c-7.6,0-13.7-6.1-13.7-13.7V42.9C19.5,35.3,25.6,29.2,33.2,29.2z"/>
<pattern  id="XMLID_00000086664898394460223970000001386997184502863766_" xlink:href="#Diamond_Harlequin_Color" patternTransform="matrix(1 0 0 -1 25.1 -16000)">
</pattern>
<path id="XMLID_00000182506030951249909130000004314094464781079463_" style="fill:url(#XMLID_00000086664898394460223970000001386997184502863766_);stroke:#231F20;stroke-miterlimit:10;" d="
	M33.2,29.2h214.7c7.6,0,13.7,6.1,13.7,13.7v332.5c0,7.6-6.1,13.7-13.7,13.7H33.2c-7.6,0-13.7-6.1-13.7-13.7V42.9
	C19.5,35.3,25.6,29.2,33.2,29.2z"/>
</svg>
