<?xml version="1.0" encoding="utf-8"?>
<!-- Generator: Adobe Illustrator 27.2.0, SVG Export Plug-In . SVG Version: 6.00 Build 0)  -->
<svg version="1.1" id="Layer_1" xmlns="http://www.w3.org/2000/svg" xmlns:xlink="http://www.w3.org/1999/xlink" x="0px" y="0px"
	 viewBox="0 0 283.5 425.2" style="enable-background:new 0 0 283.5 425.2;" xml:space="preserve">
<style type="text/css">
	.st0{fill:#F6931E;}
	.st1{fill:#BBBBBB;stroke:#231F20;stroke-width:1.2533;stroke-miterlimit:10;}
	.st2{fill:#E5E6E7;stroke:#231F20;stroke-width:1.5903;stroke-miterlimit:10;}
	.st3{fill:#231F20;}
	.st4{fill:none;stroke:#231F20;stroke-miterlimit:10;}
	.st5{fill:#231F20;stroke:#FFF100;stroke-miterlimit:10;}
	.st6{fill:#FFF100;stroke:#FFF100;stroke-miterlimit:10;}
</style>
<path id="XMLID_1_" class="st0" d="M249.1,29.2H34.4c-7.6,0-13.7,6.1-13.7,13.7v332.5c0,7.6,6.1,13.7,13.7,13.7h214.7
	c7.6,0,13.7-6.1,13.7-13.7V42.9C262.8,35.3,256.7,29.2,249.1,29.2z"/>
<path id="XMLID_5_" class="st1" d="M229.2,112.5h-175c-6.4,0-11.7,5.3-11.7,11.7v175c0,6.4,5.3,11.7,11.7,11.7h175
	c6.4,0,11.7-5.3,11.7-11.7v-175C240.9,117.8,235.7,112.5,229.2,112.5z"/>
<path id="XMLID_4_" class="st2" d="M226.1,48.4H57.4c-8.2,0-14.9,6.7-14.9,14.9V353c0,8.2,6.7,14.9,14.9,14.9h168.7
	c8.2,0,14.9-6.7,14.9-14.9V63.2C240.9,55.1,234.3,48.4,226.1,48.4z"/>
<path id="XMLID_28_" class="st3" d="M82.9,241h18.5c6.6,0,12,5.4,12,12v18.5c0,6.6-5.4,12-12,12H82.9c-6.6,0-12-5.4-12-12V253
	C70.9,246.4,76.3,241,82.9,241z"/>
<path id="XMLID_30_" class="st4" d="M132.5,190.5H151c6.6,0,12,5.4,12,12V221c0,6.6-5.4,12-12,12h-18.5c-6.6,0-12-5.4-12-12v-18.5
	C120.5,195.9,125.9,190.5,132.5,190.5z"/>
<path id="XMLID_32_" class="st3" d="M182.1,141.7h18.5c6.6,0,12,5.4,12,12v18.5c0,6.6-5.4,12-12,12h-18.5c-6.6,0-12-5.4-12-12v-18.5
	C170.1,147.1,175.5,141.7,182.1,141.7z"/>
<g id="XMLID_219_">
	<path id="XMLID_291_" class="st0" d="M126,348.8c-2.2,0-4.4,0-6.5,0c-4.3,0-8.4,0.1-12.3,0.1s-7.6,0.1-11,0.2
		c-1.7,0-3.3,0.1-4.9,0.1s-3,0.1-4.4,0.1c-2.8,0.1-5.2,0.1-7.2,0.2c-2,0-2,0.3,0,0.4c2,0,4.4,0.1,7.2,0.2c1.4,0,2.9,0.1,4.4,0.1
		c1.6,0,3.2,0.1,4.9,0.1c3.4,0.1,7.1,0.1,11,0.2c3.9,0,8,0.1,12.3,0.1c2.1,0,4.3,0,6.5,0c0.9,0,1.9,0,2.9,0
		c-0.1-0.1-0.4-0.5-0.4-0.9s0.3-0.7,0.4-0.9C127.9,348.8,126.9,348.8,126,348.8z"/>
	<path id="XMLID_290_" class="st0" d="M203.5,349.5c-2-0.1-4.4-0.1-7.2-0.2c-1.4,0-2.9-0.1-4.4-0.1c-1.6,0-3.2-0.1-4.9-0.1
		c-3.4-0.1-7.1-0.1-11-0.2c-3.9,0-8-0.1-12.3-0.1c-2.1,0-4.3,0-6.5,0c-0.9,0-1.9,0-2.9,0c0.1,0.1,0.4,0.5,0.4,0.9s-0.3,0.7-0.4,0.9
		c1,0,1.9,0,2.9,0c2.2,0,4.4,0,6.5,0c4.3,0,8.4-0.1,12.3-0.1c3.9,0,7.6-0.1,11-0.2c1.7,0,3.3-0.1,4.9-0.1c1.6,0,3-0.1,4.4-0.1
		c2.8-0.1,5.2-0.1,7.2-0.2C205.5,349.8,205.5,349.5,203.5,349.5z"/>
	<path id="XMLID_220_" class="st0" d="M154.1,349.6c-0.2-0.5-0.4-1-0.8-1.4c-0.3-0.4-0.8-0.8-1.2-1.1c0.1-0.2,0.1-0.4,0.1-0.6
		s0-0.4,0-0.6c0-1.1-0.3-2-0.9-2.6c-0.6-0.6-1.3-0.9-2.1-0.9c-0.3,0-0.6,0-0.9,0c-0.7,0.1-1.2,0.6-1.5,1.2c-0.1,0.4-0.1,0.7,0,1.1
		c0.1,0.2,0.3,0.6,0.8,0.8c0.3,0.1,0.7,0.1,1,0c0.2-0.1,0.6-0.3,0.7-0.8c0-0.2-0.1-0.5-0.3-0.7s-0.4-0.3-0.7-0.2
		c-0.2,0.1-0.5,0.3-0.4,0.6c0,0.2,0.2,0.3,0.3,0.3s0.2,0,0.2-0.1v-0.1l-0.1-0.1c0,0-0.1,0-0.1,0.1l0,0c0,0,0,0-0.1,0
		c0-0.1,0-0.1,0-0.2c0.1-0.1,0.3-0.2,0.4-0.1c0.2,0.1,0.3,0.3,0.3,0.6c0,0.1-0.1,0.3-0.2,0.3c-0.1,0.1-0.3,0.2-0.4,0.2
		c-0.4,0-0.8-0.2-0.9-0.5c-0.2-0.4-0.1-0.7-0.1-0.9c0.1-0.4,0.4-0.7,0.7-0.9c0.3-0.1,0.6-0.2,0.9-0.2c0.3,0,0.6,0.1,0.9,0.1
		c0.1,0,0.3,0.1,0.4,0.1c0.3,0.2,0.6,0.4,0.8,0.7c0.2,0.3,0.4,0.6,0.5,1s0.1,0.8,0.1,1.2c0,0.2,0,0.3,0,0.5c0,0.1,0,0.3-0.1,0.4
		c-0.4-0.2-0.8-0.3-1.2-0.4s-0.9-0.2-1.4-0.2c-0.6,0-1.3,0.1-2,0.2s-1.3,0.4-2,0.7c-0.3,0.2-0.7,0.5-1,0.7c-0.2,0-0.4,0.1-0.6,0.1
		h-0.4c0.1,0,0.1-0.8,0.2-1.2c0.1-0.4,0.1-0.8,0.1-1.3c0-0.7-0.1-1.2-0.4-1.6c-0.2-0.3-0.4-0.5-0.7-0.6c-0.1,0-0.3-0.1-0.4-0.1
		c-0.2,0-0.3,0-0.4,0.1c-0.3,0.1-0.5,0.3-0.7,0.6c-0.3,0.4-0.4,1-0.4,1.6c0,0.4,0,0.9,0.1,1.3s0.1,1.2,0.2,1.2H140
		c-0.2,0-0.4-0.1-0.6-0.1c-0.3-0.2-0.7-0.5-1-0.6c-0.7-0.3-1.3-0.6-2-0.7s-1.4-0.2-2-0.2c-0.5,0-1,0-1.4,0.2
		c-0.4,0.1-0.8,0.2-1.3,0.4c0-0.1-0.1-0.3-0.1-0.4s0-0.3,0-0.5c0-0.4,0-0.8,0.1-1.2c0.1-0.4,0.2-0.7,0.4-1s0.5-0.5,0.8-0.7
		c0.1-0.1,0.3-0.1,0.5-0.2c0.3,0,0.5-0.1,0.7-0.1c0.3,0,0.6,0.1,0.9,0.2c0.3,0.2,0.6,0.5,0.7,0.9c0.1,0.2,0.1,0.6-0.1,0.9
		c-0.1,0.3-0.5,0.5-0.9,0.5c-0.2,0-0.4-0.1-0.4-0.2c-0.1-0.1-0.2-0.2-0.2-0.3c0-0.2,0.1-0.5,0.3-0.6c0.1,0,0.3,0,0.4,0.1
		c0,0.1,0,0.1,0,0.2c0,0,0,0-0.1,0l0,0l-0.1-0.1c0,0-0.1,0-0.1,0.1v0.1c0,0.1,0.1,0.1,0.2,0.1c0.1,0,0.3-0.1,0.3-0.3
		c0.1-0.3-0.2-0.5-0.4-0.6c-0.3-0.1-0.5,0-0.7,0.2s-0.3,0.5-0.3,0.7c0.1,0.5,0.4,0.7,0.7,0.8c0.3,0.1,0.7,0.1,1,0
		c0.5-0.2,0.7-0.6,0.8-0.8c0.1-0.3,0.1-0.7,0-1.1c-0.2-0.6-0.8-1.1-1.5-1.2c-0.3-0.1-0.6-0.1-0.8,0c-0.8,0.1-1.5,0.4-2.1,1
		s-0.9,1.5-0.9,2.6c0,0.2,0,0.4,0,0.6s0.1,0.4,0.1,0.6c-0.5,0.3-0.9,0.7-1.2,1.1c-0.4,0.5-0.6,0.9-0.8,1.4l0,0l0,0c0,0,0,0,0,0.1
		l0,0c0.1,0.5,0.4,1,0.8,1.4c0.3,0.4,0.8,0.8,1.2,1.1c-0.1,0.2-0.1,0.4-0.1,0.6s0,0.4,0,0.6c0,1.1,0.3,2,0.9,2.6
		c0.1,0.1,0.2,0.2,0.3,0.2l0.1,0.1l0,0l0.3,0.2c0.2,0.1,0.3,0.2,0.5,0.3h-0.1l0.2,0.1l0,0l0.2,0.1l0,0l0,0l0,0h0.2l0,0h0.1l0,0
		c0.2,0,0.3,0.1,0.5,0.1s0.3,0,0.3,0l-0.1,0.1l0.5-0.2l0,0l0,0c1.3-0.5,1.5-1.5,1.5-1.6l0,0l0,0c0-0.3,0-0.6-0.2-0.9
		c-0.2-0.2-0.5-0.5-0.9-0.5c-0.1,0-0.3,0.1-0.4,0.3c0,0.1,0,0.2,0,0.2c0,0.1,0.1,0.1,0.2,0l0,0l0,0c0-0.1,0.1-0.2,0.2-0.2
		c0,0,0.1,0,0.1,0.1s0,0.3-0.1,0.3c-0.1,0.1-0.2,0.1-0.3,0.2s-0.2,0.1-0.3,0.2c-0.2,0.2-0.3,0.4-0.2,0.7c-0.1,0-0.2,0.1-0.3,0.3
		c0-0.1,0.1-0.3,0-0.4c0-0.1-0.1-0.2-0.3-0.2h-0.1c0,0-0.1,0-0.1,0.1l0,0l0,0c-0.1,0-0.1,0-0.1,0c-0.3,0-0.5,0.1-0.8,0.2
		c-0.1-0.1-0.2-0.1-0.4-0.1l0,0c-0.1,0-0.1,0-0.2,0c0.1,0,0.2-0.1,0.2-0.2l0.1-0.1h-0.1c-0.1,0-0.1-0.1-0.1-0.1l-0.1-0.1
		c-0.1-0.1-0.2-0.1-0.2-0.2c-0.1,0-0.1,0-0.1-0.1c-0.1,0-0.1-0.1-0.1-0.1l0,0l0,0c0-0.1,0-0.1,0-0.2l0.1-0.1h-0.1
		c0-0.3-0.1-0.6-0.1-0.8c0-0.2,0-0.3,0-0.5c0-0.1,0-0.3,0.1-0.4c0.4,0.2,0.8,0.3,1.3,0.4c0.4,0.1,0.9,0.2,1.4,0.2
		c0.6,0,1.3-0.1,2-0.2s1.3-0.4,2-0.7c0.3-0.2,0.7-0.3,1-0.5c0.2,0,0.4,0.1,0.6,0.1l0,0l0,0h0.4c-0.1,0-0.2,0.5-0.2,1
		c0,0.4-0.1,0.8-0.1,1.2c0,0.7,0.1,1.2,0.4,1.6c0.2,0.3,0.4,0.5,0.7,0.6c0.1,0,0.3,0.1,0.4,0.1c0.2,0,0.3,0,0.4-0.1
		c0.3-0.1,0.5-0.3,0.7-0.6c0.3-0.4,0.4-0.9,0.4-1.6c0-0.5,0-0.8-0.1-1.1c-0.1-0.4-0.1-1-0.2-1h0.4l0,0l0,0l0,0
		c0.2,0,0.4-0.1,0.6-0.1l0,0c-0.2,0-0.4,0-0.6,0c0.2,0,0.4,0,0.6,0c0.3,0.2,0.7,0.4,1,0.6c0.7,0.3,1.3,0.5,2,0.7
		c0.7,0.1,1.4,0.2,2,0.2c0.5,0,1-0.1,1.4-0.2s0.8-0.3,1.2-0.4c0,0.1,0.1,0.3,0.1,0.4s0,0.3,0,0.5c0,0.3,0,0.6-0.1,0.9h-0.2l0.1,0.1
		c0.1,0.2-0.1,0.3-0.2,0.4l-0.1,0.1c-0.1,0-0.2,0.1-0.2,0.2l-0.1,0.1l-0.1,0.1h-0.1l0.1,0.1c0.1,0.1,0.2,0.1,0.2,0.2
		c-0.1,0-0.1,0-0.2,0l0,0c-0.2,0-0.4,0.1-0.4,0.1c-0.3-0.2-0.6-0.3-0.8-0.2h-0.1l0,0l0,0c0-0.1-0.1-0.1-0.1-0.1H149
		c-0.1,0-0.2,0.1-0.3,0.2c0,0.1,0,0.3,0,0.4c-0.1-0.1-0.2-0.2-0.3-0.3c0-0.2,0-0.5-0.2-0.7c-0.1-0.1-0.2-0.1-0.3-0.2
		s-0.2-0.1-0.3-0.2s-0.1-0.2-0.1-0.3c0,0,0-0.1,0.1-0.1s0.1,0.1,0.2,0.2l0,0l0,0c0.1,0,0.2,0,0.2,0c0-0.1,0-0.1,0-0.2
		c-0.1-0.1-0.3-0.3-0.4-0.3c-0.4,0-0.7,0.2-0.9,0.5s-0.2,0.6-0.2,0.9l0,0l0,0c0,0,0.2,1.1,1.5,1.6l0,0l0,0l0.6,0.2l-0.1-0.1
		c0.1,0,0.4,0,0.5,0c0.2,0,0.8,0,0.8-0.1l0,0l-0.4-0.1l0,0h0.2l0,0l0,0l0,0l0,0l0,0l0,0l0,0l0.2-0.1l0,0c0.2,0,0.4-0.2,0.5-0.3
		l0.1-0.1c0.2-0.1,0.4-0.3,0.5-0.4c0.6-0.6,0.9-1.5,0.9-2.6c0-0.2,0-0.4,0-0.6s-0.1-0.4-0.1-0.6c0.5-0.3,0.9-0.7,1.2-1.1
		c0.4-0.4,0.6-0.9,0.8-1.4l0,0C154.1,349.7,154.1,349.7,154.1,349.6L154.1,349.6L154.1,349.6z M149.6,356.9c-0.2,0-0.4,0.1-0.5,0.1
		c-0.2,0-0.3,0-0.3,0c-0.1,0-0.3-0.1-0.4-0.1l0,0l0,0c-1.2-0.4-1.4-1.3-1.4-1.4l0,0c0,0.1,0.3,1,1.4,1.4l0,0l0,0
		c0.1,0,0.3,0.1,0.4,0.1c0,0,0.1,0,0.3,0C149.2,356.9,149.4,356.9,149.6,356.9L149.6,356.9L149.6,356.9L149.6,356.9L149.6,356.9z
		 M131.8,354.4L131.8,354.4L131.8,354.4L131.8,354.4L131.8,354.4z M142.7,343.8c0.2,0.4,0.4,0.9,0.4,1.5l0,0
		C143.1,344.7,142.9,344.2,142.7,343.8c-0.2-0.3-0.4-0.4-0.6-0.5c-0.1,0-0.2-0.1-0.4-0.1c0.1,0,0.3,0,0.4,0.1
		C142.3,343.4,142.5,343.6,142.7,343.8z M139.7,351.4L139.7,351.4l0.2-0.1l0.1-0.1l-0.1,0.1L139.7,351.4z M143.7,347.8L143.7,347.8
		l-0.2,0.1l-0.1,0.1l0.1-0.1L143.7,347.8z M142.9,353.9c0,0.7-0.1,1.2-0.4,1.5c-0.1,0.2-0.3,0.3-0.4,0.4c-0.1,0.1-0.3,0.1-0.4,0.1
		c-0.1,0-0.3,0-0.4-0.1c-0.2-0.1-0.3-0.2-0.4-0.4c-0.3-0.3-0.4-0.8-0.4-1.5l0,0c0,0.7,0.1,1.2,0.4,1.5c0.1,0.2,0.3,0.3,0.4,0.4
		c0.1,0.1,0.3,0.1,0.4,0.1c0.1,0,0.3,0,0.4-0.1c0.2-0.1,0.3-0.2,0.4-0.4C142.8,355.1,142.9,354.6,142.9,353.9L142.9,353.9z
		 M148.6,348.7c-0.8-0.4-1.6-0.6-2.5-0.8c-0.4-0.1-0.9-0.2-1.3-0.2l0,0c1.2-0.6,2.5-0.9,4.2-0.9c0.8,0,1.6,0.2,2.5,0.5
		c-0.3,0.6-0.7,1.2-1.3,1.7c-0.1,0.1-0.3,0.3-0.5,0.4C149.3,349.1,149,348.9,148.6,348.7z M140.9,344c0.2-0.2,0.3-0.3,0.4-0.3
		c0.2-0.1,0.5-0.1,0.7,0c0.1,0.1,0.3,0.2,0.4,0.3c0.3,0.3,0.4,0.8,0.4,1.4c0,0.4,0,0.7-0.1,1.1c-0.1,0.3-0.2,0.7-0.3,1
		c-0.1,0-0.2,0-0.4,0c-0.1,0-0.3,0-0.4,0l0,0c-0.1,0-0.2,0-0.3,0l0,0l0,0c-0.1,0-0.2,0-0.3,0c-0.1-0.4-0.2-0.7-0.3-1
		c-0.1-0.4-0.1-0.7-0.1-1.1C140.5,344.8,140.7,344.3,140.9,344z M141.6,347.7L141.6,347.7c0.2,0,0.3,0,0.4,0
		C141.9,347.7,141.8,347.7,141.6,347.7L141.6,347.7L141.6,347.7L141.6,347.7z M141.7,351.3c-0.1,0-0.3,0-0.4,0c-0.1,0-0.1,0-0.2,0
		c0.1-0.2,0.1-0.3,0.2-0.5c0.1-0.2,0.2-0.4,0.3-0.5c0.1,0.2,0.2,0.3,0.3,0.5s0.2,0.3,0.2,0.5l0,0H142
		C142,351.3,141.8,351.3,141.7,351.3z M141,350.6c-0.1,0.2-0.2,0.4-0.3,0.6c-0.1,0-0.2,0-0.3-0.1C140.6,350.9,140.8,350.8,141,350.6
		z M141.3,349.6L141.3,349.6L141.3,349.6c-0.4,0.5-0.9,1-1.4,1.4c-1.2-0.3-2.4-0.7-3.5-1.3c1.1-0.6,2.2-1.1,3.5-1.3
		C140.4,348.7,140.9,349.1,141.3,349.6z M141.7,348c0.1,0,0.3,0,0.4,0c0.1,0,0.1,0,0.1,0l0,0c-0.1,0.2-0.1,0.3-0.2,0.5
		c-0.1,0.2-0.2,0.4-0.3,0.5c-0.1-0.2-0.2-0.3-0.3-0.5c-0.1-0.1-0.1-0.3-0.2-0.5c0,0,0.1,0,0.2,0C141.4,348,141.6,348,141.7,348z
		 M142.4,348.7c0.1-0.2,0.2-0.3,0.2-0.5c0.1,0,0.2,0,0.3,0.1C142.8,348.3,142.6,348.5,142.4,348.7z M143,351.1c-0.1,0-0.2,0-0.3,0.1
		c-0.1-0.2-0.1-0.4-0.2-0.5C142.6,350.8,142.8,351,143,351.1z M140.4,348.2c0.1,0,0.2,0,0.3-0.1c0.1,0.2,0.2,0.4,0.3,0.6
		C140.8,348.5,140.6,348.4,140.4,348.2z M142.2,349.7L142.2,349.7L142.2,349.7c0.4-0.5,0.9-1,1.4-1.4c1.2,0.3,2.4,0.7,3.5,1.3
		c-1.1,0.6-2.2,1.1-3.5,1.3C143,350.6,142.6,350.2,142.2,349.7z M141.6,351.5L141.6,351.5L141.6,351.5c-0.1,0-0.2,0-0.3,0l0,0l0,0
		C141.4,351.6,141.5,351.6,141.6,351.5z M140.6,352.8c0.1-0.3,0.2-0.7,0.3-1c0.1,0,0.2,0,0.3,0l0,0c0.1,0,0.2,0,0.3,0l0,0
		c0.1,0,0.3,0,0.4,0c0.1,0,0.3,0,0.4,0c0.1,0.4,0.2,0.7,0.3,1s0.1,0.7,0.1,1.1c0,0.7-0.1,1.2-0.4,1.5c-0.1,0.2-0.3,0.3-0.4,0.3
		c-0.3,0.1-0.5,0.1-0.7,0c-0.1-0.1-0.3-0.2-0.4-0.3c-0.2-0.3-0.4-0.8-0.4-1.5C140.5,353.5,140.6,353.2,140.6,352.8z M142.8,352.8
		c-0.1-0.4-0.2-0.8-0.3-1.1C142.7,352,142.8,352.4,142.8,352.8c0.1,0.3,0.1,0.7,0.1,1.1C142.9,353.5,142.9,353.1,142.8,352.8z
		 M142.5,347.6c0.1-0.4,0.3-0.7,0.3-1.1c0.1-0.4,0.1-0.7,0.1-1.1l0,0c0,0.4-0.1,0.7-0.1,1.1S142.7,347.2,142.5,347.6z M140.5,345.4
		v0.1C140.5,345.5,140.5,345.5,140.5,345.4L140.5,345.4z M141.3,347.7L141.3,347.7L141.3,347.7c-0.1,0-0.3,0-0.4,0
		C141,347.7,141.1,347.7,141.3,347.7z M140,348.1L140,348.1L140,348.1c-0.1,0-0.1,0-0.1-0.1C139.9,348,139.9,348,140,348.1
		L140,348.1L140,348.1c0.1,0,0.3-0.1,0.5-0.1C140.3,348,140.2,348,140,348.1z M133.3,350.4c0.1-0.1,0.3-0.3,0.5-0.4
		c0.3,0.2,0.7,0.4,1.1,0.6c0.8,0.4,1.6,0.6,2.5,0.8c0.4,0.1,0.9,0.2,1.4,0.2l0,0c-1.2,0.6-2.6,0.9-4.2,0.9c-0.8,0-1.6-0.2-2.5-0.5
		C132.3,351.5,132.7,350.9,133.3,350.4z M137.4,347.9c-0.9,0.2-1.7,0.5-2.5,0.8c-0.4,0.2-0.8,0.4-1.1,0.6c-0.2-0.1-0.3-0.2-0.5-0.4
		c-0.6-0.5-1-1.1-1.3-1.7c0.8-0.3,1.7-0.5,2.5-0.5c1.6,0,3,0.3,4.2,0.9l0,0C138.3,347.7,137.8,347.8,137.4,347.9z M137.8,351.1
		c-0.9-0.2-1.7-0.5-2.5-0.8c-0.4-0.2-0.7-0.4-1.1-0.6c0.3-0.2,0.7-0.4,1.1-0.6c0.8-0.4,1.6-0.6,2.5-0.8c0.5-0.1,1.1-0.2,1.6-0.2
		c0,0,0.1,0,0.1,0.1c-0.6,0.2-1.1,0.3-1.7,0.6c-0.6,0.2-1.2,0.5-1.7,0.9c-0.2-0.1-0.3-0.2-0.5-0.3c0,0,0,0-0.1,0c0,0-0.1,0-0.1,0.1
		s0,0.1,0.1,0.2s0.2,0.1,0.3,0.2c-0.1,0.1-0.2,0.1-0.3,0.2s-0.1,0.1-0.1,0.2s0.1,0.1,0.1,0.1s0,0,0.1,0c0.1-0.1,0.3-0.2,0.4-0.3
		C136.5,350.4,137.1,350.7,137.8,351.1c0.4,0.1,1,0.3,1.6,0.5c0,0-0.1,0-0.1,0.1C138.8,351.3,138.3,351.2,137.8,351.1z M133.2,349.6
		c-0.2,0.1-0.3,0.2-0.4,0.4c-0.6,0.5-1,1.1-1.3,1.7c-0.4-0.2-0.8-0.5-1.1-0.9c-0.3-0.3-0.6-0.8-0.8-1.2c0.2-0.5,0.4-0.9,0.8-1.2
		c0.3-0.3,0.7-0.6,1.1-0.9c0.3,0.6,0.7,1.2,1.3,1.7C132.9,349.4,133.1,349.5,133.2,349.6z M142.1,351.6c-0.1,0-0.2,0-0.3,0
		C141.9,351.6,142,351.6,142.1,351.6c0.2,0,0.3,0,0.4,0C142.4,351.6,142.3,351.6,142.1,351.6z M143.4,351.2L143.4,351.2L143.4,351.2
		c0.1,0,0.1,0,0.1,0.1C143.5,351.3,143.5,351.3,143.4,351.2L143.4,351.2L143.4,351.2c-0.1,0-0.3,0.1-0.5,0.1
		C143.1,351.3,143.2,351.3,143.4,351.2z M145.6,350.7c0.6-0.2,1.2-0.5,1.7-0.9c0.2,0.1,0.3,0.2,0.5,0.3c0.1,0,0.1,0,0.2-0.1
		c0-0.1,0-0.1-0.1-0.2s-0.2-0.1-0.3-0.2c0.1-0.1,0.2-0.1,0.3-0.2s0.1-0.1,0.1-0.2s-0.1-0.1-0.2-0.1c-0.1,0.1-0.3,0.2-0.4,0.3
		c-0.5-0.3-1.1-0.6-1.7-0.9c-0.5-0.2-1.1-0.4-1.7-0.6c0,0,0.1,0,0.1-0.1c0.5,0,1,0.1,1.6,0.2c0.9,0.2,1.7,0.5,2.5,0.8
		c0.4,0.2,0.7,0.4,1.1,0.6c-0.3,0.2-0.7,0.4-1.1,0.6c-0.8,0.4-1.6,0.6-2.5,0.8c-0.5,0.1-1.1,0.2-1.6,0.2c0,0-0.1,0-0.1-0.1
		C144.5,351.1,145.1,350.9,145.6,350.7z M146,351.4c0.9-0.2,1.8-0.5,2.5-0.8c0.4-0.2,0.8-0.4,1.1-0.6c0.2,0.1,0.3,0.3,0.5,0.4
		c0.6,0.5,1,1.1,1.3,1.7c-0.8,0.3-1.7,0.5-2.5,0.5c-1.6,0-3-0.3-4.2-0.9l0,0C145.1,351.6,145.6,351.5,146,351.4z M142.9,348
		C142.9,348,143,348,142.9,348C143,348,142.9,348,142.9,348l-0.6-0.1L142.9,348z M143,345.4c0-0.7-0.1-1.2-0.4-1.5
		c-0.1-0.2-0.3-0.3-0.5-0.4c-0.3-0.2-0.6-0.1-0.9,0c-0.2,0.1-0.3,0.2-0.5,0.4c-0.3,0.3-0.4,0.8-0.4,1.5l0,0c0-0.7,0.1-1.2,0.4-1.5
		c0.2-0.2,0.3-0.3,0.5-0.4c0.3-0.1,0.6-0.2,0.9,0c0.2,0.1,0.3,0.2,0.5,0.4C142.9,344.2,143,344.7,143,345.4L143,345.4z M140,348
		C140,348,140,347.9,140,348C140,347.9,140,347.9,140,348c0.2,0,0.3-0.1,0.5-0.1C140.3,347.9,140.2,347.9,140,348z M139.9,347.9
		L139.9,347.9c0.1,0,0.3,0,0.4,0C140.1,347.9,140,347.9,139.9,347.9z M139.7,347.8L139.7,347.8L139.7,347.8L139.7,347.8z
		 M140.5,351.3L140.5,351.3L140.5,351.3l0.6,0.1L140.5,351.3z M140.4,353.9c0,0.7,0.1,1.2,0.4,1.5c0.2,0.2,0.3,0.3,0.5,0.4
		c0.1,0.1,0.3,0.1,0.4,0.1c0.1,0,0.3,0,0.4-0.1c0.2-0.1,0.3-0.2,0.5-0.4c0.3-0.3,0.4-0.8,0.4-1.5l0,0c0,0.7-0.1,1.2-0.4,1.5
		c-0.1,0.2-0.3,0.3-0.5,0.4c-0.1,0.1-0.3,0.1-0.4,0.1c-0.1,0-0.3,0-0.4-0.1c-0.1-0.1-0.3-0.2-0.5-0.4
		C140.5,355.1,140.4,354.6,140.4,353.9L140.4,353.9z M143.4,351.3C143.4,351.3,143.4,351.4,143.4,351.3
		C143.4,351.4,143.4,351.4,143.4,351.3c-0.1,0-0.3,0.1-0.5,0.1C143.1,351.4,143.2,351.4,143.4,351.3z M143.5,351.4L143.5,351.4
		c-0.1,0-0.3,0-0.4,0C143.3,351.4,143.4,351.4,143.5,351.4z M143.7,351.5L143.7,351.5L143.7,351.5L143.7,351.5z M153,348.4
		c0.3,0.3,0.6,0.8,0.8,1.2c-0.2,0.5-0.4,0.9-0.8,1.2c-0.3,0.3-0.7,0.6-1.1,0.9c-0.3-0.6-0.7-1.2-1.3-1.7c-0.1-0.1-0.3-0.2-0.4-0.4
		c0.2-0.1,0.3-0.2,0.4-0.4c0.6-0.5,1-1.1,1.3-1.7C152.3,347.8,152.7,348.1,153,348.4z M143.5,347.9L143.5,347.9c-0.1,0-0.3,0-0.4,0
		C143.3,347.9,143.4,347.9,143.5,347.9L143.5,347.9z M142.7,347.7L142.7,347.7C142.7,347.6,142.7,347.6,142.7,347.7
		C142.7,347.6,142.7,347.6,142.7,347.7L142.7,347.7z M141,345.3c0,0.4-0.3,0.8-0.2,1.2c0.1,0.4,0,0.8,0.1,1.1
		c-0.1-0.3,0.1-0.6,0-1.1C140.8,346.1,141,345.7,141,345.3L141,345.3z M139.5,347.7L139.5,347.7c-0.4-0.2-0.7-0.4-1.1-0.6
		c-0.7-0.3-1.3-0.5-1.9-0.7c-0.7-0.1-1.4-0.2-2-0.2c-0.5,0-0.9,0.1-1.4,0.2c-0.4,0.1-0.9,0.3-1.3,0.5h-0.1v-0.1
		c-0.1-0.2-0.1-0.4-0.1-0.5s0-0.2,0-0.2c0,0.1,0,0.2,0,0.2c0,0.2,0,0.3,0.1,0.5v0.1h0.1c0.4-0.2,0.9-0.4,1.3-0.5
		c0.4-0.1,0.9-0.2,1.4-0.2c0.6,0,1.3,0.1,2,0.2s1.3,0.4,1.9,0.7C138.8,347.3,139.1,347.5,139.5,347.7L139.5,347.7L139.5,347.7
		L139.5,347.7z M139.9,351.4L139.9,351.4L139.9,351.4c0.1,0,0.3,0,0.4,0C140.1,351.4,140,351.4,139.9,351.4z M140.7,351.6
		L140.7,351.6c0,0.1,0,0.1,0,0.1S140.7,351.7,140.7,351.6L140.7,351.6z M140.7,355.5c-0.2-0.4-0.4-0.9-0.4-1.5l0,0
		C140.4,354.6,140.5,355.1,140.7,355.5c0.2,0.3,0.3,0.4,0.6,0.5c0.1,0,0.2,0.1,0.4,0.1c-0.1,0-0.3,0-0.4-0.1
		C141.1,355.9,140.9,355.7,140.7,355.5z M143,354c0-0.4,0-0.8-0.1-1.2c-0.1-0.4-0.1-0.8-0.2-1.1c0.1,0.3,0.1,0.7,0.2,1.1
		C143,353.1,143,353.5,143,354L143,354z M150.5,350.1c-0.2-0.1-0.3-0.3-0.5-0.4l-0.1-0.1l0.1-0.1c0.2-0.1,0.4-0.3,0.5-0.4
		c0.3-0.3,0.5-0.5,0.8-0.8c0.2-0.2,0.3-0.4,0.4-0.7c-0.1,0.2-0.3,0.5-0.4,0.7c-0.2,0.3-0.5,0.6-0.8,0.8c-0.2,0.1-0.3,0.3-0.5,0.4
		l-0.1,0.1l0.1,0.1C150.2,349.8,150.4,350,150.5,350.1c0.6,0.5,1,1.1,1.3,1.7l0,0l0,0l0,0C151.6,351.2,151.1,350.6,150.5,350.1z
		 M146.8,355.3L146.8,355.3L146.8,355.3L146.8,355.3c0-0.1,0-0.1,0-0.2C146.8,355.2,146.8,355.2,146.8,355.3z M147.4,344.7
		c0.1,0.1,0.2,0.2,0.3,0.3c0.1,0,0.1,0.1,0.2,0.1c-0.1,0-0.1-0.1-0.2-0.1C147.5,345,147.4,344.9,147.4,344.7
		c-0.1-0.2-0.1-0.4-0.1-0.6C147.2,344.4,147.3,344.6,147.4,344.7z M144.9,347.1c0.6-0.3,1.3-0.5,2-0.7c0.7-0.1,1.3-0.2,2-0.2
		c0.5,0,0.9,0.1,1.4,0.2c0.4,0.1,0.9,0.3,1.3,0.5c0.1-0.2,0.1-0.3,0.1-0.5c0-0.1,0-0.3,0-0.5l0,0c0,0.2,0,0.3,0,0.5s0,0.3-0.1,0.5
		c-0.4-0.2-0.9-0.4-1.3-0.5c-0.5-0.1-0.9-0.2-1.4-0.2c-0.7,0-1.3,0.1-2,0.2C146.2,346.6,145.6,346.8,144.9,347.1
		c-0.4,0.2-0.7,0.3-1,0.6C144.2,347.4,144.6,347.2,144.9,347.1z M143,346.5c0.1-0.4,0.1-0.7,0.1-1.1l0,0
		C143.1,345.8,143.1,346.1,143,346.5z M140.5,343.8c0.2-0.3,0.5-0.4,0.7-0.5c0.1,0,0.3-0.1,0.4-0.1c-0.1,0-0.3,0-0.4,0.1
		C141,343.3,140.7,343.5,140.5,343.8c-0.3,0.4-0.5,0.9-0.5,1.6l0,0C140,344.7,140.3,344.2,140.5,343.8z M140.4,346.5L140.4,346.5
		L140.4,346.5c0.1,0.4,0.1,0.8,0.2,1.1C140.5,347.3,140.4,346.9,140.4,346.5z M135.3,342.9c-0.5-0.3-1.1-0.2-1.7-0.1
		c-0.2,0-0.3,0.1-0.5,0.2c-0.3,0.2-0.6,0.4-0.9,0.7c-0.2,0.3-0.4,0.6-0.5,1s-0.2,0.8-0.2,1.2l0,0c0-0.4,0.1-0.8,0.2-1.2
		c0.1-0.4,0.3-0.7,0.5-1s0.5-0.5,0.9-0.7c0.2-0.1,0.3-0.1,0.5-0.2C134.2,342.6,134.8,342.6,135.3,342.9c0.4,0.2,0.8,0.7,0.8,1.3
		C136.1,343.6,135.7,343.1,135.3,342.9z M138.5,352.2c-0.6,0.3-1.3,0.5-2,0.7c-0.7,0.1-1.3,0.2-2,0.2c-0.5,0-0.9-0.1-1.4-0.2
		s-0.9-0.3-1.3-0.5c-0.1,0.2-0.1,0.3-0.1,0.5c0,0.1,0,0.3,0,0.5l0,0c0-0.2,0-0.3,0-0.5s0-0.3,0.1-0.5c0.4,0.2,0.9,0.4,1.3,0.5
		c0.4,0.1,0.9,0.2,1.4,0.2c0.7,0,1.3-0.1,2-0.2C137.2,352.7,137.8,352.5,138.5,352.2c0.4-0.2,0.7-0.3,1-0.6
		C139.2,351.9,138.8,352.1,138.5,352.2z M140.5,352.8c0,0.4-0.1,0.7-0.1,1.1l0,0C140.4,353.5,140.5,353.2,140.5,352.8z M142.7,355.5
		c-0.2,0.3-0.3,0.4-0.6,0.5c-0.1,0-0.2,0.1-0.4,0.1c0.1,0,0.3,0,0.4-0.1C142.4,356,142.5,355.8,142.7,355.5c0.2-0.4,0.3-0.9,0.3-1.6
		l0,0C143,354.6,142.9,355.1,142.7,355.5z M143,352.8L143,352.8L143,352.8c-0.1-0.4-0.1-0.8-0.2-1.1C142.9,352,143,352.4,143,352.8z
		 M143.9,351.9L143.9,351.9v-0.1c0.3,0.2,0.7,0.3,1,0.5c0.7,0.3,1.3,0.5,1.9,0.6c0.7,0.1,1.4,0.2,2,0.2c0.5,0,0.9-0.1,1.4-0.2
		c0.4-0.1,0.9-0.3,1.3-0.5h0.1v0.1c0.1,0.2,0.1,0.3,0.1,0.5c0,0.1,0,0.3,0,0.5c0-0.2,0-0.3,0-0.5s0-0.3-0.1-0.5v-0.1h-0.1
		c-0.4,0.2-0.9,0.4-1.3,0.5c-0.4,0.1-0.9,0.2-1.4,0.2c-0.6,0-1.3-0.1-2-0.2s-1.3-0.4-1.9-0.7c-0.3-0.2-0.7-0.4-1-0.6v0.1V351.9z
		 M151.7,353.7c0,0.3,0,0.6-0.1,0.9C151.7,354.3,151.7,354,151.7,353.7z M150.7,355.3c0.1,0,0.1-0.1,0.2-0.2
		c0.1-0.1,0.3-0.1,0.4-0.2c0.2-0.1,0.3-0.3,0.2-0.5l0,0c0.1,0.2-0.1,0.4-0.2,0.5c-0.1,0.1-0.3,0.1-0.4,0.2
		C150.9,355.2,150.8,355.3,150.7,355.3c0.1,0.1,0.2,0.2,0.4,0.2C151,355.5,150.8,355.4,150.7,355.3z M150.7,355.6
		c0.2,0,0.4,0,0.5-0.1l0,0l0,0l0,0C151.1,355.6,150.8,355.6,150.7,355.6s-0.5,0-0.5,0.1l0,0C150.2,355.7,150.6,355.6,150.7,355.6z
		 M149.4,355.5h0.1C149.5,355.5,149.5,355.5,149.4,355.5l-0.2,0.1C149.3,355.6,149.4,355.5,149.4,355.5z"/>
</g>
<g id="XMLID_292_">
	<path id="XMLID_364_" class="st0" d="M126,66.8c-2.2,0-4.4,0-6.5,0c-4.3,0-8.4,0.1-12.3,0.1s-7.6,0.1-11,0.2
		c-1.7,0-3.3,0.1-4.9,0.1s-3,0.1-4.4,0.1c-2.8,0.1-5.2,0.1-7.2,0.2c-2,0-2,0.3,0,0.4c2,0,4.4,0.1,7.2,0.2c1.4,0,2.9,0.1,4.4,0.1
		c1.6,0,3.2,0.1,4.9,0.1c3.4,0.1,7.1,0.1,11,0.2c3.9,0,8,0.1,12.3,0.1c2.1,0,4.3,0,6.5,0c0.9,0,1.9,0,2.9,0
		c-0.1-0.1-0.4-0.5-0.4-0.9s0.3-0.7,0.4-0.9C127.9,66.8,126.9,66.8,126,66.8z"/>
	<path id="XMLID_363_" class="st0" d="M203.5,67.5c-2-0.1-4.4-0.1-7.2-0.2c-1.4,0-2.9-0.1-4.4-0.1c-1.6,0-3.2-0.1-4.9-0.1
		c-3.4-0.1-7.1-0.1-11-0.2c-3.9,0-8-0.1-12.3-0.1c-2.1,0-4.3,0-6.5,0c-0.9,0-1.9,0-2.9,0c0.1,0.1,0.4,0.5,0.4,0.9s-0.3,0.7-0.4,0.9
		c1,0,1.9,0,2.9,0c2.2,0,4.4,0,6.5,0c4.3,0,8.4-0.1,12.3-0.1c3.9,0,7.6-0.1,11-0.2c1.7,0,3.3-0.1,4.9-0.1c1.6,0,3-0.1,4.4-0.1
		c2.8-0.1,5.2-0.1,7.2-0.2C205.5,67.8,205.5,67.5,203.5,67.5z"/>
	<path id="XMLID_293_" class="st0" d="M154.1,67.6c-0.2-0.5-0.4-1-0.8-1.4c-0.3-0.4-0.8-0.8-1.2-1.1c0.1-0.2,0.1-0.4,0.1-0.6
		s0-0.4,0-0.6c0-1.1-0.3-2-0.9-2.6c-0.6-0.6-1.3-0.9-2.1-0.9c-0.3,0-0.6,0-0.9,0c-0.7,0.1-1.2,0.6-1.5,1.2c-0.1,0.4-0.1,0.7,0,1.1
		c0.1,0.2,0.3,0.6,0.8,0.8c0.3,0.1,0.7,0.1,1,0c0.2-0.1,0.6-0.3,0.7-0.8c0-0.2-0.1-0.5-0.3-0.7s-0.4-0.3-0.7-0.2
		c-0.2,0.1-0.5,0.3-0.4,0.6c0,0.2,0.2,0.3,0.3,0.3s0.2,0,0.2-0.1v-0.1l-0.1-0.1c0,0-0.1,0-0.1,0.1l0,0c0,0,0,0-0.1,0
		c0-0.1,0-0.1,0-0.2c0.1-0.1,0.3-0.2,0.4-0.1c0.2,0.1,0.3,0.3,0.3,0.6c0,0.1-0.1,0.3-0.2,0.3c-0.1,0.1-0.3,0.2-0.4,0.2
		c-0.4,0-0.8-0.2-0.9-0.5c-0.2-0.4-0.1-0.7-0.1-0.9c0.1-0.4,0.4-0.7,0.7-0.9c0.3-0.1,0.6-0.2,0.9-0.2c0.3,0,0.6,0.1,0.9,0.1
		c0.1,0,0.3,0.1,0.4,0.1c0.3,0.2,0.6,0.4,0.8,0.7s0.4,0.6,0.5,1s0.1,0.8,0.1,1.2c0,0.2,0,0.3,0,0.5c0,0.1,0,0.3-0.1,0.4
		c-0.4-0.2-0.8-0.3-1.2-0.4s-0.9-0.2-1.4-0.2c-0.6,0-1.3,0.1-2,0.2s-1.3,0.4-2,0.7c-0.3,0.2-0.7,0.5-1,0.7c-0.2,0-0.4,0.1-0.6,0.1
		h-0.4c0.1,0,0.1-0.8,0.2-1.2c0.1-0.4,0.1-0.8,0.1-1.3c0-0.7-0.1-1.2-0.4-1.6c-0.2-0.3-0.4-0.5-0.7-0.6c-0.1,0-0.3-0.1-0.4-0.1
		c-0.2,0-0.3,0-0.4,0.1c-0.3,0.1-0.5,0.3-0.7,0.6c-0.3,0.4-0.4,1-0.4,1.6c0,0.4,0,0.9,0.1,1.3s0.1,1.2,0.2,1.2H140
		c-0.2,0-0.4-0.1-0.6-0.1c-0.3-0.2-0.7-0.5-1-0.6c-0.7-0.3-1.3-0.6-2-0.7s-1.4-0.2-2-0.2c-0.5,0-1,0-1.4,0.2
		c-0.4,0.1-0.8,0.2-1.3,0.4c0-0.1-0.1-0.3-0.1-0.4s0-0.3,0-0.5c0-0.4,0-0.8,0.1-1.2s0.2-0.7,0.4-1s0.5-0.5,0.8-0.7
		c0.1-0.1,0.3-0.1,0.5-0.2c0.3,0,0.5-0.1,0.7-0.1c0.3,0,0.6,0.1,0.9,0.2c0.3,0.2,0.6,0.5,0.7,0.9c0.1,0.2,0.1,0.6-0.1,0.9
		c-0.1,0.3-0.5,0.5-0.9,0.5c-0.2,0-0.4-0.1-0.4-0.2c-0.1-0.1-0.2-0.2-0.2-0.3c0-0.2,0.1-0.5,0.3-0.6c0.1,0,0.3,0,0.4,0.1
		c0,0.1,0,0.1,0,0.2c0,0,0,0-0.1,0l0,0l-0.1-0.1c0,0-0.1,0-0.1,0.1v0.1c0,0.1,0.1,0.1,0.2,0.1c0.1,0,0.3-0.1,0.3-0.3
		c0.1-0.3-0.2-0.5-0.4-0.6c-0.3-0.1-0.5,0-0.7,0.2s-0.3,0.5-0.3,0.7c0.1,0.5,0.4,0.7,0.7,0.8s0.7,0.1,1,0c0.5-0.2,0.7-0.6,0.8-0.8
		c0.1-0.3,0.1-0.7,0-1.1c-0.2-0.6-0.8-1.1-1.5-1.2c-0.3-0.1-0.6-0.1-0.8,0c-0.8,0.1-1.5,0.4-2.1,1s-0.9,1.5-0.9,2.6
		c0,0.2,0,0.4,0,0.6c0,0.2,0.1,0.4,0.1,0.6c-0.5,0.3-0.9,0.7-1.2,1.1c-0.4,0.5-0.6,0.9-0.8,1.4l0,0l0,0c0,0,0,0,0,0.1l0,0
		c0.1,0.5,0.4,1,0.8,1.4c0.3,0.4,0.8,0.8,1.2,1.1c-0.1,0.2-0.1,0.4-0.1,0.6s0,0.4,0,0.6c0,1.1,0.3,2,0.9,2.6
		c0.1,0.1,0.2,0.2,0.3,0.2l0.1,0.1l0,0l0.3,0.2c0.2,0.1,0.3,0.2,0.5,0.3h-0.1L133,75l0,0l0.2,0.1l0,0l0,0l0,0h0.2l0,0h0.1l0,0
		c0.2,0,0.3,0.1,0.5,0.1s0.3,0,0.3,0l-0.1,0.1l0.5-0.2l0,0l0,0c1.3-0.5,1.5-1.5,1.5-1.6l0,0l0,0c0-0.3,0-0.6-0.2-0.9
		c-0.2-0.2-0.5-0.5-0.9-0.5c-0.1,0-0.3,0.1-0.4,0.3c0,0.1,0,0.2,0,0.2c0,0.1,0.1,0.1,0.2,0l0,0l0,0c0-0.1,0.1-0.2,0.2-0.2
		c0,0,0.1,0,0.1,0.1s0,0.3-0.1,0.3c-0.1,0.1-0.2,0.1-0.3,0.2s-0.2,0.1-0.3,0.2c-0.2,0.2-0.3,0.4-0.2,0.7c-0.1,0-0.2,0.1-0.3,0.3
		c0-0.1,0.1-0.3,0-0.4c0-0.1-0.1-0.2-0.3-0.2h-0.1c0,0-0.1,0-0.1,0.1l0,0l0,0c-0.1,0-0.1,0-0.1,0c-0.3,0-0.5,0.1-0.8,0.2
		c-0.1-0.1-0.2-0.1-0.4-0.1l0,0c-0.1,0-0.1,0-0.2,0c0.1,0,0.2-0.1,0.2-0.2l0.1-0.1h-0.1c-0.1,0-0.1-0.1-0.1-0.1l-0.1-0.1
		c-0.1-0.1-0.2-0.1-0.2-0.2c-0.1,0-0.1,0-0.1-0.1c-0.1,0-0.1-0.1-0.1-0.1l0,0l0,0c0-0.1,0-0.1,0-0.2l0.1-0.1h-0.1
		c0-0.3-0.1-0.6-0.1-0.8c0-0.2,0-0.3,0-0.5c0-0.1,0-0.3,0.1-0.4c0.4,0.2,0.8,0.3,1.3,0.4c0.4,0.1,0.9,0.2,1.4,0.2
		c0.6,0,1.3-0.1,2-0.2s1.3-0.4,2-0.7c0.3-0.2,0.7-0.3,1-0.5c0.2,0,0.4,0.1,0.6,0.1l0,0l0,0h0.4c-0.1,0-0.2,0.5-0.2,1
		c0,0.4-0.1,0.8-0.1,1.2c0,0.7,0.1,1.2,0.4,1.6c0.2,0.3,0.4,0.5,0.7,0.6c0.1,0,0.3,0.1,0.4,0.1c0.2,0,0.3,0,0.4-0.1
		c0.3-0.1,0.5-0.3,0.7-0.6c0.3-0.4,0.4-0.9,0.4-1.6c0-0.5,0-0.8-0.1-1.1c-0.1-0.4-0.1-1-0.2-1h0.4l0,0l0,0l0,0
		c0.2,0,0.4-0.1,0.6-0.1l0,0c-0.2,0-0.4,0-0.6,0c0.2,0,0.4,0,0.6,0c0.3,0.2,0.7,0.4,1,0.6c0.7,0.3,1.3,0.5,2,0.7
		c0.7,0.1,1.4,0.2,2,0.2c0.5,0,1-0.1,1.4-0.2s0.8-0.3,1.2-0.4c0,0.1,0.1,0.3,0.1,0.4s0,0.3,0,0.5c0,0.3,0,0.6-0.1,0.9h-0.2l0.1,0.1
		c0.1,0.2-0.1,0.3-0.2,0.4l-0.1,0.1c-0.1,0-0.2,0.1-0.2,0.2l-0.1,0.1l-0.1,0.1h-0.1l0.1,0.1c0.1,0.1,0.2,0.1,0.2,0.2
		c-0.1,0-0.1,0-0.2,0l0,0c-0.2,0-0.4,0.1-0.4,0.1c-0.3-0.2-0.6-0.3-0.8-0.2h-0.1l0,0l0,0c0-0.1-0.1-0.1-0.1-0.1H149
		c-0.1,0-0.2,0.1-0.3,0.2c0,0.1,0,0.3,0,0.4c-0.1-0.1-0.2-0.2-0.3-0.3c0-0.2,0-0.5-0.2-0.7c-0.1-0.1-0.2-0.1-0.3-0.2
		s-0.2-0.1-0.3-0.2s-0.1-0.2-0.1-0.3c0,0,0-0.1,0.1-0.1s0.1,0.1,0.2,0.2l0,0l0,0c0.1,0,0.2,0,0.2,0c0-0.1,0-0.1,0-0.2
		c-0.1-0.1-0.3-0.3-0.4-0.3c-0.4,0-0.7,0.2-0.9,0.5s-0.2,0.6-0.2,0.9l0,0l0,0c0,0,0.2,1.1,1.5,1.6l0,0l0,0l0.6,0.2l-0.1-0.1
		c0.1,0,0.4,0,0.5,0c0.2,0,0.8,0,0.8-0.1l0,0l-0.4-0.1l0,0h0.2l0,0l0,0l0,0l0,0l0,0l0,0l0,0l0.2-0.1l0,0c0.2,0,0.4-0.2,0.5-0.3
		l0.1-0.1c0.2-0.1,0.4-0.3,0.5-0.4c0.6-0.6,0.9-1.5,0.9-2.6c0-0.2,0-0.4,0-0.6s-0.1-0.4-0.1-0.6c0.5-0.3,0.9-0.7,1.2-1.1
		c0.4-0.4,0.6-0.9,0.8-1.4l0,0C154.1,67.7,154.1,67.7,154.1,67.6L154.1,67.6L154.1,67.6z M149.6,74.9c-0.2,0-0.4,0.1-0.5,0.1
		c-0.2,0-0.3,0-0.3,0c-0.1,0-0.3-0.1-0.4-0.1l0,0l0,0c-1.2-0.4-1.4-1.3-1.4-1.4l0,0c0,0.1,0.3,1,1.4,1.4l0,0l0,0
		c0.1,0,0.3,0.1,0.4,0.1c0,0,0.1,0,0.3,0C149.2,74.9,149.4,74.9,149.6,74.9L149.6,74.9L149.6,74.9L149.6,74.9L149.6,74.9z
		 M131.8,72.4L131.8,72.4L131.8,72.4L131.8,72.4L131.8,72.4z M142.7,61.8c0.2,0.4,0.4,0.9,0.4,1.5l0,0
		C143.1,62.7,142.9,62.2,142.7,61.8c-0.2-0.3-0.4-0.4-0.6-0.5c-0.1,0-0.2-0.1-0.4-0.1c0.1,0,0.3,0,0.4,0.1
		C142.3,61.4,142.5,61.6,142.7,61.8z M139.7,69.4L139.7,69.4l0.2-0.1l0.1-0.1l-0.1,0.1L139.7,69.4z M143.7,65.8L143.7,65.8l-0.2,0.1
		l-0.1,0.1l0.1-0.1L143.7,65.8z M142.9,71.9c0,0.7-0.1,1.2-0.4,1.5c-0.1,0.2-0.3,0.3-0.4,0.4c-0.1,0.1-0.3,0.1-0.4,0.1
		c-0.1,0-0.3,0-0.4-0.1c-0.2-0.1-0.3-0.2-0.4-0.4c-0.3-0.3-0.4-0.8-0.4-1.5l0,0c0,0.7,0.1,1.2,0.4,1.5c0.1,0.2,0.3,0.3,0.4,0.4
		c0.1,0.1,0.3,0.1,0.4,0.1c0.1,0,0.3,0,0.4-0.1c0.2-0.1,0.3-0.2,0.4-0.4C142.8,73.1,142.9,72.6,142.9,71.9L142.9,71.9z M148.6,66.7
		c-0.8-0.4-1.6-0.6-2.5-0.8c-0.4-0.1-0.9-0.2-1.3-0.2l0,0c1.2-0.6,2.5-0.9,4.2-0.9c0.8,0,1.6,0.2,2.5,0.5c-0.3,0.6-0.7,1.2-1.3,1.7
		c-0.1,0.1-0.3,0.3-0.5,0.4C149.3,67.1,149,66.9,148.6,66.7z M140.9,62c0.2-0.2,0.3-0.3,0.4-0.3c0.2-0.1,0.5-0.1,0.7,0
		c0.1,0.1,0.3,0.2,0.4,0.3c0.3,0.3,0.4,0.8,0.4,1.4c0,0.4,0,0.7-0.1,1.1c-0.1,0.3-0.2,0.7-0.3,1c-0.1,0-0.2,0-0.4,0
		c-0.1,0-0.3,0-0.4,0l0,0c-0.1,0-0.2,0-0.3,0l0,0l0,0c-0.1,0-0.2,0-0.3,0c-0.1-0.4-0.2-0.7-0.3-1c-0.1-0.4-0.1-0.7-0.1-1.1
		C140.5,62.8,140.7,62.3,140.9,62z M141.6,65.7L141.6,65.7c0.2,0,0.3,0,0.4,0C141.9,65.7,141.8,65.7,141.6,65.7L141.6,65.7
		L141.6,65.7L141.6,65.7z M141.7,69.3c-0.1,0-0.3,0-0.4,0c-0.1,0-0.1,0-0.2,0c0.1-0.2,0.1-0.3,0.2-0.5c0.1-0.2,0.2-0.4,0.3-0.5
		c0.1,0.2,0.2,0.3,0.3,0.5s0.2,0.3,0.2,0.5l0,0H142C142,69.3,141.8,69.3,141.7,69.3z M141,68.6c-0.1,0.2-0.2,0.4-0.3,0.6
		c-0.1,0-0.2,0-0.3-0.1C140.6,68.9,140.8,68.8,141,68.6z M141.3,67.6L141.3,67.6L141.3,67.6c-0.4,0.5-0.9,1-1.4,1.4
		c-1.2-0.3-2.4-0.7-3.5-1.3c1.1-0.6,2.2-1.1,3.5-1.3C140.4,66.7,140.9,67.1,141.3,67.6z M141.7,66c0.1,0,0.3,0,0.4,0
		c0.1,0,0.1,0,0.1,0l0,0c-0.1,0.2-0.1,0.3-0.2,0.5c-0.1,0.2-0.2,0.4-0.3,0.5c-0.1-0.2-0.2-0.3-0.3-0.5c-0.1-0.1-0.1-0.3-0.2-0.5
		c0,0,0.1,0,0.2,0C141.4,66,141.6,66,141.7,66z M142.4,66.7c0.1-0.2,0.2-0.3,0.2-0.5c0.1,0,0.2,0,0.3,0.1
		C142.8,66.3,142.6,66.5,142.4,66.7z M143,69.1c-0.1,0-0.2,0-0.3,0.1c-0.1-0.2-0.1-0.4-0.2-0.5C142.6,68.8,142.8,69,143,69.1z
		 M140.4,66.2c0.1,0,0.2,0,0.3-0.1c0.1,0.2,0.2,0.4,0.3,0.6C140.8,66.5,140.6,66.4,140.4,66.2z M142.2,67.7L142.2,67.7L142.2,67.7
		c0.4-0.5,0.9-1,1.4-1.4c1.2,0.3,2.4,0.7,3.5,1.3c-1.1,0.6-2.2,1.1-3.5,1.3C143,68.6,142.6,68.2,142.2,67.7z M141.6,69.5L141.6,69.5
		L141.6,69.5c-0.1,0-0.2,0-0.3,0l0,0l0,0C141.4,69.6,141.5,69.6,141.6,69.5z M140.6,70.8c0.1-0.3,0.2-0.7,0.3-1c0.1,0,0.2,0,0.3,0
		l0,0c0.1,0,0.2,0,0.3,0l0,0c0.1,0,0.3,0,0.4,0c0.1,0,0.3,0,0.4,0c0.1,0.4,0.2,0.7,0.3,1s0.1,0.7,0.1,1.1c0,0.7-0.1,1.2-0.4,1.5
		c-0.1,0.2-0.3,0.3-0.4,0.3c-0.3,0.1-0.5,0.1-0.7,0c-0.1-0.1-0.3-0.2-0.4-0.3c-0.2-0.3-0.4-0.8-0.4-1.5
		C140.5,71.5,140.6,71.2,140.6,70.8z M142.8,70.8c-0.1-0.4-0.2-0.8-0.3-1.1C142.7,70,142.8,70.4,142.8,70.8c0.1,0.3,0.1,0.7,0.1,1.1
		C142.9,71.5,142.9,71.1,142.8,70.8z M142.5,65.6c0.1-0.4,0.3-0.7,0.3-1.1c0.1-0.4,0.1-0.7,0.1-1.1l0,0c0,0.4-0.1,0.7-0.1,1.1
		S142.7,65.2,142.5,65.6z M140.5,63.4L140.5,63.4C140.5,63.5,140.5,63.5,140.5,63.4L140.5,63.4z M141.3,65.7L141.3,65.7L141.3,65.7
		c-0.1,0-0.3,0-0.4,0C141,65.7,141.1,65.7,141.3,65.7z M140,66.1L140,66.1L140,66.1c-0.1,0-0.1,0-0.1-0.1
		C139.9,66,139.9,66,140,66.1L140,66.1L140,66.1c0.1,0,0.3-0.1,0.5-0.1C140.3,66,140.2,66,140,66.1z M133.3,68.4
		c0.1-0.1,0.3-0.3,0.5-0.4c0.3,0.2,0.7,0.4,1.1,0.6c0.8,0.4,1.6,0.6,2.5,0.8c0.4,0.1,0.9,0.2,1.4,0.2l0,0c-1.2,0.6-2.6,0.9-4.2,0.9
		c-0.8,0-1.6-0.2-2.5-0.5C132.3,69.5,132.7,68.9,133.3,68.4z M137.4,65.9c-0.9,0.2-1.7,0.5-2.5,0.8c-0.4,0.2-0.8,0.4-1.1,0.6
		c-0.2-0.1-0.3-0.2-0.5-0.4c-0.6-0.5-1-1.1-1.3-1.7c0.8-0.3,1.7-0.5,2.5-0.5c1.6,0,3,0.3,4.2,0.9l0,0
		C138.3,65.7,137.8,65.8,137.4,65.9z M137.8,69.1c-0.9-0.2-1.7-0.5-2.5-0.8c-0.4-0.2-0.7-0.4-1.1-0.6c0.3-0.2,0.7-0.4,1.1-0.6
		c0.8-0.4,1.6-0.6,2.5-0.8c0.5-0.1,1.1-0.2,1.6-0.2c0,0,0.1,0,0.1,0.1c-0.6,0.2-1.1,0.3-1.7,0.6c-0.6,0.2-1.2,0.5-1.7,0.9
		c-0.2-0.1-0.3-0.2-0.5-0.3c0,0,0,0-0.1,0c0,0-0.1,0-0.1,0.1s0,0.1,0.1,0.2s0.2,0.1,0.3,0.2c-0.1,0.1-0.2,0.1-0.3,0.2
		s-0.1,0.1-0.1,0.2s0.1,0.1,0.1,0.1s0,0,0.1,0c0.1-0.1,0.3-0.2,0.4-0.3c0.5,0.3,1.1,0.6,1.7,0.9c0.5,0.2,1.1,0.4,1.7,0.6
		c0,0-0.1,0-0.1,0.1C138.8,69.3,138.3,69.2,137.8,69.1z M133.2,67.6c-0.2,0.1-0.3,0.2-0.4,0.4c-0.6,0.5-1,1.1-1.3,1.7
		c-0.4-0.2-0.8-0.5-1.1-0.9c-0.3-0.3-0.6-0.8-0.8-1.2c0.2-0.5,0.4-0.9,0.8-1.2c0.3-0.3,0.7-0.6,1.1-0.9c0.3,0.6,0.7,1.2,1.3,1.7
		C132.9,67.4,133.1,67.5,133.2,67.6z M142.1,69.6c-0.1,0-0.2,0-0.3,0C141.9,69.6,142,69.6,142.1,69.6c0.2,0,0.3,0,0.4,0
		C142.4,69.6,142.3,69.6,142.1,69.6z M143.4,69.2L143.4,69.2L143.4,69.2c0.1,0,0.1,0,0.1,0.1C143.5,69.3,143.5,69.3,143.4,69.2
		L143.4,69.2L143.4,69.2c-0.1,0-0.3,0.1-0.5,0.1C143.1,69.3,143.2,69.3,143.4,69.2z M145.6,68.7c0.6-0.2,1.2-0.5,1.7-0.9
		c0.2,0.1,0.3,0.2,0.5,0.3c0.1,0,0.1,0,0.2-0.1c0-0.1,0-0.1-0.1-0.2s-0.2-0.1-0.3-0.2c0.1-0.1,0.2-0.1,0.3-0.2s0.1-0.1,0.1-0.2
		s-0.1-0.1-0.2-0.1c-0.1,0.1-0.3,0.2-0.4,0.3c-0.5-0.3-1.1-0.6-1.7-0.9c-0.5-0.2-1.1-0.4-1.7-0.6c0,0,0.1,0,0.1-0.1
		c0.5,0,1,0.1,1.6,0.2c0.9,0.2,1.7,0.5,2.5,0.8c0.4,0.2,0.7,0.4,1.1,0.6c-0.3,0.2-0.7,0.4-1.1,0.6c-0.8,0.4-1.6,0.6-2.5,0.8
		c-0.5,0.1-1.1,0.2-1.6,0.2c0,0-0.1,0-0.1-0.1C144.5,69.1,145.1,68.9,145.6,68.7z M146,69.4c0.9-0.2,1.8-0.5,2.5-0.8
		c0.4-0.2,0.8-0.4,1.1-0.6c0.2,0.1,0.3,0.3,0.5,0.4c0.6,0.5,1,1.1,1.3,1.7c-0.8,0.3-1.7,0.5-2.5,0.5c-1.6,0-3-0.3-4.2-0.9l0,0
		C145.1,69.6,145.6,69.5,146,69.4z M142.9,66C142.9,66,143,66,142.9,66C143,66,142.9,66,142.9,66l-0.6-0.1L142.9,66z M143,63.4
		c0-0.7-0.1-1.2-0.4-1.5c-0.1-0.2-0.3-0.3-0.5-0.4c-0.3-0.2-0.6-0.1-0.9,0c-0.2,0.1-0.3,0.2-0.5,0.4c-0.3,0.3-0.4,0.8-0.4,1.5l0,0
		c0-0.7,0.1-1.2,0.4-1.5c0.2-0.2,0.3-0.3,0.5-0.4c0.3-0.1,0.6-0.2,0.9,0c0.2,0.1,0.3,0.2,0.5,0.4C142.9,62.2,143,62.7,143,63.4
		L143,63.4z M140,66C140,66,140,65.9,140,66C140,65.9,140,65.9,140,66c0.2,0,0.3-0.1,0.5-0.1C140.3,65.9,140.2,65.9,140,66z
		 M139.9,65.9L139.9,65.9c0.1,0,0.3,0,0.4,0C140.1,65.9,140,65.9,139.9,65.9z M139.7,65.8L139.7,65.8L139.7,65.8L139.7,65.8z
		 M140.5,69.3L140.5,69.3L140.5,69.3l0.6,0.1L140.5,69.3z M140.4,71.9c0,0.7,0.1,1.2,0.4,1.5c0.2,0.2,0.3,0.3,0.5,0.4
		c0.1,0.1,0.3,0.1,0.4,0.1c0.1,0,0.3,0,0.4-0.1c0.2-0.1,0.3-0.2,0.5-0.4c0.3-0.3,0.4-0.8,0.4-1.5l0,0c0,0.7-0.1,1.2-0.4,1.5
		c-0.1,0.2-0.3,0.3-0.5,0.4c-0.1,0.1-0.3,0.1-0.4,0.1c-0.1,0-0.3,0-0.4-0.1c-0.1-0.1-0.3-0.2-0.5-0.4
		C140.5,73.1,140.4,72.6,140.4,71.9L140.4,71.9z M143.4,69.3C143.4,69.3,143.4,69.4,143.4,69.3C143.4,69.4,143.4,69.4,143.4,69.3
		c-0.1,0-0.3,0.1-0.5,0.1C143.1,69.4,143.2,69.4,143.4,69.3z M143.5,69.4L143.5,69.4c-0.1,0-0.3,0-0.4,0
		C143.3,69.4,143.4,69.4,143.5,69.4z M143.7,69.5L143.7,69.5L143.7,69.5L143.7,69.5z M153,66.4c0.3,0.3,0.6,0.8,0.8,1.2
		c-0.2,0.5-0.4,0.9-0.8,1.2c-0.3,0.3-0.7,0.6-1.1,0.9c-0.3-0.6-0.7-1.2-1.3-1.7c-0.1-0.1-0.3-0.2-0.4-0.4c0.2-0.1,0.3-0.2,0.4-0.4
		c0.6-0.5,1-1.1,1.3-1.7C152.3,65.8,152.7,66.1,153,66.4z M143.5,65.9L143.5,65.9c-0.1,0-0.3,0-0.4,0
		C143.3,65.9,143.4,65.9,143.5,65.9L143.5,65.9z M142.7,65.7L142.7,65.7C142.7,65.6,142.7,65.6,142.7,65.7
		C142.7,65.6,142.7,65.6,142.7,65.7L142.7,65.7z M141,63.3c0,0.4-0.3,0.8-0.2,1.2s0,0.8,0.1,1.1c-0.1-0.3,0.1-0.6,0-1.1
		C140.8,64.1,141,63.7,141,63.3L141,63.3z M139.5,65.7L139.5,65.7c-0.4-0.2-0.7-0.4-1.1-0.6c-0.7-0.3-1.3-0.5-1.9-0.7
		c-0.7-0.1-1.4-0.2-2-0.2c-0.5,0-0.9,0.1-1.4,0.2c-0.4,0.1-0.9,0.3-1.3,0.5h-0.1v-0.1c-0.1-0.2-0.1-0.4-0.1-0.5s0-0.2,0-0.2
		c0,0.1,0,0.2,0,0.2c0,0.2,0,0.3,0.1,0.5v0.1h0.1c0.4-0.2,0.9-0.4,1.3-0.5c0.4-0.1,0.9-0.2,1.4-0.2c0.6,0,1.3,0.1,2,0.2
		s1.3,0.4,1.9,0.7C138.8,65.3,139.1,65.5,139.5,65.7L139.5,65.7L139.5,65.7L139.5,65.7z M139.9,69.4L139.9,69.4L139.9,69.4
		c0.1,0,0.3,0,0.4,0C140.1,69.4,140,69.4,139.9,69.4z M140.7,69.6L140.7,69.6C140.7,69.7,140.7,69.7,140.7,69.6
		C140.7,69.7,140.7,69.7,140.7,69.6L140.7,69.6z M140.7,73.5c-0.2-0.4-0.4-0.9-0.4-1.5l0,0C140.4,72.6,140.5,73.1,140.7,73.5
		c0.2,0.3,0.3,0.4,0.6,0.5c0.1,0,0.2,0.1,0.4,0.1c-0.1,0-0.3,0-0.4-0.1C141.1,73.9,140.9,73.7,140.7,73.5z M143,72
		c0-0.4,0-0.8-0.1-1.2c-0.1-0.4-0.1-0.8-0.2-1.1c0.1,0.3,0.1,0.7,0.2,1.1C143,71.1,143,71.5,143,72L143,72z M150.5,68.1
		c-0.2-0.1-0.3-0.3-0.5-0.4l-0.1-0.1l0.1-0.1c0.2-0.1,0.4-0.3,0.5-0.4c0.3-0.3,0.5-0.5,0.8-0.8c0.2-0.2,0.3-0.4,0.4-0.7
		c-0.1,0.2-0.3,0.5-0.4,0.7c-0.2,0.3-0.5,0.6-0.8,0.8c-0.2,0.1-0.3,0.3-0.5,0.4l-0.1,0.1l0.1,0.1C150.2,67.8,150.4,68,150.5,68.1
		c0.6,0.5,1,1.1,1.3,1.7l0,0l0,0l0,0C151.6,69.2,151.1,68.6,150.5,68.1z M146.8,73.3L146.8,73.3L146.8,73.3L146.8,73.3
		c0-0.1,0-0.1,0-0.2C146.8,73.2,146.8,73.2,146.8,73.3z M147.4,62.7c0.1,0.1,0.2,0.2,0.3,0.3c0.1,0,0.1,0.1,0.2,0.1
		c-0.1,0-0.1-0.1-0.2-0.1C147.5,63,147.4,62.9,147.4,62.7c-0.1-0.2-0.1-0.4-0.1-0.6C147.2,62.4,147.3,62.6,147.4,62.7z M144.9,65.1
		c0.6-0.3,1.3-0.5,2-0.7c0.7-0.1,1.3-0.2,2-0.2c0.5,0,0.9,0.1,1.4,0.2c0.4,0.1,0.9,0.3,1.3,0.5c0.1-0.2,0.1-0.3,0.1-0.5
		c0-0.1,0-0.3,0-0.5l0,0c0,0.2,0,0.3,0,0.5s0,0.3-0.1,0.5c-0.4-0.2-0.9-0.4-1.3-0.5c-0.5-0.1-0.9-0.2-1.4-0.2c-0.7,0-1.3,0.1-2,0.2
		C146.2,64.6,145.6,64.8,144.9,65.1c-0.4,0.2-0.7,0.3-1,0.6C144.2,65.4,144.6,65.2,144.9,65.1z M143,64.5c0.1-0.4,0.1-0.7,0.1-1.1
		l0,0C143.1,63.8,143.1,64.1,143,64.5z M140.5,61.8c0.2-0.3,0.5-0.4,0.7-0.5c0.1,0,0.3-0.1,0.4-0.1c-0.1,0-0.3,0-0.4,0.1
		C141,61.3,140.7,61.5,140.5,61.8c-0.3,0.4-0.5,0.9-0.5,1.6l0,0C140,62.7,140.3,62.2,140.5,61.8z M140.4,64.5L140.4,64.5L140.4,64.5
		c0.1,0.4,0.1,0.8,0.2,1.1C140.5,65.3,140.4,64.9,140.4,64.5z M135.3,60.9c-0.5-0.3-1.1-0.2-1.7-0.1c-0.2,0-0.3,0.1-0.5,0.2
		c-0.3,0.2-0.6,0.4-0.9,0.7c-0.2,0.3-0.4,0.6-0.5,1s-0.2,0.8-0.2,1.2l0,0c0-0.4,0.1-0.8,0.2-1.2c0.1-0.4,0.3-0.7,0.5-1
		s0.5-0.5,0.9-0.7c0.2-0.1,0.3-0.1,0.5-0.2C134.2,60.6,134.8,60.6,135.3,60.9c0.4,0.2,0.8,0.7,0.8,1.3
		C136.1,61.6,135.7,61.1,135.3,60.9z M138.5,70.2c-0.6,0.3-1.3,0.5-2,0.7c-0.7,0.1-1.3,0.2-2,0.2c-0.5,0-0.9-0.1-1.4-0.2
		s-0.9-0.3-1.3-0.5c-0.1,0.2-0.1,0.3-0.1,0.5c0,0.1,0,0.3,0,0.5l0,0c0-0.2,0-0.3,0-0.5s0-0.3,0.1-0.5c0.4,0.2,0.9,0.4,1.3,0.5
		c0.4,0.1,0.9,0.2,1.4,0.2c0.7,0,1.3-0.1,2-0.2C137.2,70.7,137.8,70.5,138.5,70.2c0.4-0.2,0.7-0.3,1-0.6
		C139.2,69.9,138.8,70.1,138.5,70.2z M140.5,70.8c0,0.4-0.1,0.7-0.1,1.1l0,0C140.4,71.5,140.5,71.2,140.5,70.8z M142.7,73.5
		c-0.2,0.3-0.3,0.4-0.6,0.5c-0.1,0-0.2,0.1-0.4,0.1c0.1,0,0.3,0,0.4-0.1C142.4,74,142.5,73.8,142.7,73.5c0.2-0.4,0.3-0.9,0.3-1.6
		l0,0C143,72.6,142.9,73.1,142.7,73.5z M143,70.8L143,70.8L143,70.8c-0.1-0.4-0.1-0.8-0.2-1.1C142.9,70,143,70.4,143,70.8z
		 M143.9,69.9L143.9,69.9L143.9,69.9c0.3,0.1,0.7,0.2,1,0.4c0.7,0.3,1.3,0.5,1.9,0.6c0.7,0.1,1.4,0.2,2,0.2c0.5,0,0.9-0.1,1.4-0.2
		c0.4-0.1,0.9-0.3,1.3-0.5h0.1v0.1c0.1,0.2,0.1,0.3,0.1,0.5c0,0.1,0,0.3,0,0.5c0-0.2,0-0.3,0-0.5s0-0.3-0.1-0.5v-0.1h-0.1
		c-0.4,0.2-0.9,0.4-1.3,0.5c-0.4,0.1-0.9,0.2-1.4,0.2c-0.6,0-1.3-0.1-2-0.2s-1.3-0.4-1.9-0.7c-0.3-0.2-0.7-0.4-1-0.6v0.1V69.9z
		 M151.7,71.7c0,0.3,0,0.6-0.1,0.9C151.7,72.3,151.7,72,151.7,71.7z M150.7,73.3c0.1,0,0.1-0.1,0.2-0.2c0.1-0.1,0.3-0.1,0.4-0.2
		c0.2-0.1,0.3-0.3,0.2-0.5l0,0c0.1,0.2-0.1,0.4-0.2,0.5c-0.1,0.1-0.3,0.1-0.4,0.2C150.9,73.2,150.8,73.3,150.7,73.3
		c0.1,0.1,0.2,0.2,0.4,0.2C151,73.5,150.8,73.4,150.7,73.3z M150.7,73.6c0.2,0,0.4,0,0.5-0.1l0,0l0,0l0,0
		C151.1,73.6,150.8,73.6,150.7,73.6s-0.5,0-0.5,0.1l0,0C150.2,73.7,150.6,73.6,150.7,73.6z M149.4,73.5h0.1
		C149.5,73.5,149.5,73.5,149.4,73.5l-0.2,0.1C149.3,73.6,149.4,73.5,149.4,73.5z"/>
</g>
<circle id="XMLID_405_" class="st5" cx="92.1" cy="262.2" r="13.4"/>
<circle id="XMLID_404_" class="st6" cx="92.1" cy="262.2" r="9"/>
<circle id="XMLID_407_" class="st5" cx="191.3" cy="163" r="13.4"/>
<circle id="XMLID_406_" class="st6" cx="191.3" cy="163" r="9"/>
<rect id="XMLID_6_" x="70.9" y="209.7" transform="matrix(0.7071 -0.7071 0.7071 0.7071 -108.2064 162.2444)" class="st0" width="141.7" height="4.1"/>
</svg>
