<svg xmlns="http://www.w3.org/2000/svg" xmlns:xlink="http://www.w3.org/1999/xlink" width="1000" zoomAndPan="magnify" viewBox="0 0 750 749.999995" height="1000" preserveAspectRatio="xMidYMid meet" version="1.0"><path fill="#ffffff" d="M 624.023438 95.214844 C 621.972656 96.09375 602.488281 114.699219 580.515625 136.523438 L 540.820312 176.222656 L 521.921875 168.898438 C 491.453125 156.738281 462.449219 149.121094 428.464844 143.996094 C 401.511719 140.039062 344.824219 140.480469 316.550781 144.875 C 241.992188 156.300781 176.074219 186.035156 113.671875 236.28125 C 93.894531 252.101562 56.394531 289.894531 40.429688 309.816406 C 23.144531 331.640625 1.757812 363.722656 0.585938 369.875 C -1.023438 378.664062 1.171875 384.523438 13.183594 402.539062 C 48.339844 455.710938 98.730469 506.394531 149.414062 539.792969 C 157.910156 545.359375 165.085938 550.046875 165.378906 550.339844 C 165.820312 550.632812 150.144531 566.894531 130.808594 586.375 C 100.488281 616.699219 95.359375 622.558594 94.480469 627.390625 C 92.871094 636.179688 94.921875 643.066406 100.925781 649.070312 C 106.933594 655.078125 113.816406 657.128906 122.605469 655.515625 C 127.585938 654.636719 155.859375 626.804688 390.820312 392.140625 C 583.738281 199.21875 653.757812 128.320312 654.929688 124.660156 C 658.152344 114.84375 654.636719 104.296875 645.703125 97.707031 C 641.160156 94.335938 629.441406 93.019531 624.023438 95.214844 Z M 424.804688 191.164062 C 450 194.972656 477.976562 202.296875 500.097656 210.9375 L 504.492188 212.550781 L 456.445312 260.597656 L 452.488281 257.8125 C 444.871094 252.246094 420.996094 241.699219 409.421875 238.476562 C 393.894531 234.375 359.03125 233.9375 343.652344 237.746094 C 316.84375 244.484375 295.605469 256.496094 275.976562 275.976562 C 256.492188 295.605469 244.480469 316.992188 237.742188 343.652344 C 233.789062 359.472656 234.226562 392.578125 238.476562 408.691406 C 241.84375 420.851562 251.511719 442.96875 257.664062 451.902344 L 260.59375 456.445312 L 201.121094 515.917969 L 187.207031 507.273438 C 138.574219 476.660156 89.207031 430.078125 58.59375 385.839844 L 51.121094 375 L 58.445312 364.308594 C 84.375 326.808594 129.492188 281.691406 167.722656 254.738281 C 219.285156 218.410156 280.222656 195.410156 340.722656 189.113281 C 358.886719 187.207031 406.347656 188.378906 424.804688 191.164062 Z M 395.800781 284.035156 C 404.882812 286.378906 421.875 293.410156 421.875 294.875 C 421.875 295.019531 393.308594 323.730469 358.300781 358.742188 L 294.726562 422.316406 L 290.769531 414.699219 C 285.496094 404.003906 281.25 386.71875 281.25 375.148438 C 281.394531 315.234375 338.964844 269.53125 395.800781 284.035156 Z M 395.800781 284.035156 " fill-opacity="1" fill-rule="nonzero"/><path fill="#ffffff" d="M 606.003906 242.871094 C 597.363281 251.515625 590.332031 259.277344 590.476562 260.011719 C 590.476562 260.890625 596.191406 265.871094 603.222656 271.289062 C 633.25 294.289062 672.800781 336.476562 694.1875 367.96875 L 698.875 375 L 692.871094 383.789062 C 667.675781 420.996094 623.875 465.378906 585.203125 493.066406 C 518.992188 540.527344 441.648438 564.695312 364.746094 561.914062 C 340.722656 561.179688 333.25 560.300781 308.640625 555.761719 L 295.605469 553.269531 L 276.707031 572.167969 C 263.085938 585.789062 258.398438 591.210938 259.863281 592.089844 C 263.964844 594.433594 298.679688 602.195312 318.601562 605.273438 C 345.996094 609.519531 401.804688 609.8125 428.464844 606.003906 C 522.949219 592.089844 601.757812 551.367188 673.828125 479.148438 C 699.609375 453.222656 716.453125 432.863281 735.351562 404.589844 C 754.246094 376.464844 754.246094 373.976562 737.109375 347.753906 C 720.703125 322.851562 698.289062 295.460938 674.558594 271.582031 C 654.492188 251.367188 626.511719 227.050781 623.4375 227.050781 C 622.558594 227.050781 614.648438 234.082031 606.003906 242.871094 Z M 606.003906 242.871094 " fill-opacity="1" fill-rule="nonzero"/><path fill="#ffffff" d="M 488.671875 360.207031 L 468.457031 380.421875 L 466.550781 391.992188 C 464.207031 405.46875 455.859375 423.339844 446.921875 434.035156 C 433.152344 450.585938 412.058594 463.035156 391.992188 466.550781 L 380.417969 468.457031 L 359.765625 489.109375 C 348.484375 500.390625 339.695312 510.058594 340.136719 510.496094 C 341.894531 512.253906 364.304688 515.476562 375.144531 515.625 C 412.207031 515.769531 446.335938 501.269531 473.875 473.875 C 502.148438 445.605469 514.597656 415.871094 514.746094 376.464844 C 514.890625 358.15625 512.402344 339.84375 510.058594 339.84375 C 509.472656 339.84375 499.949219 348.925781 488.671875 360.207031 Z M 488.671875 360.207031 " fill-opacity="1" fill-rule="nonzero"/></svg>