<?xml version="1.0" encoding="UTF-8"?>
<svg id="Capa_14" data-name="Capa 14" xmlns="http://www.w3.org/2000/svg" viewBox="0 0 719.94 1080">
  <defs>
    <style>
      .cls-1 {
        fill: #88c9d1;
      }
    </style>
  </defs>
  <path class="cls-1" d="m549.17,883.26l25.92,25.92-26.07,26.05.2.18-.08.05,144.52,144.54h26.28v-26.41l-.13.13-144.44-144.44,144.57-144.59v-44.73c-4.79,0-9.38,1.96-12.97,5.56l-157.8,157.75Z"/>
  <path class="cls-1" d="m196.67,909.15l-26.1,26.13.23.2,144.47,144.47-.05.05h44.75s0-.03,0-.05c0-4.82-1.96-9.38-5.56-12.97l-157.75-157.82Z"/>
  <path class="cls-1" d="m365.04,1066.98c-3.39,3.36-5.07,8.2-5.06,13.02h44.26l-.05-.05,144.82-144.72-26.1-26.1-157.87,157.85Z"/>
  <path class="cls-1" d="m170.8,197.04l-26.1-26.1L0,315.74v44.24c4.81,0,9.61-1.69,12.97-5.06l157.82-157.87Z"/>
  <path class="cls-1" d="m144.65,909.36l26.13-26.13L12.97,725.51c-3.59-3.59-8.17-5.55-12.97-5.55v44.75l144.44,144.44L0,1053.57v26.43h26l-.05-.05,144.62-144.67-12.95-12.97-12.97-12.95Z"/>
  <path class="cls-1" d="m196.69,170.78L354.41,12.99c3.59-3.59,5.55-8.17,5.56-12.99h-44.72l-144.61,144.58-.08.08L25.96,0H0v26.34l144.44,144.47.05-.08.2.2,26.07-26.07,25.92,25.92Z"/>
  <path class="cls-1" d="m706.97,354.91c3.36,3.37,8.17,5.06,12.97,5.06v-44.21l-144.72-144.82-26.07,26.1,157.82,157.87Z"/>
  <path class="cls-1" d="m215.25,710.88l-26.1,26.13,157.85,157.9c6.73,6.73,19.24,6.73,25.97,0l157.82-157.9-26.13-26.13-144.7,144.85-144.72-144.85Z"/>
  <path class="cls-1" d="m556.64,369.21l-26.1,26.07,144.7,144.67-144.59,144.59-144.47-144.47,144.59-144.57-.23-.23-25.9-25.9,26.1-26.1-157.77-157.75c-3.62-3.59-8.21-5.56-13-5.56s-9.38,1.96-12.97,5.56l-157.8,157.75,25.92,25.92-26.07,26.05.18.18-.05.08,144.52,144.52-144.65,144.65.08.08,26.07,26.07.05.05,144.65-144.65,144.52,144.54.08-.08.18.18,26.07-26.05,25.92,25.92,157.72-157.8c3.62-3.59,5.56-8.18,5.56-13s-1.94-9.35-5.56-12.97l-157.75-157.77Zm-196.79,144.54l-144.47-144.47,144.6-144.57,144.47,144.47-144.59,144.57Z"/>
  <path class="cls-1" d="m189.05,395.26l-26.1-26.1L5.05,526.98c-3.33,3.33-5,8.04-5.05,12.78v.43c.05,4.73,1.72,9.45,5.05,12.76l157.9,157.85,26.1-26.13-144.85-144.72,144.85-144.7Z"/>
  <polygon class="cls-1" points="719.94 26.32 719.94 0 693.6 0 693.66 .06 549.02 144.71 557.78 153.48 575.22 170.94 719.89 26.27 719.94 26.32"/>
  <path class="cls-1" d="m359.98,0c0,4.81,1.69,9.62,5.07,12.99l157.87,157.82,26.1-26.1L404.21,0h-44.23Z"/>
</svg>