<svg xmlns="http://www.w3.org/2000/svg" xmlns:xlink="http://www.w3.org/1999/xlink" width="1000" zoomAndPan="magnify" viewBox="0 0 750 749.999995" height="1000" preserveAspectRatio="xMidYMid meet" version="1.0"><path fill="#ffffff" d="M 347.167969 137.109375 C 260.886719 147.363281 180.90625 187.207031 95.945312 262.355469 C 66.210938 288.574219 17.285156 341.457031 4.6875 361.085938 C -0.585938 369.289062 -0.585938 380.714844 4.6875 388.917969 C 11.425781 399.464844 39.84375 432.421875 60.058594 453.074219 C 132.273438 527.488281 212.695312 579.636719 288.574219 601.316406 C 321.53125 610.691406 338.230469 612.890625 375 612.890625 C 411.765625 612.890625 428.464844 610.691406 461.425781 601.316406 C 550.339844 575.828125 648.046875 506.542969 725.976562 413.378906 C 747.363281 387.890625 749.121094 384.816406 749.121094 375 C 749.121094 365.1875 747.363281 362.109375 725.976562 336.621094 C 648.484375 244.191406 551.074219 174.757812 462.890625 149.121094 C 433.300781 140.480469 413.671875 137.695312 381.589844 137.109375 C 365.476562 136.671875 349.949219 136.816406 347.167969 137.109375 Z M 410.886719 188.234375 C 479.882812 198.632812 555.027344 239.210938 627.246094 305.273438 C 649.363281 325.34375 692.871094 371.777344 692.871094 375.148438 C 692.871094 375.585938 687.890625 381.886719 681.589844 388.917969 C 596.335938 486.472656 499.363281 548.4375 410.886719 561.765625 C 392.136719 564.550781 357.859375 564.550781 339.109375 561.765625 C 275.390625 552.097656 207.421875 517.382812 139.890625 460.105469 C 115.429688 439.453125 57.128906 379.394531 57.128906 375 C 57.128906 374.414062 62.109375 368.117188 68.40625 361.085938 C 153.074219 264.257812 250.046875 202.003906 337.792969 188.378906 C 355.664062 185.597656 392.722656 185.597656 410.886719 188.234375 Z M 410.886719 188.234375 " fill-opacity="1" fill-rule="nonzero"/><path fill="#ffffff" d="M 354.492188 227.929688 C 291.0625 239.503906 245.945312 280.8125 230.566406 341.308594 C 226.609375 356.835938 226.609375 393.164062 230.566406 408.691406 C 244.773438 464.355469 285.644531 505.222656 341.308594 519.433594 C 356.835938 523.386719 393.164062 523.386719 408.691406 519.433594 C 464.355469 505.222656 505.222656 464.355469 519.433594 408.691406 C 521.628906 400.195312 522.214844 392.578125 522.214844 375 C 522.214844 357.421875 521.628906 349.804688 519.433594 341.308594 C 505.515625 286.378906 465.820312 246.09375 410.886719 231.152344 C 400.925781 228.371094 363.574219 226.320312 354.492188 227.929688 Z M 398.4375 279.199219 C 425.828125 285.351562 450.878906 305.421875 463.621094 331.789062 C 471.238281 347.460938 473.582031 359.472656 472.851562 379.394531 C 472.117188 398.292969 468.457031 411.035156 459.667969 425.976562 C 453.515625 436.523438 436.523438 453.515625 425.976562 459.667969 C 395.066406 477.832031 354.929688 477.832031 324.023438 459.667969 C 313.476562 453.515625 296.484375 436.523438 290.332031 425.976562 C 272.167969 395.070312 272.167969 354.933594 290.332031 324.023438 C 296.484375 313.476562 313.476562 296.484375 324.023438 290.332031 C 346.140625 277.296875 372.070312 273.339844 398.4375 279.199219 Z M 398.4375 279.199219 " fill-opacity="1" fill-rule="nonzero"/></svg>